<?xml version="1.0" encoding="UTF-8"?>
<svg xmlns="http://www.w3.org/2000/svg" width="379.359" height="70" viewBox="0 0 379.359 70">
  <g id="Group_22008" data-name="Group 22008" transform="translate(0 0)">
    <rect id="Rectangle_23138" data-name="Rectangle 23138" width="0.955" height="34.88" transform="translate(365.766 0)" fill="#002e6d"></rect>
    <path id="Path_30807" data-name="Path 30807" d="M355.2,65.752l-.837-.458,14.279-26.019.838.458Z" transform="translate(5.645 0.626)" fill="#002e6d"></path>
    <rect id="Rectangle_23139" data-name="Rectangle 23139" width="30.52" height="0.953" transform="matrix(0.511, -0.86, 0.86, 0.511, 362.947, 69.513)" fill="#002e6d"></rect>
    <path id="Path_30808" data-name="Path 30808" d="M2.935,3.613H360.43V66.148H2.935ZM0,69.761H363.364V0H0Z" transform="translate(0 0)" fill="#002e6d"></path>
    <rect id="Rectangle_23140" data-name="Rectangle 23140" width="31.212" height="25.94" transform="translate(2.892 39.17)" fill="#002e6d"></rect>
    <path id="Path_30809" data-name="Path 30809" d="M34.625,65.06H2.3V38.007H34.625ZM3.412,63.948h30.1V39.121H3.412Z" transform="translate(0.037 0.605)" fill="#fff"></path>
    <rect id="Rectangle_23141" data-name="Rectangle 23141" width="26.65" height="30.229" transform="translate(34.105 34.881)" fill="#002e6d"></rect>
    <path id="Path_30810" data-name="Path 30810" d="M60.783,65.126H33.024V33.788H60.783Zm-26.65-1.109H59.675V34.9H34.133Z" transform="translate(0.526 0.538)" fill="#fff"></path>
    <rect id="Rectangle_23142" data-name="Rectangle 23142" width="31.212" height="25.94" transform="translate(60.755 39.17)" fill="#002e6d"></rect>
    <path id="Path_30811" data-name="Path 30811" d="M91.581,65.06H59.255V38.007H91.581ZM60.367,63.948h30.1V39.121h-30.1Z" transform="translate(0.944 0.605)" fill="#fff"></path>
    <rect id="Rectangle_23143" data-name="Rectangle 23143" width="26.65" height="30.229" transform="translate(91.968 34.881)" fill="#002e6d"></rect>
    <path id="Path_30812" data-name="Path 30812" d="M117.738,65.126H89.98V33.788h27.758ZM91.089,64.017h25.54V34.9H91.089Z" transform="translate(1.433 0.538)" fill="#fff"></path>
    <rect id="Rectangle_23144" data-name="Rectangle 23144" width="31.212" height="25.94" transform="translate(118.617 39.17)" fill="#002e6d"></rect>
    <path id="Path_30813" data-name="Path 30813" d="M148.536,65.06H116.21V38.007h32.326Zm-31.213-1.112h30.1V39.121h-30.1Z" transform="translate(1.851 0.605)" fill="#fff"></path>
    <rect id="Rectangle_23145" data-name="Rectangle 23145" width="26.65" height="30.229" transform="translate(149.83 34.881)" fill="#002e6d"></rect>
    <path id="Path_30814" data-name="Path 30814" d="M174.693,65.126H146.935V33.788h27.758Zm-26.649-1.109h25.54V34.9h-25.54Z" transform="translate(2.341 0.538)" fill="#fff"></path>
    <rect id="Rectangle_23146" data-name="Rectangle 23146" width="31.212" height="25.94" transform="translate(176.48 39.17)" fill="#002e6d"></rect>
    <path id="Path_30815" data-name="Path 30815" d="M205.491,65.06H173.165V38.007h32.326Zm-31.213-1.112h30.1V39.121h-30.1Z" transform="translate(2.758 0.605)" fill="#fff"></path>
    <rect id="Rectangle_23147" data-name="Rectangle 23147" width="26.65" height="30.229" transform="translate(207.693 34.881)" fill="#002e6d"></rect>
    <path id="Path_30816" data-name="Path 30816" d="M231.649,65.126H203.89V33.788h27.759ZM205,64.017h25.541V34.9H205Z" transform="translate(3.248 0.538)" fill="#fff"></path>
    <rect id="Rectangle_23148" data-name="Rectangle 23148" width="31.212" height="25.94" transform="translate(234.342 39.17)" fill="#002e6d"></rect>
    <path id="Path_30817" data-name="Path 30817" d="M262.446,65.06H230.121V38.007h32.325Zm-31.212-1.112h30.1V39.121h-30.1Z" transform="translate(3.666 0.605)" fill="#fff"></path>
    <rect id="Rectangle_23149" data-name="Rectangle 23149" width="26.65" height="30.229" transform="translate(265.555 34.881)" fill="#002e6d"></rect>
    <path id="Path_30818" data-name="Path 30818" d="M288.6,65.126H260.845V33.788H288.6Zm-26.65-1.109H287.5V34.9H261.954Z" transform="translate(4.155 0.538)" fill="#fff"></path>
    <rect id="Rectangle_23150" data-name="Rectangle 23150" width="31.212" height="25.94" transform="translate(292.205 39.17)" fill="#002e6d"></rect>
    <path id="Path_30819" data-name="Path 30819" d="M319.4,65.06H287.076V38.007H319.4Zm-31.212-1.112h30.1V39.121h-30.1Z" transform="translate(4.573 0.605)" fill="#fff"></path>
    <rect id="Rectangle_23151" data-name="Rectangle 23151" width="26.65" height="30.229" transform="translate(323.417 34.881)" fill="#002e6d"></rect>
    <path id="Path_30820" data-name="Path 30820" d="M345.559,65.126H317.8V33.788h27.759Zm-26.65-1.109h25.541V34.9H318.909Z" transform="translate(5.063 0.538)" fill="#fff"></path>
    <rect id="Rectangle_23152" data-name="Rectangle 23152" width="31.212" height="25.94" transform="translate(318.855 4.12)" fill="#002e6d"></rect>
    <path id="Path_30821" data-name="Path 30821" d="M345.633,30.56H313.308V3.507h32.325Zm-31.211-1.112h30.1V4.621h-30.1Z" transform="translate(4.991 0.056)" fill="#fff"></path>
    <rect id="Rectangle_23153" data-name="Rectangle 23153" width="26.65" height="30.229" transform="translate(292.205 4.121)" fill="#002e6d"></rect>
    <path id="Path_30822" data-name="Path 30822" d="M314.837,34.847H287.078V3.509h27.759Zm-26.651-1.109h25.542V4.618H288.186Z" transform="translate(4.573 0.056)" fill="#fff"></path>
    <rect id="Rectangle_23154" data-name="Rectangle 23154" width="31.212" height="25.94" transform="translate(260.992 4.12)" fill="#002e6d"></rect>
    <path id="Path_30823" data-name="Path 30823" d="M288.678,30.56H256.352V3.507h32.326Zm-31.212-1.112h30.1V4.621h-30.1Z" transform="translate(4.084 0.056)" fill="#fff"></path>
    <rect id="Rectangle_23155" data-name="Rectangle 23155" width="26.65" height="30.229" transform="translate(234.342 4.121)" fill="#002e6d"></rect>
    <path id="Path_30824" data-name="Path 30824" d="M257.881,34.847H230.123V3.509h27.758Zm-26.65-1.109h25.54V4.618h-25.54Z" transform="translate(3.666 0.056)" fill="#fff"></path>
    <rect id="Rectangle_23156" data-name="Rectangle 23156" width="31.212" height="25.94" transform="translate(203.13 4.12)" fill="#002e6d"></rect>
    <path id="Path_30825" data-name="Path 30825" d="M231.723,30.56H199.4V3.507h32.326ZM200.51,29.448h30.1V4.621h-30.1Z" transform="translate(3.176 0.056)" fill="#fff"></path>
    <rect id="Rectangle_23157" data-name="Rectangle 23157" width="26.65" height="30.229" transform="translate(176.48 4.121)" fill="#002e6d"></rect>
    <path id="Path_30826" data-name="Path 30826" d="M200.926,34.847H173.167V3.509h27.759Zm-26.651-1.109h25.542V4.618H174.275Z" transform="translate(2.759 0.056)" fill="#fff"></path>
    <rect id="Rectangle_23158" data-name="Rectangle 23158" width="31.212" height="25.94" transform="translate(145.268 4.12)" fill="#002e6d"></rect>
    <path id="Path_30827" data-name="Path 30827" d="M174.767,30.56H142.442V3.507h32.325Zm-31.212-1.112h30.1V4.621h-30.1Z" transform="translate(2.269 0.056)" fill="#fff"></path>
    <rect id="Rectangle_23159" data-name="Rectangle 23159" width="26.65" height="30.229" transform="translate(118.618 4.121)" fill="#002e6d"></rect>
    <path id="Path_30828" data-name="Path 30828" d="M143.971,34.847H116.212V3.509h27.759ZM117.32,33.738h25.542V4.618H117.32Z" transform="translate(1.851 0.056)" fill="#fff"></path>
    <rect id="Rectangle_23160" data-name="Rectangle 23160" width="31.212" height="25.94" transform="translate(87.406 4.12)" fill="#002e6d"></rect>
    <path id="Path_30829" data-name="Path 30829" d="M117.812,30.56H85.487V3.507h32.325ZM86.6,29.448h30.1V4.621H86.6Z" transform="translate(1.362 0.056)" fill="#fff"></path>
    <rect id="Rectangle_23161" data-name="Rectangle 23161" width="26.65" height="30.229" transform="translate(60.755 4.121)" fill="#002e6d"></rect>
    <path id="Path_30830" data-name="Path 30830" d="M87.015,34.847H59.256V3.509H87.015Zm-26.65-1.109H85.907V4.618H60.365Z" transform="translate(0.944 0.056)" fill="#fff"></path>
    <rect id="Rectangle_23162" data-name="Rectangle 23162" width="31.212" height="25.94" transform="translate(29.543 4.12)" fill="#002e6d"></rect>
    <path id="Path_30831" data-name="Path 30831" d="M60.857,30.56H28.532V3.507H60.857ZM29.644,29.448h30.1V4.621h-30.1Z" transform="translate(0.455 0.056)" fill="#fff"></path>
    <rect id="Rectangle_23163" data-name="Rectangle 23163" width="26.65" height="30.229" transform="translate(2.892 4.121)" fill="#002e6d"></rect>
    <path id="Path_30832" data-name="Path 30832" d="M30.06,34.847H2.3V3.509H30.06ZM3.41,33.738H28.952V4.618H3.41Z" transform="translate(0.037 0.056)" fill="#fff"></path>
  </g>
</svg>
