<?xml version="1.0" encoding="UTF-8"?>
<svg xmlns="http://www.w3.org/2000/svg" width="177.453" height="70" viewBox="0 0 177.453 70">
  <g id="Group_22002" data-name="Group 22002" transform="translate(0 0)">
    <rect id="Rectangle_22991" data-name="Rectangle 22991" width="31.212" height="25.94" transform="translate(3.477 39.436)" fill="#002e6d"></rect>
    <path id="Path_30675" data-name="Path 30675" d="M35.2,65.321H2.874V38.269H35.2ZM3.987,64.209h30.1V39.382H3.987Z" transform="translate(0.046 0.61)" fill="#fff"></path>
    <rect id="Rectangle_22992" data-name="Rectangle 22992" width="26.65" height="30.229" transform="translate(34.689 35.146)" fill="#002e6d"></rect>
    <path id="Path_30676" data-name="Path 30676" d="M61.358,65.386H33.6V34.048H61.358ZM34.707,64.277H60.249V35.157H34.707Z" transform="translate(0.535 0.542)" fill="#fff"></path>
    <rect id="Rectangle_22993" data-name="Rectangle 22993" width="31.212" height="25.94" transform="translate(61.339 39.436)" fill="#002e6d"></rect>
    <path id="Path_30677" data-name="Path 30677" d="M92.154,65.321H59.829V38.269H92.154ZM60.942,64.209h30.1V39.382h-30.1Z" transform="translate(0.953 0.61)" fill="#fff"></path>
    <rect id="Rectangle_22994" data-name="Rectangle 22994" width="26.65" height="30.229" transform="translate(92.551 35.146)" fill="#002e6d"></rect>
    <path id="Path_30678" data-name="Path 30678" d="M118.313,65.386H90.554V34.048h27.759ZM91.662,64.277H117.2V35.157H91.662Z" transform="translate(1.443 0.542)" fill="#fff"></path>
    <rect id="Rectangle_22995" data-name="Rectangle 22995" width="31.212" height="25.94" transform="translate(119.201 39.436)" fill="#002e6d"></rect>
    <path id="Path_30679" data-name="Path 30679" d="M149.109,65.321H116.784V38.269h32.325ZM117.9,64.209H148V39.382H117.9Z" transform="translate(1.861 0.61)" fill="#fff"></path>
    <rect id="Rectangle_22996" data-name="Rectangle 22996" width="26.65" height="30.229" transform="translate(119.201 4.386)" fill="#002e6d"></rect>
    <path id="Path_30680" data-name="Path 30680" d="M144.545,35.109H116.786V3.771h27.759ZM117.9,34h25.542V4.88H117.9Z" transform="translate(1.861 0.06)" fill="#fff"></path>
    <rect id="Rectangle_22997" data-name="Rectangle 22997" width="31.212" height="25.94" transform="translate(87.989 4.386)" fill="#002e6d"></rect>
    <path id="Path_30681" data-name="Path 30681" d="M118.387,30.821H86.062V3.769h32.325ZM87.174,29.709h30.1V4.882h-30.1Z" transform="translate(1.371 0.06)" fill="#fff"></path>
    <rect id="Rectangle_22998" data-name="Rectangle 22998" width="26.65" height="30.229" transform="translate(61.339 4.386)" fill="#002e6d"></rect>
    <path id="Path_30682" data-name="Path 30682" d="M87.59,35.109H59.831V3.771H87.59ZM60.94,34H86.482V4.88H60.94Z" transform="translate(0.953 0.06)" fill="#fff"></path>
    <rect id="Rectangle_22999" data-name="Rectangle 22999" width="31.212" height="25.94" transform="translate(30.126 4.386)" fill="#002e6d"></rect>
    <path id="Path_30683" data-name="Path 30683" d="M61.432,30.821H29.107V3.769H61.432ZM30.219,29.709h30.1V4.882h-30.1Z" transform="translate(0.464 0.06)" fill="#fff"></path>
    <rect id="Rectangle_23000" data-name="Rectangle 23000" width="26.65" height="30.229" transform="translate(3.477 4.386)" fill="#002e6d"></rect>
    <path id="Path_30684" data-name="Path 30684" d="M30.635,35.109H2.876V3.771H30.635ZM3.985,34H29.527V4.88H3.985Z" transform="translate(0.046 0.06)" fill="#fff"></path>
    <rect id="Rectangle_23001" data-name="Rectangle 23001" width="0.955" height="34.879" transform="translate(163.86 0)" fill="#002e6d"></rect>
    <path id="Path_30685" data-name="Path 30685" d="M156.462,65.752l-.837-.458L169.9,39.275l.838.458Z" transform="translate(2.479 0.626)" fill="#002e6d"></path>
    <rect id="Rectangle_23002" data-name="Rectangle 23002" width="30.521" height="0.953" transform="matrix(0.511, -0.86, 0.86, 0.511, 161.041, 69.513)" fill="#002e6d"></rect>
    <path id="Path_30686" data-name="Path 30686" d="M2.935,3.612H158.523V66.147H2.935ZM0,69.761H161.458V0H0Z" transform="translate(0 0)" fill="#002e6d"></path>
  </g>
</svg>
