<?xml version="1.0" encoding="UTF-8"?>
<svg xmlns="http://www.w3.org/2000/svg" width="338.889" height="70" viewBox="0 0 338.889 70">
  <g id="Group_22005" data-name="Group 22005" transform="translate(0 0)">
    <rect id="Rectangle_23052" data-name="Rectangle 23052" width="0.955" height="34.878" transform="translate(325.303 0.001)" fill="#002e6d"></rect>
    <rect id="Rectangle_23053" data-name="Rectangle 23053" width="29.678" height="0.955" transform="translate(319.564 65.924) rotate(-61.307)" fill="#002e6d"></rect>
    <rect id="Rectangle_23054" data-name="Rectangle 23054" width="30.518" height="0.953" transform="translate(322.492 69.514) rotate(-59.308)" fill="#002e6d"></rect>
    <path id="Path_30723" data-name="Path 30723" d="M2.935,3.612H319.968V66.146H2.935ZM0,69.759H322.9V0H0Z" transform="translate(0 0)" fill="#002e6d"></path>
    <rect id="Rectangle_23055" data-name="Rectangle 23055" width="21.027" height="32.65" transform="translate(2.978 3.36)" fill="#002e6d"></rect>
    <path id="Path_30724" data-name="Path 30724" d="M24.478,36.478H2.427V2.805H24.478ZM3.451,35.454h20V3.828h-20Z" transform="translate(0.039 0.045)" fill="#fff"></path>
    <rect id="Rectangle_23056" data-name="Rectangle 23056" width="21.028" height="32.65" transform="translate(24.003 3.36)" fill="#002e6d"></rect>
    <path id="Path_30725" data-name="Path 30725" d="M45.176,36.478H23.125V2.805H45.176ZM24.149,35.454h20V3.828h-20Z" transform="translate(0.367 0.045)" fill="#fff"></path>
    <rect id="Rectangle_23057" data-name="Rectangle 23057" width="21.027" height="32.65" transform="translate(45.032 3.36)" fill="#002e6d"></rect>
    <path id="Path_30726" data-name="Path 30726" d="M65.874,36.478H43.823V2.805H65.874ZM44.847,35.454h20V3.828h-20Z" transform="translate(0.696 0.045)" fill="#fff"></path>
    <rect id="Rectangle_23058" data-name="Rectangle 23058" width="21.027" height="32.65" transform="translate(66.059 3.36)" fill="#002e6d"></rect>
    <path id="Path_30727" data-name="Path 30727" d="M86.574,36.478H64.522V2.805H86.574ZM65.545,35.454h20V3.828h-20Z" transform="translate(1.025 0.045)" fill="#fff"></path>
    <rect id="Rectangle_23059" data-name="Rectangle 23059" width="21.027" height="32.65" transform="translate(87.087 3.36)" fill="#002e6d"></rect>
    <path id="Path_30728" data-name="Path 30728" d="M107.272,36.478H85.221V2.805h22.051ZM86.245,35.454h20V3.828h-20Z" transform="translate(1.354 0.045)" fill="#fff"></path>
    <rect id="Rectangle_23060" data-name="Rectangle 23060" width="21.027" height="32.65" transform="translate(108.114 3.36)" fill="#002e6d"></rect>
    <path id="Path_30729" data-name="Path 30729" d="M127.97,36.478H105.919V2.805H127.97Zm-21.027-1.024h20V3.828h-20Z" transform="translate(1.683 0.045)" fill="#fff"></path>
    <rect id="Rectangle_23061" data-name="Rectangle 23061" width="21.027" height="32.65" transform="translate(129.142 3.36)" fill="#002e6d"></rect>
    <path id="Path_30730" data-name="Path 30730" d="M148.668,36.478H126.617V2.805h22.051Zm-21.027-1.024h20V3.828h-20Z" transform="translate(2.012 0.045)" fill="#fff"></path>
    <rect id="Rectangle_23062" data-name="Rectangle 23062" width="21.028" height="32.65" transform="translate(150.168 3.36)" fill="#002e6d"></rect>
    <path id="Path_30731" data-name="Path 30731" d="M169.368,36.478H147.316V2.805h22.052Zm-21.029-1.024h20V3.828h-20Z" transform="translate(2.341 0.045)" fill="#fff"></path>
    <rect id="Rectangle_23063" data-name="Rectangle 23063" width="21.027" height="32.65" transform="translate(171.197 3.36)" fill="#002e6d"></rect>
    <path id="Path_30732" data-name="Path 30732" d="M190.066,36.478H168.015V2.805h22.051Zm-21.027-1.024h20V3.828h-20Z" transform="translate(2.67 0.045)" fill="#fff"></path>
    <rect id="Rectangle_23064" data-name="Rectangle 23064" width="21.028" height="32.65" transform="translate(192.223 3.36)" fill="#002e6d"></rect>
    <path id="Path_30733" data-name="Path 30733" d="M210.764,36.478H188.713V2.805h22.051Zm-21.027-1.024h20V3.828h-20Z" transform="translate(2.999 0.045)" fill="#fff"></path>
    <rect id="Rectangle_23065" data-name="Rectangle 23065" width="21.027" height="32.65" transform="translate(213.252 3.36)" fill="#002e6d"></rect>
    <path id="Path_30734" data-name="Path 30734" d="M231.462,36.478H209.411V2.805h22.051Zm-21.027-1.024h20V3.828h-20Z" transform="translate(3.328 0.045)" fill="#fff"></path>
    <rect id="Rectangle_23066" data-name="Rectangle 23066" width="21.028" height="32.65" transform="translate(234.278 3.36)" fill="#002e6d"></rect>
    <path id="Path_30735" data-name="Path 30735" d="M252.162,36.478H230.11V2.805h22.052Zm-21.029-1.024h20V3.828h-20Z" transform="translate(3.657 0.045)" fill="#fff"></path>
    <rect id="Rectangle_23067" data-name="Rectangle 23067" width="21.028" height="32.65" transform="translate(255.306 3.36)" fill="#002e6d"></rect>
    <path id="Path_30736" data-name="Path 30736" d="M272.86,36.478H250.809V2.805H272.86Zm-21.027-1.024h20V3.828h-20Z" transform="translate(3.986 0.045)" fill="#fff"></path>
    <rect id="Rectangle_23068" data-name="Rectangle 23068" width="21.027" height="32.65" transform="translate(276.334 3.36)" fill="#002e6d"></rect>
    <path id="Path_30737" data-name="Path 30737" d="M293.558,36.478H271.507V2.805h22.051Zm-21.027-1.024h20V3.828h-20Z" transform="translate(4.314 0.045)" fill="#fff"></path>
    <rect id="Rectangle_23069" data-name="Rectangle 23069" width="21.027" height="32.65" transform="translate(297.361 3.36)" fill="#002e6d"></rect>
    <path id="Path_30738" data-name="Path 30738" d="M314.257,36.478H292.2V2.805h22.052Zm-21.028-1.024h20V3.828h-20Z" transform="translate(4.643 0.045)" fill="#fff"></path>
    <rect id="Rectangle_23070" data-name="Rectangle 23070" width="31.591" height="20.905" transform="translate(2.935 43.949)" fill="#002e6d"></rect>
    <path id="Path_30739" data-name="Path 30739" d="M34.99,64.678H2.395V42.769H34.99Zm-31.591-1H33.985v-19.9H3.4Z" transform="translate(0.038 0.68)" fill="#fff"></path>
    <rect id="Rectangle_23071" data-name="Rectangle 23071" width="31.591" height="20.905" transform="translate(34.525 43.949)" fill="#002e6d"></rect>
    <path id="Path_30740" data-name="Path 30740" d="M66.086,64.678H33.491V42.769H66.086Zm-31.59-1H65.082v-19.9H34.5Z" transform="translate(0.532 0.68)" fill="#fff"></path>
    <rect id="Rectangle_23072" data-name="Rectangle 23072" width="31.591" height="20.905" transform="translate(66.116 43.949)" fill="#002e6d"></rect>
    <path id="Path_30741" data-name="Path 30741" d="M97.183,64.678H64.588V42.769H97.183Zm-31.591-1H96.178v-19.9H65.592Z" transform="translate(1.026 0.68)" fill="#fff"></path>
    <rect id="Rectangle_23073" data-name="Rectangle 23073" width="31.591" height="20.905" transform="translate(97.706 43.949)" fill="#002e6d"></rect>
    <path id="Path_30742" data-name="Path 30742" d="M128.28,64.678H95.685V42.769H128.28Zm-31.591-1h30.586v-19.9H96.689Z" transform="translate(1.521 0.68)" fill="#fff"></path>
    <rect id="Rectangle_23074" data-name="Rectangle 23074" width="31.591" height="20.905" transform="translate(129.298 43.949)" fill="#002e6d"></rect>
    <path id="Path_30743" data-name="Path 30743" d="M159.376,64.678H126.781V42.769h32.595Zm-31.59-1h30.586v-19.9H127.786Z" transform="translate(2.015 0.68)" fill="#fff"></path>
    <rect id="Rectangle_23075" data-name="Rectangle 23075" width="31.591" height="20.905" transform="translate(160.889 43.949)" fill="#002e6d"></rect>
    <path id="Path_30744" data-name="Path 30744" d="M190.473,64.678H157.878V42.769h32.595Zm-31.591-1h30.586v-19.9H158.882Z" transform="translate(2.509 0.68)" fill="#fff"></path>
    <rect id="Rectangle_23076" data-name="Rectangle 23076" width="31.591" height="20.905" transform="translate(192.479 43.949)" fill="#002e6d"></rect>
    <path id="Path_30745" data-name="Path 30745" d="M221.57,64.678H188.975V42.769H221.57Zm-31.591-1h30.586v-19.9H189.979Z" transform="translate(3.003 0.68)" fill="#fff"></path>
    <rect id="Rectangle_23077" data-name="Rectangle 23077" width="31.591" height="20.905" transform="translate(224.07 43.949)" fill="#002e6d"></rect>
    <path id="Path_30746" data-name="Path 30746" d="M252.666,64.678H220.071V42.769h32.595Zm-31.59-1h30.586v-19.9H221.076Z" transform="translate(3.497 0.68)" fill="#fff"></path>
    <rect id="Rectangle_23078" data-name="Rectangle 23078" width="31.591" height="20.905" transform="translate(255.661 43.949)" fill="#002e6d"></rect>
    <path id="Path_30747" data-name="Path 30747" d="M283.763,64.678H251.168V42.769h32.595Zm-31.591-1h30.586v-19.9H252.172Z" transform="translate(3.991 0.68)" fill="#fff"></path>
    <rect id="Rectangle_23079" data-name="Rectangle 23079" width="31.591" height="20.905" transform="translate(287.251 43.949)" fill="#002e6d"></rect>
    <path id="Path_30748" data-name="Path 30748" d="M314.859,64.678H282.265V42.769h32.594Zm-31.59-1h30.585v-19.9H283.269Z" transform="translate(4.485 0.68)" fill="#fff"></path>
  </g>
</svg>
