<?xml version="1.0" encoding="UTF-8"?>
<svg xmlns="http://www.w3.org/2000/svg" width="379.359" height="70" viewBox="0 0 379.359 70">
  <g id="Group_22010" data-name="Group 22010" transform="translate(0 0)">
    <rect id="Rectangle_23193" data-name="Rectangle 23193" width="0.955" height="34.88" transform="translate(365.766 0)" fill="#002e6d"></rect>
    <path id="Path_30862" data-name="Path 30862" d="M355.2,65.752l-.837-.458,14.279-26.019.838.458Z" transform="translate(5.646 0.626)" fill="#002e6d"></path>
    <rect id="Rectangle_23194" data-name="Rectangle 23194" width="30.52" height="0.953" transform="matrix(0.511, -0.86, 0.86, 0.511, 362.948, 69.513)" fill="#002e6d"></rect>
    <path id="Path_30863" data-name="Path 30863" d="M2.935,3.613h357.5V66.148H2.935ZM0,69.761H363.365V0H0Z" transform="translate(0 0)" fill="#002e6d"></path>
    <rect id="Rectangle_23195" data-name="Rectangle 23195" width="26.213" height="31.406" transform="translate(2.928 3.613)" fill="#002e6d"></rect>
    <path id="Path_30864" data-name="Path 30864" d="M29.665,35.53H2.33V3H29.665ZM3.451,34.41H28.543V4.125H3.451Z" transform="translate(0.037 0.048)" fill="#fff"></path>
    <rect id="Rectangle_23196" data-name="Rectangle 23196" width="26.213" height="31.406" transform="translate(29.141 3.613)" fill="#002e6d"></rect>
    <path id="Path_30865" data-name="Path 30865" d="M55.467,35.53H28.133V3H55.467ZM29.254,34.41H54.345V4.125H29.254Z" transform="translate(0.448 0.048)" fill="#fff"></path>
    <rect id="Rectangle_23197" data-name="Rectangle 23197" width="26.213" height="31.406" transform="translate(55.354 3.613)" fill="#002e6d"></rect>
    <path id="Path_30866" data-name="Path 30866" d="M81.269,35.53H53.934V3H81.269ZM55.056,34.41H80.148V4.125H55.056Z" transform="translate(0.859 0.048)" fill="#fff"></path>
    <rect id="Rectangle_23198" data-name="Rectangle 23198" width="26.213" height="31.406" transform="translate(81.567 3.613)" fill="#002e6d"></rect>
    <path id="Path_30867" data-name="Path 30867" d="M107.071,35.53H79.737V3h27.334ZM80.858,34.41h25.092V4.125H80.858Z" transform="translate(1.27 0.048)" fill="#fff"></path>
    <rect id="Rectangle_23199" data-name="Rectangle 23199" width="26.213" height="31.406" transform="translate(107.781 3.613)" fill="#002e6d"></rect>
    <path id="Path_30868" data-name="Path 30868" d="M132.873,35.53H105.539V3h27.334ZM106.66,34.41h25.092V4.125H106.66Z" transform="translate(1.682 0.048)" fill="#fff"></path>
    <rect id="Rectangle_23200" data-name="Rectangle 23200" width="26.213" height="31.406" transform="translate(133.994 3.613)" fill="#002e6d"></rect>
    <path id="Path_30869" data-name="Path 30869" d="M158.676,35.53H131.341V3h27.335ZM132.462,34.41h25.093V4.125H132.462Z" transform="translate(2.093 0.048)" fill="#fff"></path>
    <rect id="Rectangle_23201" data-name="Rectangle 23201" width="26.213" height="31.406" transform="translate(160.208 3.613)" fill="#002e6d"></rect>
    <path id="Path_30870" data-name="Path 30870" d="M184.477,35.53H157.143V3h27.334ZM158.265,34.41h25.092V4.125H158.265Z" transform="translate(2.504 0.048)" fill="#fff"></path>
    <rect id="Rectangle_23202" data-name="Rectangle 23202" width="26.213" height="31.406" transform="translate(186.421 3.613)" fill="#002e6d"></rect>
    <path id="Path_30871" data-name="Path 30871" d="M210.28,35.53H182.945V3H210.28ZM184.066,34.41h25.093V4.125H184.066Z" transform="translate(2.915 0.048)" fill="#fff"></path>
    <rect id="Rectangle_23203" data-name="Rectangle 23203" width="26.213" height="31.406" transform="translate(212.634 3.613)" fill="#002e6d"></rect>
    <path id="Path_30872" data-name="Path 30872" d="M236.082,35.53H208.748V3h27.334ZM209.869,34.41H234.96V4.125H209.869Z" transform="translate(3.326 0.048)" fill="#fff"></path>
    <rect id="Rectangle_23204" data-name="Rectangle 23204" width="26.213" height="31.406" transform="translate(238.848 3.613)" fill="#002e6d"></rect>
    <path id="Path_30873" data-name="Path 30873" d="M261.885,35.53H234.55V3h27.335ZM235.671,34.41h25.093V4.125H235.671Z" transform="translate(3.737 0.048)" fill="#fff"></path>
    <rect id="Rectangle_23205" data-name="Rectangle 23205" width="26.213" height="31.406" transform="translate(265.061 3.613)" fill="#002e6d"></rect>
    <path id="Path_30874" data-name="Path 30874" d="M287.686,35.53H260.352V3h27.334ZM261.474,34.41h25.092V4.125H261.474Z" transform="translate(4.148 0.048)" fill="#fff"></path>
    <rect id="Rectangle_23206" data-name="Rectangle 23206" width="26.213" height="31.406" transform="translate(291.239 3.613)" fill="#002e6d"></rect>
    <path id="Path_30875" data-name="Path 30875" d="M313.454,35.53H286.12V3h27.334ZM287.241,34.41h25.092V4.125H287.241Z" transform="translate(4.559 0.048)" fill="#fff"></path>
    <rect id="Rectangle_23207" data-name="Rectangle 23207" width="26.213" height="31.406" transform="translate(317.453 3.613)" fill="#002e6d"></rect>
    <path id="Path_30876" data-name="Path 30876" d="M339.257,35.53H311.922V3h27.335ZM313.043,34.41h25.093V4.125H313.043Z" transform="translate(4.97 0.048)" fill="#fff"></path>
    <rect id="Rectangle_23208" data-name="Rectangle 23208" width="26.213" height="31.406" transform="translate(2.892 34.743)" fill="#002e6d"></rect>
    <path id="Path_30877" data-name="Path 30877" d="M29.63,66.173H2.3V33.647H29.63ZM3.417,65.052H28.508V34.768H3.417Z" transform="translate(0.037 0.536)" fill="#fff"></path>
    <rect id="Rectangle_23209" data-name="Rectangle 23209" width="26.213" height="31.406" transform="translate(29.106 34.743)" fill="#002e6d"></rect>
    <path id="Path_30878" data-name="Path 30878" d="M55.433,66.173H28.1V33.647H55.433ZM29.219,65.052H54.311V34.768H29.219Z" transform="translate(0.448 0.536)" fill="#fff"></path>
    <rect id="Rectangle_23210" data-name="Rectangle 23210" width="26.213" height="31.406" transform="translate(55.32 34.743)" fill="#002e6d"></rect>
    <path id="Path_30879" data-name="Path 30879" d="M81.234,66.173H53.9V33.647H81.234ZM55.022,65.052H80.113V34.768H55.022Z" transform="translate(0.859 0.536)" fill="#fff"></path>
    <rect id="Rectangle_23211" data-name="Rectangle 23211" width="26.213" height="31.406" transform="translate(81.533 34.743)" fill="#002e6d"></rect>
    <path id="Path_30880" data-name="Path 30880" d="M107.037,66.173H79.7V33.647h27.335ZM80.823,65.052h25.093V34.768H80.823Z" transform="translate(1.27 0.536)" fill="#fff"></path>
    <rect id="Rectangle_23212" data-name="Rectangle 23212" width="26.213" height="31.406" transform="translate(107.746 34.743)" fill="#002e6d"></rect>
    <path id="Path_30881" data-name="Path 30881" d="M132.839,66.173H105.505V33.647h27.334Zm-26.213-1.122h25.092V34.768H106.626Z" transform="translate(1.681 0.536)" fill="#fff"></path>
    <rect id="Rectangle_23213" data-name="Rectangle 23213" width="26.213" height="31.406" transform="translate(133.959 34.743)" fill="#002e6d"></rect>
    <path id="Path_30882" data-name="Path 30882" d="M158.642,66.173H131.307V33.647h27.335Zm-26.214-1.122H157.52V34.768H132.428Z" transform="translate(2.092 0.536)" fill="#fff"></path>
    <rect id="Rectangle_23214" data-name="Rectangle 23214" width="26.213" height="31.406" transform="translate(160.173 34.743)" fill="#002e6d"></rect>
    <path id="Path_30883" data-name="Path 30883" d="M184.443,66.173H157.109V33.647h27.334Zm-26.212-1.122h25.092V34.768H158.231Z" transform="translate(2.503 0.536)" fill="#fff"></path>
    <rect id="Rectangle_23215" data-name="Rectangle 23215" width="26.213" height="31.406" transform="translate(186.386 34.743)" fill="#002e6d"></rect>
    <path id="Path_30884" data-name="Path 30884" d="M210.245,66.173H182.911V33.647h27.334Zm-26.213-1.122h25.092V34.768H184.032Z" transform="translate(2.914 0.536)" fill="#fff"></path>
    <rect id="Rectangle_23216" data-name="Rectangle 23216" width="26.213" height="31.406" transform="translate(212.599 34.743)" fill="#002e6d"></rect>
    <path id="Path_30885" data-name="Path 30885" d="M236.048,66.173H208.713V33.647h27.335Zm-26.214-1.122h25.093V34.768H209.834Z" transform="translate(3.325 0.536)" fill="#fff"></path>
    <rect id="Rectangle_23217" data-name="Rectangle 23217" width="26.213" height="31.406" transform="translate(238.812 34.743)" fill="#002e6d"></rect>
    <path id="Path_30886" data-name="Path 30886" d="M261.85,66.173H234.516V33.647H261.85Zm-26.213-1.122h25.092V34.768H235.637Z" transform="translate(3.737 0.536)" fill="#fff"></path>
    <rect id="Rectangle_23218" data-name="Rectangle 23218" width="26.213" height="31.406" transform="translate(265.025 34.743)" fill="#002e6d"></rect>
    <path id="Path_30887" data-name="Path 30887" d="M287.652,66.173H260.317V33.647h27.335Zm-26.213-1.122h25.093V34.768H261.439Z" transform="translate(4.148 0.536)" fill="#fff"></path>
    <rect id="Rectangle_23219" data-name="Rectangle 23219" width="26.213" height="31.406" transform="translate(291.239 34.743)" fill="#002e6d"></rect>
    <path id="Path_30888" data-name="Path 30888" d="M313.454,66.173H286.12V33.647h27.334Zm-26.213-1.122h25.092V34.768H287.241Z" transform="translate(4.559 0.536)" fill="#fff"></path>
    <rect id="Rectangle_23220" data-name="Rectangle 23220" width="26.213" height="31.406" transform="translate(317.453 34.743)" fill="#002e6d"></rect>
    <path id="Path_30889" data-name="Path 30889" d="M339.257,66.173H311.922V33.647h27.335Zm-26.214-1.122h25.093V34.768H313.043Z" transform="translate(4.97 0.536)" fill="#fff"></path>
  </g>
</svg>
