<?xml version="1.0" encoding="UTF-8"?>
<svg xmlns="http://www.w3.org/2000/svg" width="338.91" height="70" viewBox="0 0 338.91 70">
  <g id="Group_22007" data-name="Group 22007" transform="translate(0 0)">
    <rect id="Rectangle_23106" data-name="Rectangle 23106" width="0.955" height="34.879" transform="translate(325.317 0)" fill="#002e6d"></rect>
    <path id="Path_30775" data-name="Path 30775" d="M315.388,65.752l-.837-.458L328.83,39.275l.838.458Z" transform="translate(5.011 0.626)" fill="#002e6d"></path>
    <rect id="Rectangle_23107" data-name="Rectangle 23107" width="30.521" height="0.953" transform="matrix(0.511, -0.86, 0.86, 0.511, 322.498, 69.513)" fill="#002e6d"></rect>
    <path id="Path_30776" data-name="Path 30776" d="M2.935,3.612H319.981V66.147H2.935ZM0,69.761H322.915V0H0Z" transform="translate(0 0)" fill="#002e6d"></path>
    <rect id="Rectangle_23108" data-name="Rectangle 23108" width="21.067" height="31.406" transform="translate(2.935 3.612)" fill="#002e6d"></rect>
    <path id="Path_30777" data-name="Path 30777" d="M24.467,35.472H2.394V3.061H24.467ZM3.4,34.465H23.46V4.066H3.4Z" transform="translate(0.038 0.049)" fill="#fff"></path>
    <rect id="Rectangle_23109" data-name="Rectangle 23109" width="21.067" height="31.406" transform="translate(24.002 3.612)" fill="#002e6d"></rect>
    <path id="Path_30778" data-name="Path 30778" d="M45.2,35.472H23.13V3.061H45.2ZM24.137,34.465H44.2V4.066H24.137Z" transform="translate(0.369 0.049)" fill="#fff"></path>
    <rect id="Rectangle_23110" data-name="Rectangle 23110" width="21.067" height="31.406" transform="translate(45.07 3.612)" fill="#002e6d"></rect>
    <path id="Path_30779" data-name="Path 30779" d="M65.941,35.472H43.867V3.061H65.941ZM44.874,34.465H64.935V4.066H44.874Z" transform="translate(0.699 0.049)" fill="#fff"></path>
    <rect id="Rectangle_23111" data-name="Rectangle 23111" width="21.067" height="31.406" transform="translate(66.138 3.612)" fill="#002e6d"></rect>
    <path id="Path_30780" data-name="Path 30780" d="M86.679,35.472H64.605V3.061H86.679ZM65.611,34.465H85.672V4.066H65.611Z" transform="translate(1.029 0.049)" fill="#fff"></path>
    <rect id="Rectangle_23112" data-name="Rectangle 23112" width="21.067" height="31.406" transform="translate(87.206 3.612)" fill="#002e6d"></rect>
    <path id="Path_30781" data-name="Path 30781" d="M107.416,35.472H85.342V3.061h22.074ZM86.349,34.465H106.41V4.066H86.349Z" transform="translate(1.36 0.049)" fill="#fff"></path>
    <rect id="Rectangle_23113" data-name="Rectangle 23113" width="21.067" height="31.406" transform="translate(108.273 3.612)" fill="#002e6d"></rect>
    <path id="Path_30782" data-name="Path 30782" d="M128.153,35.472H106.079V3.061h22.074Zm-21.067-1.007h20.062V4.066H107.086Z" transform="translate(1.69 0.049)" fill="#fff"></path>
    <rect id="Rectangle_23114" data-name="Rectangle 23114" width="21.067" height="31.406" transform="translate(129.34 3.612)" fill="#002e6d"></rect>
    <path id="Path_30783" data-name="Path 30783" d="M148.891,35.472H126.817V3.061h22.074Zm-21.068-1.007h20.062V4.066H127.823Z" transform="translate(2.02 0.049)" fill="#fff"></path>
    <rect id="Rectangle_23115" data-name="Rectangle 23115" width="21.067" height="31.406" transform="translate(150.408 3.612)" fill="#002e6d"></rect>
    <path id="Path_30784" data-name="Path 30784" d="M169.628,35.472H147.554V3.061h22.074Zm-21.067-1.007h20.062V4.066H148.561Z" transform="translate(2.351 0.049)" fill="#fff"></path>
    <rect id="Rectangle_23116" data-name="Rectangle 23116" width="21.067" height="31.406" transform="translate(171.475 3.612)" fill="#002e6d"></rect>
    <path id="Path_30785" data-name="Path 30785" d="M190.364,35.472H168.291V3.061h22.073ZM169.3,34.465h20.061V4.066H169.3Z" transform="translate(2.681 0.049)" fill="#fff"></path>
    <rect id="Rectangle_23117" data-name="Rectangle 23117" width="21.067" height="31.406" transform="translate(192.543 3.612)" fill="#002e6d"></rect>
    <path id="Path_30786" data-name="Path 30786" d="M211.1,35.472H189.028V3.061H211.1Zm-21.068-1.007H210.1V4.066H190.034Z" transform="translate(3.012 0.049)" fill="#fff"></path>
    <rect id="Rectangle_23118" data-name="Rectangle 23118" width="21.067" height="31.406" transform="translate(213.611 3.612)" fill="#002e6d"></rect>
    <path id="Path_30787" data-name="Path 30787" d="M231.839,35.472H209.765V3.061h22.074Zm-21.067-1.007h20.062V4.066H210.772Z" transform="translate(3.342 0.049)" fill="#fff"></path>
    <rect id="Rectangle_23119" data-name="Rectangle 23119" width="21.067" height="31.406" transform="translate(234.65 3.612)" fill="#002e6d"></rect>
    <path id="Path_30788" data-name="Path 30788" d="M252.549,35.472H230.475V3.061h22.074Zm-21.068-1.007h20.062V4.066H231.481Z" transform="translate(3.672 0.049)" fill="#fff"></path>
    <rect id="Rectangle_23120" data-name="Rectangle 23120" width="21.067" height="31.406" transform="translate(255.717 3.612)" fill="#002e6d"></rect>
    <path id="Path_30789" data-name="Path 30789" d="M273.285,35.472H251.212V3.061h22.073Zm-21.066-1.007h20.061V4.066H252.219Z" transform="translate(4.002 0.049)" fill="#fff"></path>
    <rect id="Rectangle_23121" data-name="Rectangle 23121" width="21.067" height="31.406" transform="translate(276.786 3.612)" fill="#002e6d"></rect>
    <path id="Path_30790" data-name="Path 30790" d="M294.022,35.472H271.948V3.061h22.074Zm-21.067-1.007h20.062V4.066H272.955Z" transform="translate(4.333 0.049)" fill="#fff"></path>
    <rect id="Rectangle_23122" data-name="Rectangle 23122" width="21.067" height="31.406" transform="translate(297.853 3.612)" fill="#002e6d"></rect>
    <path id="Path_30791" data-name="Path 30791" d="M314.76,35.472H292.686V3.061H314.76Zm-21.068-1.007h20.062V4.066H293.692Z" transform="translate(4.663 0.049)" fill="#fff"></path>
    <rect id="Rectangle_23123" data-name="Rectangle 23123" width="21.067" height="31.405" transform="translate(2.935 34.88)" fill="#002e6d"></rect>
    <path id="Path_30792" data-name="Path 30792" d="M24.467,66.249H2.394V33.838H24.467ZM3.4,65.243H23.46v-30.4H3.4Z" transform="translate(0.038 0.539)" fill="#fff"></path>
    <rect id="Rectangle_23124" data-name="Rectangle 23124" width="21.067" height="31.405" transform="translate(24.002 34.88)" fill="#002e6d"></rect>
    <path id="Path_30793" data-name="Path 30793" d="M45.2,66.249H23.13V33.838H45.2ZM24.137,65.243H44.2v-30.4H24.137Z" transform="translate(0.369 0.539)" fill="#fff"></path>
    <rect id="Rectangle_23125" data-name="Rectangle 23125" width="21.067" height="31.405" transform="translate(45.07 34.88)" fill="#002e6d"></rect>
    <path id="Path_30794" data-name="Path 30794" d="M65.941,66.249H43.867V33.838H65.941ZM44.874,65.243H64.935v-30.4H44.874Z" transform="translate(0.699 0.539)" fill="#fff"></path>
    <rect id="Rectangle_23126" data-name="Rectangle 23126" width="21.067" height="31.405" transform="translate(66.138 34.88)" fill="#002e6d"></rect>
    <path id="Path_30795" data-name="Path 30795" d="M86.679,66.249H64.605V33.838H86.679ZM65.611,65.243H85.672v-30.4H65.611Z" transform="translate(1.029 0.539)" fill="#fff"></path>
    <rect id="Rectangle_23127" data-name="Rectangle 23127" width="21.067" height="31.405" transform="translate(87.206 34.88)" fill="#002e6d"></rect>
    <path id="Path_30796" data-name="Path 30796" d="M107.416,66.249H85.342V33.838h22.074ZM86.349,65.243H106.41v-30.4H86.349Z" transform="translate(1.36 0.539)" fill="#fff"></path>
    <rect id="Rectangle_23128" data-name="Rectangle 23128" width="21.067" height="31.405" transform="translate(108.273 34.88)" fill="#002e6d"></rect>
    <path id="Path_30797" data-name="Path 30797" d="M128.153,66.249H106.079V33.838h22.074Zm-21.067-1.006h20.062v-30.4H107.086Z" transform="translate(1.69 0.539)" fill="#fff"></path>
    <rect id="Rectangle_23129" data-name="Rectangle 23129" width="21.067" height="31.405" transform="translate(129.34 34.88)" fill="#002e6d"></rect>
    <path id="Path_30798" data-name="Path 30798" d="M148.891,66.249H126.817V33.838h22.074Zm-21.068-1.006h20.062v-30.4H127.823Z" transform="translate(2.02 0.539)" fill="#fff"></path>
    <rect id="Rectangle_23130" data-name="Rectangle 23130" width="21.067" height="31.405" transform="translate(150.408 34.88)" fill="#002e6d"></rect>
    <path id="Path_30799" data-name="Path 30799" d="M169.628,66.249H147.554V33.838h22.074Zm-21.067-1.006h20.062v-30.4H148.561Z" transform="translate(2.351 0.539)" fill="#fff"></path>
    <rect id="Rectangle_23131" data-name="Rectangle 23131" width="21.067" height="31.405" transform="translate(171.475 34.88)" fill="#002e6d"></rect>
    <path id="Path_30800" data-name="Path 30800" d="M190.364,66.249H168.291V33.838h22.073ZM169.3,65.243h20.061v-30.4H169.3Z" transform="translate(2.681 0.539)" fill="#fff"></path>
    <rect id="Rectangle_23132" data-name="Rectangle 23132" width="21.067" height="31.405" transform="translate(192.543 34.88)" fill="#002e6d"></rect>
    <path id="Path_30801" data-name="Path 30801" d="M211.1,66.249H189.028V33.838H211.1Zm-21.068-1.006H210.1v-30.4H190.034Z" transform="translate(3.012 0.539)" fill="#fff"></path>
    <rect id="Rectangle_23133" data-name="Rectangle 23133" width="21.067" height="31.405" transform="translate(213.611 34.88)" fill="#002e6d"></rect>
    <path id="Path_30802" data-name="Path 30802" d="M231.839,66.249H209.765V33.838h22.074Zm-21.067-1.006h20.062v-30.4H210.772Z" transform="translate(3.342 0.539)" fill="#fff"></path>
    <rect id="Rectangle_23134" data-name="Rectangle 23134" width="21.067" height="31.405" transform="translate(234.65 34.88)" fill="#002e6d"></rect>
    <path id="Path_30803" data-name="Path 30803" d="M252.549,66.249H230.475V33.838h22.074Zm-21.068-1.006h20.062v-30.4H231.481Z" transform="translate(3.672 0.539)" fill="#fff"></path>
    <rect id="Rectangle_23135" data-name="Rectangle 23135" width="21.067" height="31.405" transform="translate(255.717 34.88)" fill="#002e6d"></rect>
    <path id="Path_30804" data-name="Path 30804" d="M273.285,66.249H251.212V33.838h22.073Zm-21.066-1.006h20.061v-30.4H252.219Z" transform="translate(4.002 0.539)" fill="#fff"></path>
    <rect id="Rectangle_23136" data-name="Rectangle 23136" width="21.067" height="31.405" transform="translate(276.786 34.88)" fill="#002e6d"></rect>
    <path id="Path_30805" data-name="Path 30805" d="M294.022,66.249H271.948V33.838h22.074Zm-21.067-1.006h20.062v-30.4H272.955Z" transform="translate(4.333 0.539)" fill="#fff"></path>
    <rect id="Rectangle_23137" data-name="Rectangle 23137" width="21.067" height="31.405" transform="translate(297.853 34.88)" fill="#002e6d"></rect>
    <path id="Path_30806" data-name="Path 30806" d="M314.76,66.249H292.686V33.838H314.76Zm-21.068-1.006h20.062v-30.4H293.692Z" transform="translate(4.663 0.539)" fill="#fff"></path>
  </g>
</svg>
