<?xml version="1.0" encoding="UTF-8"?>
<svg xmlns="http://www.w3.org/2000/svg" width="379.333" height="70" viewBox="0 0 379.333 70">
  <g id="Group_22001" data-name="Group 22001" transform="translate(0 0)">
    <rect id="Rectangle_22943" data-name="Rectangle 22943" width="1.172" height="42.802" transform="translate(362.66 0)" fill="#002e6d"></rect>
    <path id="Path_30640" data-name="Path 30640" d="M355.393,71.767l-1.027-.562,17.523-31.93,1.029.562Z" transform="translate(1.232 -6.216)" fill="#002e6d"></path>
    <rect id="Rectangle_22944" data-name="Rectangle 22944" width="37.453" height="1.17" transform="translate(359.209 69.403) rotate(-59.308)" fill="#002e6d"></rect>
    <path id="Path_30641" data-name="Path 30641" d="M2.906,3.609h353.9V66.091H2.906ZM0,69.7H359.712V0H0Z" transform="translate(0 0)" fill="#002e6d"></path>
    <rect id="Rectangle_22945" data-name="Rectangle 22945" width="38.824" height="25.655" transform="translate(3.602 4.432)" fill="#002e6d"></rect>
    <path id="Path_30642" data-name="Path 30642" d="M42.452,29.95H2.394V3.061H42.452ZM3.628,28.715H41.217V4.294H3.628Z" transform="translate(0.591 0.755)" fill="#fff"></path>
    <rect id="Rectangle_22946" data-name="Rectangle 22946" width="38.824" height="25.655" transform="translate(42.427 4.432)" fill="#002e6d"></rect>
    <path id="Path_30643" data-name="Path 30643" d="M73.594,29.95H33.535V3.061H73.594ZM34.769,28.715h37.59V4.294H34.769Z" transform="translate(8.274 0.755)" fill="#fff"></path>
    <rect id="Rectangle_22947" data-name="Rectangle 22947" width="38.824" height="25.655" transform="translate(64.838 4.432)" fill="#002e6d"></rect>
    <path id="Path_30644" data-name="Path 30644" d="M104.735,29.95H64.676V3.061h40.059ZM65.911,28.715H103.5V4.294H65.911Z" transform="translate(-0.379 0.755)" fill="#fff"></path>
    <rect id="Rectangle_22948" data-name="Rectangle 22948" width="38.824" height="25.655" transform="translate(95.82 4.432)" fill="#002e6d"></rect>
    <path id="Path_30645" data-name="Path 30645" d="M135.877,29.95H95.818V3.061h40.059ZM97.052,28.715h37.59V4.294H97.052Z" transform="translate(-0.561 0.755)" fill="#fff"></path>
    <rect id="Rectangle_22949" data-name="Rectangle 22949" width="38.824" height="25.655" transform="translate(126.802 4.432)" fill="#002e6d"></rect>
    <path id="Path_30646" data-name="Path 30646" d="M167.018,29.95H126.959V3.061h40.059Zm-38.824-1.235h37.59V4.294h-37.59Z" transform="translate(-0.743 0.755)" fill="#fff"></path>
    <rect id="Rectangle_22950" data-name="Rectangle 22950" width="38.824" height="25.655" transform="translate(157.783 4.432)" fill="#002e6d"></rect>
    <path id="Path_30647" data-name="Path 30647" d="M198.159,29.95H158.1V3.061h40.058Zm-38.824-1.235h37.588V4.294H159.335Z" transform="translate(-0.926 0.755)" fill="#fff"></path>
    <rect id="Rectangle_22951" data-name="Rectangle 22951" width="38.824" height="25.655" transform="translate(188.766 4.432)" fill="#002e6d"></rect>
    <path id="Path_30648" data-name="Path 30648" d="M229.3,29.95H189.242V3.061H229.3Zm-38.825-1.235h37.59V4.294h-37.59Z" transform="translate(-1.108 0.755)" fill="#fff"></path>
    <rect id="Rectangle_22952" data-name="Rectangle 22952" width="38.824" height="25.655" transform="translate(219.747 4.432)" fill="#002e6d"></rect>
    <path id="Path_30649" data-name="Path 30649" d="M260.442,29.95H220.383V3.061h40.059Zm-38.824-1.235h37.59V4.294h-37.59Z" transform="translate(-1.291 0.755)" fill="#fff"></path>
    <rect id="Rectangle_22953" data-name="Rectangle 22953" width="38.824" height="25.655" transform="translate(250.729 4.432)" fill="#002e6d"></rect>
    <path id="Path_30650" data-name="Path 30650" d="M291.584,29.95H251.525V3.061h40.059Zm-38.825-1.235h37.59V4.294h-37.59Z" transform="translate(-1.473 0.755)" fill="#fff"></path>
    <rect id="Rectangle_22954" data-name="Rectangle 22954" width="38.824" height="25.655" transform="translate(281.711 4.432)" fill="#002e6d"></rect>
    <path id="Path_30651" data-name="Path 30651" d="M322.725,29.95H282.666V3.061h40.059ZM283.9,28.715h37.59V4.294H283.9Z" transform="translate(-1.655 0.755)" fill="#fff"></path>
    <rect id="Rectangle_22955" data-name="Rectangle 22955" width="38.824" height="25.655" transform="translate(305.651 4.432)" fill="#002e6d"></rect>
    <path id="Path_30652" data-name="Path 30652" d="M353.866,29.95H313.808V3.061h40.058Zm-38.824-1.235h37.588V4.294H315.042Z" transform="translate(-8.774 0.755)" fill="#fff"></path>
    <rect id="Rectangle_22956" data-name="Rectangle 22956" width="38.824" height="25.655" transform="translate(3.551 21.98)" fill="#002e6d"></rect>
    <path id="Path_30653" data-name="Path 30653" d="M42.411,50.348H2.352V23.459H42.411ZM3.586,49.114h37.59V24.693H3.586Z" transform="translate(0.58 -2.095)" fill="#fff"></path>
    <rect id="Rectangle_22957" data-name="Rectangle 22957" width="38.824" height="25.655" transform="translate(42.375 21.98)" fill="#002e6d"></rect>
    <path id="Path_30654" data-name="Path 30654" d="M73.553,50.348H33.494V23.459H73.553ZM34.728,49.114h37.59V24.693H34.728Z" transform="translate(8.263 -2.095)" fill="#fff"></path>
    <rect id="Rectangle_22958" data-name="Rectangle 22958" width="38.824" height="25.655" transform="translate(64.796 21.98)" fill="#002e6d"></rect>
    <path id="Path_30655" data-name="Path 30655" d="M104.693,50.348H64.635V23.459h40.058ZM65.87,49.114h37.588V24.693H65.87Z" transform="translate(-0.378 -2.095)" fill="#fff"></path>
    <rect id="Rectangle_22959" data-name="Rectangle 22959" width="38.824" height="25.655" transform="translate(95.779 21.98)" fill="#002e6d"></rect>
    <path id="Path_30656" data-name="Path 30656" d="M135.835,50.348H95.776V23.459h40.059ZM97.01,49.114H134.6V24.693H97.01Z" transform="translate(-0.561 -2.095)" fill="#fff"></path>
    <rect id="Rectangle_22960" data-name="Rectangle 22960" width="38.824" height="25.655" transform="translate(126.76 21.98)" fill="#002e6d"></rect>
    <path id="Path_30657" data-name="Path 30657" d="M166.976,50.348H126.917V23.459h40.059Zm-38.824-1.234h37.59V24.693h-37.59Z" transform="translate(-0.743 -2.095)" fill="#fff"></path>
    <rect id="Rectangle_22961" data-name="Rectangle 22961" width="38.824" height="25.655" transform="translate(157.742 21.98)" fill="#002e6d"></rect>
    <path id="Path_30658" data-name="Path 30658" d="M198.118,50.348H158.059V23.459h40.059Zm-38.825-1.234h37.59V24.693h-37.59Z" transform="translate(-0.926 -2.095)" fill="#fff"></path>
    <rect id="Rectangle_22962" data-name="Rectangle 22962" width="38.824" height="25.655" transform="translate(188.724 21.98)" fill="#002e6d"></rect>
    <path id="Path_30659" data-name="Path 30659" d="M229.26,50.348H189.2V23.459H229.26Zm-38.825-1.234h37.59V24.693h-37.59Z" transform="translate(-1.108 -2.095)" fill="#fff"></path>
    <rect id="Rectangle_22963" data-name="Rectangle 22963" width="38.824" height="25.655" transform="translate(219.706 21.98)" fill="#002e6d"></rect>
    <path id="Path_30660" data-name="Path 30660" d="M260.4,50.348H220.342V23.459H260.4Zm-38.823-1.234h37.589V24.693H221.577Z" transform="translate(-1.29 -2.095)" fill="#fff"></path>
    <rect id="Rectangle_22964" data-name="Rectangle 22964" width="38.824" height="25.655" transform="translate(250.688 21.98)" fill="#002e6d"></rect>
    <path id="Path_30661" data-name="Path 30661" d="M291.542,50.348H251.483V23.459h40.059Zm-38.825-1.234h37.59V24.693h-37.59Z" transform="translate(-1.473 -2.095)" fill="#fff"></path>
    <rect id="Rectangle_22965" data-name="Rectangle 22965" width="38.824" height="25.655" transform="translate(281.669 21.98)" fill="#002e6d"></rect>
    <path id="Path_30662" data-name="Path 30662" d="M322.684,50.348H282.625V23.459h40.059Zm-38.825-1.234h37.59V24.693h-37.59Z" transform="translate(-1.655 -2.095)" fill="#fff"></path>
    <rect id="Rectangle_22966" data-name="Rectangle 22966" width="38.824" height="25.655" transform="translate(305.6 21.98)" fill="#002e6d"></rect>
    <path id="Path_30663" data-name="Path 30663" d="M353.826,50.348h-40.06V23.459h40.06ZM315,49.114h37.59V24.693H315Z" transform="translate(-8.785 -2.095)" fill="#fff"></path>
    <rect id="Rectangle_22967" data-name="Rectangle 22967" width="38.824" height="25.655" transform="translate(3.551 39.613)" fill="#002e6d"></rect>
    <path id="Path_30664" data-name="Path 30664" d="M42.411,70.927H2.352V44.037H42.411ZM3.586,69.693h37.59V45.271H3.586Z" transform="translate(0.58 -5.041)" fill="#fff"></path>
    <rect id="Rectangle_22968" data-name="Rectangle 22968" width="38.824" height="25.655" transform="translate(42.375 39.613)" fill="#002e6d"></rect>
    <path id="Path_30665" data-name="Path 30665" d="M73.553,70.927H33.494V44.037H73.553ZM34.728,69.693h37.59V45.271H34.728Z" transform="translate(8.263 -5.041)" fill="#fff"></path>
    <rect id="Rectangle_22969" data-name="Rectangle 22969" width="38.824" height="25.655" transform="translate(64.796 39.613)" fill="#002e6d"></rect>
    <path id="Path_30666" data-name="Path 30666" d="M104.693,70.927H64.635V44.037h40.058ZM65.87,69.693h37.588V45.271H65.87Z" transform="translate(-0.378 -5.041)" fill="#fff"></path>
    <rect id="Rectangle_22970" data-name="Rectangle 22970" width="38.824" height="25.655" transform="translate(95.779 39.613)" fill="#002e6d"></rect>
    <path id="Path_30667" data-name="Path 30667" d="M135.835,70.927H95.776V44.037h40.059ZM97.01,69.693H134.6V45.271H97.01Z" transform="translate(-0.561 -5.041)" fill="#fff"></path>
    <rect id="Rectangle_22971" data-name="Rectangle 22971" width="38.824" height="25.655" transform="translate(126.76 39.613)" fill="#002e6d"></rect>
    <path id="Path_30668" data-name="Path 30668" d="M166.976,70.927H126.917V44.037h40.059Zm-38.824-1.234h37.59V45.271h-37.59Z" transform="translate(-0.743 -5.041)" fill="#fff"></path>
    <rect id="Rectangle_22972" data-name="Rectangle 22972" width="38.824" height="25.655" transform="translate(157.742 39.613)" fill="#002e6d"></rect>
    <path id="Path_30669" data-name="Path 30669" d="M198.118,70.927H158.059V44.037h40.059Zm-38.825-1.234h37.59V45.271h-37.59Z" transform="translate(-0.926 -5.041)" fill="#fff"></path>
    <rect id="Rectangle_22973" data-name="Rectangle 22973" width="38.824" height="25.655" transform="translate(188.724 39.613)" fill="#002e6d"></rect>
    <path id="Path_30670" data-name="Path 30670" d="M229.26,70.927H189.2V44.037H229.26Zm-38.825-1.234h37.59V45.271h-37.59Z" transform="translate(-1.108 -5.041)" fill="#fff"></path>
    <rect id="Rectangle_22974" data-name="Rectangle 22974" width="38.824" height="25.655" transform="translate(219.706 39.613)" fill="#002e6d"></rect>
    <path id="Path_30671" data-name="Path 30671" d="M260.4,70.927H220.342V44.037H260.4Zm-38.823-1.234h37.589V45.271H221.577Z" transform="translate(-1.29 -5.041)" fill="#fff"></path>
    <rect id="Rectangle_22975" data-name="Rectangle 22975" width="38.824" height="25.655" transform="translate(250.688 39.613)" fill="#002e6d"></rect>
    <path id="Path_30672" data-name="Path 30672" d="M291.542,70.927H251.483V44.037h40.059Zm-38.825-1.234h37.59V45.271h-37.59Z" transform="translate(-1.473 -5.041)" fill="#fff"></path>
    <rect id="Rectangle_22976" data-name="Rectangle 22976" width="38.824" height="25.655" transform="translate(281.669 39.613)" fill="#002e6d"></rect>
    <path id="Path_30673" data-name="Path 30673" d="M322.684,70.927H282.625V44.037h40.059Zm-38.825-1.234h37.59V45.271h-37.59Z" transform="translate(-1.655 -5.041)" fill="#fff"></path>
    <rect id="Rectangle_22977" data-name="Rectangle 22977" width="38.824" height="25.655" transform="translate(305.6 39.613)" fill="#002e6d"></rect>
    <path id="Path_30674" data-name="Path 30674" d="M353.826,70.927h-40.06V44.037h40.06ZM315,69.693h37.59V45.271H315Z" transform="translate(-8.785 -5.041)" fill="#fff"></path>
  </g>
</svg>
