<?xml version="1.0" encoding="UTF-8"?>
<svg xmlns="http://www.w3.org/2000/svg" width="379.359" height="70" viewBox="0 0 379.359 70">
  <g id="Group_22009" data-name="Group 22009" transform="translate(0 0)">
    <rect id="Rectangle_23164" data-name="Rectangle 23164" width="0.955" height="34.88" transform="translate(365.766 0)" fill="#002e6d"></rect>
    <path id="Path_30833" data-name="Path 30833" d="M355.2,65.752l-.837-.458,14.279-26.019.838.458Z" transform="translate(5.645 0.626)" fill="#002e6d"></path>
    <rect id="Rectangle_23165" data-name="Rectangle 23165" width="30.52" height="0.953" transform="matrix(0.511, -0.86, 0.86, 0.511, 362.947, 69.513)" fill="#002e6d"></rect>
    <path id="Path_30834" data-name="Path 30834" d="M2.935,3.612H360.43V66.148H2.935ZM0,69.761H363.364V0H0Z" transform="translate(0 0)" fill="#002e6d"></path>
    <rect id="Rectangle_23166" data-name="Rectangle 23166" width="21.058" height="32.651" transform="translate(2.935 3.613)" fill="#002e6d"></rect>
    <path id="Path_30835" data-name="Path 30835" d="M24.468,36.727H2.384V3.051H24.468ZM3.41,35.7H23.443V4.076H3.41Z" transform="translate(0.038 0.049)" fill="#fff"></path>
    <rect id="Rectangle_23167" data-name="Rectangle 23167" width="21.058" height="32.651" transform="translate(23.994 3.613)" fill="#002e6d"></rect>
    <path id="Path_30836" data-name="Path 30836" d="M45.2,36.727H23.113V3.051H45.2ZM24.138,35.7H44.171V4.076H24.138Z" transform="translate(0.368 0.049)" fill="#fff"></path>
    <rect id="Rectangle_23168" data-name="Rectangle 23168" width="21.058" height="32.651" transform="translate(45.052 3.613)" fill="#002e6d"></rect>
    <path id="Path_30837" data-name="Path 30837" d="M65.924,36.727H43.841V3.051H65.924ZM44.867,35.7H64.9V4.076H44.867Z" transform="translate(0.698 0.049)" fill="#fff"></path>
    <rect id="Rectangle_23169" data-name="Rectangle 23169" width="21.058" height="32.651" transform="translate(66.111 3.613)" fill="#002e6d"></rect>
    <path id="Path_30838" data-name="Path 30838" d="M86.653,36.727H64.569V3.051H86.653ZM65.594,35.7H85.627V4.076H65.594Z" transform="translate(1.029 0.049)" fill="#fff"></path>
    <rect id="Rectangle_23170" data-name="Rectangle 23170" width="21.058" height="32.651" transform="translate(87.169 3.613)" fill="#002e6d"></rect>
    <path id="Path_30839" data-name="Path 30839" d="M107.381,36.727H85.3V3.051h22.084ZM86.323,35.7h20.033V4.076H86.323Z" transform="translate(1.359 0.049)" fill="#fff"></path>
    <rect id="Rectangle_23171" data-name="Rectangle 23171" width="21.058" height="32.651" transform="translate(108.228 3.613)" fill="#002e6d"></rect>
    <path id="Path_30840" data-name="Path 30840" d="M128.11,36.727H106.026V3.051H128.11ZM107.051,35.7h20.033V4.076H107.051Z" transform="translate(1.689 0.049)" fill="#fff"></path>
    <rect id="Rectangle_23172" data-name="Rectangle 23172" width="21.058" height="32.651" transform="translate(129.286 3.613)" fill="#002e6d"></rect>
    <path id="Path_30841" data-name="Path 30841" d="M148.838,36.727H126.754V3.051h22.084ZM127.78,35.7h20.033V4.076H127.78Z" transform="translate(2.019 0.049)" fill="#fff"></path>
    <rect id="Rectangle_23173" data-name="Rectangle 23173" width="21.058" height="32.651" transform="translate(150.344 3.613)" fill="#002e6d"></rect>
    <path id="Path_30842" data-name="Path 30842" d="M169.566,36.727H147.483V3.051h22.083ZM148.508,35.7H168.54V4.076H148.508Z" transform="translate(2.349 0.049)" fill="#fff"></path>
    <rect id="Rectangle_23174" data-name="Rectangle 23174" width="21.058" height="32.651" transform="translate(171.404 3.613)" fill="#002e6d"></rect>
    <path id="Path_30843" data-name="Path 30843" d="M190.294,36.727H168.21V3.051h22.084ZM169.236,35.7h20.033V4.076H169.236Z" transform="translate(2.68 0.049)" fill="#fff"></path>
    <rect id="Rectangle_23175" data-name="Rectangle 23175" width="21.058" height="32.651" transform="translate(192.462 3.613)" fill="#002e6d"></rect>
    <path id="Path_30844" data-name="Path 30844" d="M211.023,36.727H188.939V3.051h22.084ZM189.964,35.7H210V4.076H189.964Z" transform="translate(3.01 0.049)" fill="#fff"></path>
    <rect id="Rectangle_23176" data-name="Rectangle 23176" width="21.058" height="32.651" transform="translate(213.52 3.613)" fill="#002e6d"></rect>
    <path id="Path_30845" data-name="Path 30845" d="M231.751,36.727H209.667V3.051h22.084ZM210.693,35.7h20.033V4.076H210.693Z" transform="translate(3.34 0.049)" fill="#fff"></path>
    <rect id="Rectangle_23177" data-name="Rectangle 23177" width="21.058" height="32.651" transform="translate(234.579 3.613)" fill="#002e6d"></rect>
    <path id="Path_30846" data-name="Path 30846" d="M252.479,36.727H230.4V3.051h22.083ZM231.421,35.7h20.032V4.076H231.421Z" transform="translate(3.67 0.049)" fill="#fff"></path>
    <rect id="Rectangle_23178" data-name="Rectangle 23178" width="21.058" height="32.651" transform="translate(255.637 3.613)" fill="#002e6d"></rect>
    <path id="Path_30847" data-name="Path 30847" d="M273.208,36.727H251.124V3.051h22.084ZM252.149,35.7h20.033V4.076H252.149Z" transform="translate(4 0.049)" fill="#fff"></path>
    <rect id="Rectangle_23179" data-name="Rectangle 23179" width="21.058" height="32.651" transform="translate(276.696 3.613)" fill="#002e6d"></rect>
    <path id="Path_30848" data-name="Path 30848" d="M293.936,36.727H271.852V3.051h22.084ZM272.878,35.7h20.033V4.076H272.878Z" transform="translate(4.331 0.049)" fill="#fff"></path>
    <rect id="Rectangle_23180" data-name="Rectangle 23180" width="21.058" height="32.651" transform="translate(297.754 3.613)" fill="#002e6d"></rect>
    <path id="Path_30849" data-name="Path 30849" d="M314.665,36.727H292.581V3.051h22.084ZM293.606,35.7h20.033V4.076H293.606Z" transform="translate(4.661 0.049)" fill="#fff"></path>
    <rect id="Rectangle_23181" data-name="Rectangle 23181" width="21.058" height="32.651" transform="translate(318.813 3.613)" fill="#002e6d"></rect>
    <path id="Path_30850" data-name="Path 30850" d="M335.393,36.727H313.309V3.051h22.084ZM314.335,35.7h20.033V4.076H314.335Z" transform="translate(4.991 0.049)" fill="#fff"></path>
    <rect id="Rectangle_23182" data-name="Rectangle 23182" width="31.637" height="20.906" transform="translate(2.893 44.203)" fill="#002e6d"></rect>
    <path id="Path_30851" data-name="Path 30851" d="M35,64.928H2.352V43.015H35ZM3.358,63.922H33.989v-19.9H3.358Z" transform="translate(0.037 0.685)" fill="#fff"></path>
    <rect id="Rectangle_23183" data-name="Rectangle 23183" width="31.637" height="20.906" transform="translate(34.53 44.203)" fill="#002e6d"></rect>
    <path id="Path_30852" data-name="Path 30852" d="M66.137,64.928H33.493V43.015H66.137ZM34.5,63.922H65.131v-19.9H34.5Z" transform="translate(0.534 0.685)" fill="#fff"></path>
    <rect id="Rectangle_23184" data-name="Rectangle 23184" width="31.637" height="20.906" transform="translate(66.168 44.203)" fill="#002e6d"></rect>
    <path id="Path_30853" data-name="Path 30853" d="M97.279,64.928H64.635V43.015H97.279ZM65.641,63.922H96.272v-19.9H65.641Z" transform="translate(1.03 0.685)" fill="#fff"></path>
    <rect id="Rectangle_23185" data-name="Rectangle 23185" width="31.637" height="20.906" transform="translate(97.806 44.203)" fill="#002e6d"></rect>
    <path id="Path_30854" data-name="Path 30854" d="M128.42,64.928H95.776V43.015H128.42ZM96.783,63.922h30.631v-19.9H96.783Z" transform="translate(1.526 0.685)" fill="#fff"></path>
    <rect id="Rectangle_23186" data-name="Rectangle 23186" width="31.637" height="20.906" transform="translate(129.443 44.203)" fill="#002e6d"></rect>
    <path id="Path_30855" data-name="Path 30855" d="M159.561,64.928H126.918V43.015h32.643Zm-31.637-1.006h30.63v-19.9h-30.63Z" transform="translate(2.022 0.685)" fill="#fff"></path>
    <rect id="Rectangle_23187" data-name="Rectangle 23187" width="31.637" height="20.906" transform="translate(161.081 44.203)" fill="#002e6d"></rect>
    <path id="Path_30856" data-name="Path 30856" d="M190.7,64.928H158.059V43.015H190.7Zm-31.638-1.006H189.7v-19.9H159.065Z" transform="translate(2.518 0.685)" fill="#fff"></path>
    <rect id="Rectangle_23188" data-name="Rectangle 23188" width="31.637" height="20.906" transform="translate(192.718 44.203)" fill="#002e6d"></rect>
    <path id="Path_30857" data-name="Path 30857" d="M221.844,64.928H189.2V43.015h32.644Zm-31.637-1.006h30.631v-19.9H190.207Z" transform="translate(3.014 0.685)" fill="#fff"></path>
    <rect id="Rectangle_23189" data-name="Rectangle 23189" width="31.637" height="20.906" transform="translate(224.356 44.203)" fill="#002e6d"></rect>
    <path id="Path_30858" data-name="Path 30858" d="M252.986,64.928H220.342V43.015h32.644Zm-31.638-1.006h30.631v-19.9H221.348Z" transform="translate(3.51 0.685)" fill="#fff"></path>
    <rect id="Rectangle_23190" data-name="Rectangle 23190" width="31.637" height="20.906" transform="translate(255.993 44.203)" fill="#002e6d"></rect>
    <path id="Path_30859" data-name="Path 30859" d="M284.127,64.928H251.483V43.015h32.644ZM252.49,63.922h30.631v-19.9H252.49Z" transform="translate(4.006 0.685)" fill="#fff"></path>
    <rect id="Rectangle_23191" data-name="Rectangle 23191" width="31.637" height="20.906" transform="translate(287.63 44.203)" fill="#002e6d"></rect>
    <path id="Path_30860" data-name="Path 30860" d="M315.268,64.928H282.625V43.015h32.643Zm-31.637-1.006h30.63v-19.9h-30.63Z" transform="translate(4.502 0.685)" fill="#fff"></path>
    <rect id="Rectangle_23192" data-name="Rectangle 23192" width="31.637" height="20.906" transform="translate(319.268 44.203)" fill="#002e6d"></rect>
    <path id="Path_30861" data-name="Path 30861" d="M346.41,64.928H313.766V43.015H346.41Zm-31.638-1.006H345.4v-19.9H314.772Z" transform="translate(4.998 0.685)" fill="#fff"></path>
  </g>
</svg>
