<?xml version="1.0" encoding="UTF-8"?>
<svg xmlns="http://www.w3.org/2000/svg" width="177.452" height="70" viewBox="0 0 177.452 70">
  <g id="Group_22003" data-name="Group 22003" transform="translate(0 0)">
    <rect id="Rectangle_23003" data-name="Rectangle 23003" width="0.955" height="34.88" transform="translate(163.859 0)" fill="#002e6d"></rect>
    <path id="Path_30687" data-name="Path 30687" d="M156.462,65.752l-.837-.458L169.9,39.275l.838.458Z" transform="translate(2.479 0.626)" fill="#002e6d"></path>
    <rect id="Rectangle_23004" data-name="Rectangle 23004" width="30.52" height="0.953" transform="matrix(0.511, -0.86, 0.86, 0.511, 161.041, 69.513)" fill="#002e6d"></rect>
    <path id="Path_30688" data-name="Path 30688" d="M2.935,3.613H158.523V66.148H2.935ZM0,69.761H161.458V0H0Z" transform="translate(0 0)" fill="#002e6d"></path>
    <rect id="Rectangle_23005" data-name="Rectangle 23005" width="21.028" height="32.651" transform="translate(3.747 4.409)" fill="#002e6d"></rect>
    <path id="Path_30689" data-name="Path 30689" d="M25.236,37.511H3.184V3.837H25.236ZM4.207,36.487h20V4.86h-20Z" transform="translate(0.051 0.061)" fill="#fff"></path>
    <rect id="Rectangle_23006" data-name="Rectangle 23006" width="31.543" height="22.492" transform="translate(3.746 42.86)" fill="#002e6d"></rect>
    <path id="Path_30690" data-name="Path 30690" d="M35.759,65.209H3.175V41.675H35.759ZM4.216,64.167h30.5V42.716H4.216Z" transform="translate(0.051 0.664)" fill="#fff"></path>
    <rect id="Rectangle_23007" data-name="Rectangle 23007" width="31.543" height="22.492" transform="translate(41.899 42.86)" fill="#002e6d"></rect>
    <path id="Path_30691" data-name="Path 30691" d="M73.315,65.209H40.731V41.675H73.315ZM41.772,64.167h30.5V42.716h-30.5Z" transform="translate(0.649 0.664)" fill="#fff"></path>
    <rect id="Rectangle_23008" data-name="Rectangle 23008" width="31.543" height="22.492" transform="translate(80.931 42.86)" fill="#002e6d"></rect>
    <path id="Path_30692" data-name="Path 30692" d="M111.735,65.209H79.151V41.675h32.584ZM80.192,64.167h30.5V42.716h-30.5Z" transform="translate(1.261 0.664)" fill="#fff"></path>
    <rect id="Rectangle_23009" data-name="Rectangle 23009" width="31.543" height="22.492" transform="translate(119.401 42.86)" fill="#002e6d"></rect>
    <path id="Path_30693" data-name="Path 30693" d="M149.6,65.209H117.017V41.675H149.6Zm-31.543-1.042h30.5V42.716h-30.5Z" transform="translate(1.864 0.664)" fill="#fff"></path>
    <rect id="Rectangle_23010" data-name="Rectangle 23010" width="21.028" height="32.651" transform="translate(24.774 4.409)" fill="#002e6d"></rect>
    <path id="Path_30694" data-name="Path 30694" d="M45.934,37.511H23.882V3.837H45.934ZM24.906,36.487h20V4.86h-20Z" transform="translate(0.38 0.061)" fill="#fff"></path>
    <rect id="Rectangle_23011" data-name="Rectangle 23011" width="21.028" height="32.651" transform="translate(45.803 4.409)" fill="#002e6d"></rect>
    <path id="Path_30695" data-name="Path 30695" d="M66.633,37.511H44.58V3.837H66.633ZM45.6,36.487h20V4.86h-20Z" transform="translate(0.71 0.061)" fill="#fff"></path>
    <rect id="Rectangle_23012" data-name="Rectangle 23012" width="21.028" height="32.651" transform="translate(66.831 4.409)" fill="#002e6d"></rect>
    <path id="Path_30696" data-name="Path 30696" d="M87.331,37.511H65.279V3.837H87.331ZM66.3,36.487h20V4.86h-20Z" transform="translate(1.04 0.061)" fill="#fff"></path>
    <rect id="Rectangle_23013" data-name="Rectangle 23013" width="21.028" height="32.651" transform="translate(87.86 4.409)" fill="#002e6d"></rect>
    <path id="Path_30697" data-name="Path 30697" d="M108.029,37.511H85.977V3.837h22.052ZM87,36.487h20V4.86H87Z" transform="translate(1.37 0.061)" fill="#fff"></path>
    <rect id="Rectangle_23014" data-name="Rectangle 23014" width="21.028" height="32.651" transform="translate(108.887 4.409)" fill="#002e6d"></rect>
    <path id="Path_30698" data-name="Path 30698" d="M128.728,37.511H106.676V3.837h22.052ZM107.7,36.487h20V4.86h-20Z" transform="translate(1.699 0.061)" fill="#fff"></path>
    <rect id="Rectangle_23015" data-name="Rectangle 23015" width="21.028" height="32.651" transform="translate(129.916 4.409)" fill="#002e6d"></rect>
    <path id="Path_30699" data-name="Path 30699" d="M149.427,37.511H127.374V3.837h22.053ZM128.4,36.487h20V4.86h-20Z" transform="translate(2.029 0.061)" fill="#fff"></path>
  </g>
</svg>
