<?xml version="1.0" encoding="UTF-8"?>
<svg xmlns="http://www.w3.org/2000/svg" width="338.884" height="70" viewBox="0 0 338.884 70">
  <g id="Group_22004" data-name="Group 22004" transform="translate(0 0)">
    <rect id="Rectangle_23029" data-name="Rectangle 23029" width="0.955" height="34.878" transform="translate(325.299 0)" fill="#002e6d"></rect>
    <path id="Path_30700" data-name="Path 30700" d="M315.388,65.751l-.837-.458,14.278-26.018.838.458Z" transform="translate(4.994 0.624)" fill="#002e6d"></path>
    <rect id="Rectangle_23030" data-name="Rectangle 23030" width="30.518" height="0.953" transform="translate(322.488 69.514) rotate(-59.308)" fill="#002e6d"></rect>
    <path id="Path_30701" data-name="Path 30701" d="M2.935,3.611H319.963V66.145H2.935ZM0,69.757H322.9V0H0Z" transform="translate(0 0)" fill="#002e6d"></path>
    <rect id="Rectangle_23031" data-name="Rectangle 23031" width="31.211" height="25.938" transform="translate(2.935 40.449)" fill="#002e6d"></rect>
    <path id="Path_30702" data-name="Path 30702" d="M34.664,66.32H2.341V39.269H34.664ZM3.454,65.207h30.1V40.382H3.454Z" transform="translate(0.037 0.623)" fill="#fff"></path>
    <rect id="Rectangle_23032" data-name="Rectangle 23032" width="26.648" height="30.227" transform="translate(34.146 36.16)" fill="#002e6d"></rect>
    <path id="Path_30703" data-name="Path 30703" d="M60.824,66.385H33.066V35.048H60.824ZM34.174,65.275h25.54V36.157H34.174Z" transform="translate(0.525 0.556)" fill="#fff"></path>
    <rect id="Rectangle_23033" data-name="Rectangle 23033" width="31.211" height="25.938" transform="translate(60.794 40.449)" fill="#002e6d"></rect>
    <path id="Path_30704" data-name="Path 30704" d="M91.619,66.32H59.3V39.269H91.619Zm-31.21-1.112h30.1V40.382h-30.1Z" transform="translate(0.941 0.623)" fill="#fff"></path>
    <rect id="Rectangle_23034" data-name="Rectangle 23034" width="26.648" height="30.227" transform="translate(92.005 36.16)" fill="#002e6d"></rect>
    <path id="Path_30705" data-name="Path 30705" d="M117.779,66.385H90.021V35.048h27.758ZM91.129,65.275h25.54V36.157H91.129Z" transform="translate(1.429 0.556)" fill="#fff"></path>
    <rect id="Rectangle_23035" data-name="Rectangle 23035" width="31.211" height="25.938" transform="translate(118.653 40.449)" fill="#002e6d"></rect>
    <path id="Path_30706" data-name="Path 30706" d="M148.575,66.32H116.252V39.269h32.323Zm-31.211-1.112h30.1V40.382h-30.1Z" transform="translate(1.846 0.623)" fill="#fff"></path>
    <rect id="Rectangle_23036" data-name="Rectangle 23036" width="26.648" height="30.227" transform="translate(149.864 36.16)" fill="#002e6d"></rect>
    <path id="Path_30707" data-name="Path 30707" d="M174.734,66.385H146.976V35.048h27.758Zm-26.648-1.109h25.54V36.157h-25.54Z" transform="translate(2.333 0.556)" fill="#fff"></path>
    <rect id="Rectangle_23037" data-name="Rectangle 23037" width="31.211" height="25.938" transform="translate(176.513 40.449)" fill="#002e6d"></rect>
    <path id="Path_30708" data-name="Path 30708" d="M205.531,66.32H173.207V39.269h32.324Zm-31.212-1.112h30.1V40.382h-30.1Z" transform="translate(2.75 0.623)" fill="#fff"></path>
    <rect id="Rectangle_23038" data-name="Rectangle 23038" width="26.648" height="30.227" transform="translate(207.724 36.16)" fill="#002e6d"></rect>
    <path id="Path_30709" data-name="Path 30709" d="M231.689,66.385H203.932V35.048h27.757Zm-26.647-1.109H230.58V36.157H205.041Z" transform="translate(3.238 0.556)" fill="#fff"></path>
    <rect id="Rectangle_23039" data-name="Rectangle 23039" width="31.211" height="25.938" transform="translate(234.372 40.449)" fill="#002e6d"></rect>
    <path id="Path_30710" data-name="Path 30710" d="M262.486,66.32H230.162V39.269h32.324Zm-31.212-1.112h30.1V40.382h-30.1Z" transform="translate(3.654 0.623)" fill="#fff"></path>
    <rect id="Rectangle_23040" data-name="Rectangle 23040" width="26.648" height="30.227" transform="translate(265.584 36.16)" fill="#002e6d"></rect>
    <path id="Path_30711" data-name="Path 30711" d="M288.645,66.385H260.887V35.048h27.758ZM262,65.275h25.54V36.157H262Z" transform="translate(4.142 0.556)" fill="#fff"></path>
    <rect id="Rectangle_23041" data-name="Rectangle 23041" width="26.648" height="30.227" transform="translate(292.232 20.515)" fill="#002e6d"></rect>
    <path id="Path_30712" data-name="Path 30712" d="M314.877,50.985H287.12V19.648h27.757Zm-26.648-1.109h25.539V20.757H288.228Z" transform="translate(4.558 0.312)" fill="#fff"></path>
    <rect id="Rectangle_23042" data-name="Rectangle 23042" width="31.211" height="25.938" transform="translate(261.021 5.402)" fill="#002e6d"></rect>
    <path id="Path_30713" data-name="Path 30713" d="M288.718,31.82H256.394V4.769h32.324Zm-31.212-1.112h30.1V5.882h-30.1Z" transform="translate(4.071 0.076)" fill="#fff"></path>
    <rect id="Rectangle_23043" data-name="Rectangle 23043" width="26.648" height="30.227" transform="translate(234.373 5.402)" fill="#002e6d"></rect>
    <path id="Path_30714" data-name="Path 30714" d="M257.921,36.108H230.163V4.771h27.758ZM231.272,35h25.54V5.88h-25.54Z" transform="translate(3.654 0.076)" fill="#fff"></path>
    <rect id="Rectangle_23044" data-name="Rectangle 23044" width="31.211" height="25.938" transform="translate(203.162 5.402)" fill="#002e6d"></rect>
    <path id="Path_30715" data-name="Path 30715" d="M231.762,31.82H199.439V4.769h32.323Zm-31.211-1.112h30.1V5.882h-30.1Z" transform="translate(3.166 0.076)" fill="#fff"></path>
    <rect id="Rectangle_23045" data-name="Rectangle 23045" width="26.648" height="30.227" transform="translate(176.513 5.402)" fill="#002e6d"></rect>
    <path id="Path_30716" data-name="Path 30716" d="M200.966,36.108H173.208V4.771h27.758ZM174.317,35h25.54V5.88h-25.54Z" transform="translate(2.75 0.076)" fill="#fff"></path>
    <rect id="Rectangle_23046" data-name="Rectangle 23046" width="31.211" height="25.938" transform="translate(145.303 5.402)" fill="#002e6d"></rect>
    <path id="Path_30717" data-name="Path 30717" d="M174.807,31.82H142.484V4.769h32.323ZM143.6,30.707h30.1V5.882H143.6Z" transform="translate(2.262 0.076)" fill="#fff"></path>
    <rect id="Rectangle_23047" data-name="Rectangle 23047" width="26.648" height="30.227" transform="translate(118.653 5.402)" fill="#002e6d"></rect>
    <path id="Path_30718" data-name="Path 30718" d="M144.011,36.108H116.253V4.771h27.758ZM117.362,35H142.9V5.88h-25.54Z" transform="translate(1.846 0.076)" fill="#fff"></path>
    <rect id="Rectangle_23048" data-name="Rectangle 23048" width="31.211" height="25.938" transform="translate(87.443 5.402)" fill="#002e6d"></rect>
    <path id="Path_30719" data-name="Path 30719" d="M117.852,31.82H85.529V4.769h32.323ZM86.641,30.707h30.1V5.882h-30.1Z" transform="translate(1.358 0.076)" fill="#fff"></path>
    <rect id="Rectangle_23049" data-name="Rectangle 23049" width="26.648" height="30.227" transform="translate(60.794 5.402)" fill="#002e6d"></rect>
    <path id="Path_30720" data-name="Path 30720" d="M87.056,36.108H59.3V4.771H87.056ZM60.407,35h25.54V5.88H60.407Z" transform="translate(0.941 0.076)" fill="#fff"></path>
    <rect id="Rectangle_23050" data-name="Rectangle 23050" width="31.211" height="25.938" transform="translate(29.583 5.402)" fill="#002e6d"></rect>
    <path id="Path_30721" data-name="Path 30721" d="M60.9,31.82H28.574V4.769H60.9ZM29.686,30.707h30.1V5.882h-30.1Z" transform="translate(0.454 0.076)" fill="#fff"></path>
    <rect id="Rectangle_23051" data-name="Rectangle 23051" width="26.648" height="30.227" transform="translate(2.935 5.402)" fill="#002e6d"></rect>
    <path id="Path_30722" data-name="Path 30722" d="M30.1,36.108H2.343V4.771H30.1ZM3.452,35h25.54V5.88H3.452Z" transform="translate(0.037 0.076)" fill="#fff"></path>
  </g>
</svg>
