<?xml version="1.0" encoding="UTF-8"?>
<svg xmlns="http://www.w3.org/2000/svg" width="338.884" height="70" viewBox="0 0 338.884 70">
  <g id="Group_22006" data-name="Group 22006" transform="translate(0 0)">
    <rect id="Rectangle_23080" data-name="Rectangle 23080" width="0.955" height="34.878" transform="translate(325.299 0)" fill="#002e6d"></rect>
    <path id="Path_30749" data-name="Path 30749" d="M315.388,65.751l-.837-.458,14.278-26.018.838.458Z" transform="translate(4.994 0.624)" fill="#002e6d"></path>
    <rect id="Rectangle_23081" data-name="Rectangle 23081" width="30.518" height="0.953" transform="translate(322.488 69.514) rotate(-59.308)" fill="#002e6d"></rect>
    <path id="Path_30750" data-name="Path 30750" d="M2.935,3.611H319.963V66.145H2.935ZM0,69.757H322.9V0H0Z" transform="translate(0 0)" fill="#002e6d"></path>
    <rect id="Rectangle_23082" data-name="Rectangle 23082" width="26.314" height="31.404" transform="translate(2.934 3.613)" fill="#002e6d"></rect>
    <path id="Path_30751" data-name="Path 30751" d="M29.773,35.529H2.336V3H29.773ZM3.46,34.407H28.65V4.126H3.46Z" transform="translate(0.037 0.048)" fill="#fff"></path>
    <rect id="Rectangle_23083" data-name="Rectangle 23083" width="26.314" height="31.404" transform="translate(29.248 3.613)" fill="#002e6d"></rect>
    <path id="Path_30752" data-name="Path 30752" d="M55.676,35.529H28.238V3H55.676ZM29.362,34.407H54.553V4.126H29.362Z" transform="translate(0.448 0.048)" fill="#fff"></path>
    <rect id="Rectangle_23084" data-name="Rectangle 23084" width="26.314" height="31.404" transform="translate(55.562 3.613)" fill="#002e6d"></rect>
    <path id="Path_30753" data-name="Path 30753" d="M81.579,35.529H54.142V3H81.579ZM55.265,34.407H80.455V4.126H55.265Z" transform="translate(0.86 0.048)" fill="#fff"></path>
    <rect id="Rectangle_23085" data-name="Rectangle 23085" width="26.314" height="31.404" transform="translate(81.876 3.613)" fill="#002e6d"></rect>
    <path id="Path_30754" data-name="Path 30754" d="M107.481,35.529H80.044V3h27.437ZM81.168,34.407h25.191V4.126H81.168Z" transform="translate(1.271 0.048)" fill="#fff"></path>
    <rect id="Rectangle_23086" data-name="Rectangle 23086" width="26.314" height="31.404" transform="translate(108.19 3.613)" fill="#002e6d"></rect>
    <path id="Path_30755" data-name="Path 30755" d="M133.383,35.529H105.946V3h27.437ZM107.07,34.407H132.26V4.126H107.07Z" transform="translate(1.682 0.048)" fill="#fff"></path>
    <rect id="Rectangle_23087" data-name="Rectangle 23087" width="26.314" height="31.404" transform="translate(134.503 3.613)" fill="#002e6d"></rect>
    <path id="Path_30756" data-name="Path 30756" d="M159.287,35.529H131.849V3h27.438Zm-26.315-1.123h25.192V4.126H132.972Z" transform="translate(2.093 0.048)" fill="#fff"></path>
    <rect id="Rectangle_23088" data-name="Rectangle 23088" width="26.314" height="31.404" transform="translate(160.817 3.613)" fill="#002e6d"></rect>
    <path id="Path_30757" data-name="Path 30757" d="M185.189,35.529H157.752V3h27.437Zm-26.313-1.123h25.191V4.126H158.876Z" transform="translate(2.504 0.048)" fill="#fff"></path>
    <rect id="Rectangle_23089" data-name="Rectangle 23089" width="26.314" height="31.404" transform="translate(187.131 3.613)" fill="#002e6d"></rect>
    <path id="Path_30758" data-name="Path 30758" d="M211.091,35.529H183.654V3h27.437Zm-26.313-1.123h25.191V4.126H184.778Z" transform="translate(2.916 0.048)" fill="#fff"></path>
    <rect id="Rectangle_23090" data-name="Rectangle 23090" width="26.314" height="31.404" transform="translate(213.445 3.613)" fill="#002e6d"></rect>
    <path id="Path_30759" data-name="Path 30759" d="M236.994,35.529H209.557V3h27.437ZM210.68,34.407H235.87V4.126H210.68Z" transform="translate(3.327 0.048)" fill="#fff"></path>
    <rect id="Rectangle_23091" data-name="Rectangle 23091" width="26.314" height="31.404" transform="translate(239.759 3.613)" fill="#002e6d"></rect>
    <path id="Path_30760" data-name="Path 30760" d="M262.9,35.529H235.459V3H262.9Zm-26.314-1.123h25.192V4.126H236.583Z" transform="translate(3.738 0.048)" fill="#fff"></path>
    <rect id="Rectangle_23092" data-name="Rectangle 23092" width="26.314" height="31.404" transform="translate(266.072 3.613)" fill="#002e6d"></rect>
    <path id="Path_30761" data-name="Path 30761" d="M288.8,35.529H261.362V3H288.8Zm-26.313-1.123h25.191V4.126H262.486Z" transform="translate(4.149 0.048)" fill="#fff"></path>
    <rect id="Rectangle_23093" data-name="Rectangle 23093" width="26.314" height="31.404" transform="translate(292.351 3.613)" fill="#002e6d"></rect>
    <path id="Path_30762" data-name="Path 30762" d="M314.667,35.529H287.229V3h27.438Zm-26.314-1.123h25.192V4.126H288.353Z" transform="translate(4.56 0.048)" fill="#fff"></path>
    <rect id="Rectangle_23094" data-name="Rectangle 23094" width="26.314" height="31.404" transform="translate(2.934 35.015)" fill="#002e6d"></rect>
    <path id="Path_30763" data-name="Path 30763" d="M29.773,66.442H2.336V33.915H29.773ZM3.46,65.32H28.65V35.039H3.46Z" transform="translate(0.037 0.538)" fill="#fff"></path>
    <rect id="Rectangle_23095" data-name="Rectangle 23095" width="26.314" height="31.404" transform="translate(29.248 35.015)" fill="#002e6d"></rect>
    <path id="Path_30764" data-name="Path 30764" d="M55.676,66.442H28.238V33.915H55.676ZM29.362,65.32H54.553V35.039H29.362Z" transform="translate(0.448 0.538)" fill="#fff"></path>
    <rect id="Rectangle_23096" data-name="Rectangle 23096" width="26.314" height="31.404" transform="translate(55.562 35.015)" fill="#002e6d"></rect>
    <path id="Path_30765" data-name="Path 30765" d="M81.579,66.442H54.142V33.915H81.579ZM55.265,65.32H80.455V35.039H55.265Z" transform="translate(0.86 0.538)" fill="#fff"></path>
    <rect id="Rectangle_23097" data-name="Rectangle 23097" width="26.314" height="31.404" transform="translate(81.876 35.015)" fill="#002e6d"></rect>
    <path id="Path_30766" data-name="Path 30766" d="M107.481,66.442H80.044V33.915h27.437ZM81.168,65.32h25.191V35.039H81.168Z" transform="translate(1.271 0.538)" fill="#fff"></path>
    <rect id="Rectangle_23098" data-name="Rectangle 23098" width="26.314" height="31.404" transform="translate(108.19 35.015)" fill="#002e6d"></rect>
    <path id="Path_30767" data-name="Path 30767" d="M133.383,66.442H105.946V33.915h27.437ZM107.07,65.32H132.26V35.039H107.07Z" transform="translate(1.682 0.538)" fill="#fff"></path>
    <rect id="Rectangle_23099" data-name="Rectangle 23099" width="26.314" height="31.404" transform="translate(134.503 35.015)" fill="#002e6d"></rect>
    <path id="Path_30768" data-name="Path 30768" d="M159.287,66.442H131.849V33.915h27.438ZM132.972,65.32h25.192V35.039H132.972Z" transform="translate(2.093 0.538)" fill="#fff"></path>
    <rect id="Rectangle_23100" data-name="Rectangle 23100" width="26.314" height="31.404" transform="translate(160.817 35.015)" fill="#002e6d"></rect>
    <path id="Path_30769" data-name="Path 30769" d="M185.189,66.442H157.752V33.915h27.437ZM158.876,65.32h25.191V35.039H158.876Z" transform="translate(2.504 0.538)" fill="#fff"></path>
    <rect id="Rectangle_23101" data-name="Rectangle 23101" width="26.314" height="31.404" transform="translate(187.131 35.015)" fill="#002e6d"></rect>
    <path id="Path_30770" data-name="Path 30770" d="M211.091,66.442H183.654V33.915h27.437ZM184.778,65.32h25.191V35.039H184.778Z" transform="translate(2.916 0.538)" fill="#fff"></path>
    <rect id="Rectangle_23102" data-name="Rectangle 23102" width="26.314" height="31.404" transform="translate(213.445 35.015)" fill="#002e6d"></rect>
    <path id="Path_30771" data-name="Path 30771" d="M236.994,66.442H209.557V33.915h27.437ZM210.68,65.32H235.87V35.039H210.68Z" transform="translate(3.327 0.538)" fill="#fff"></path>
    <rect id="Rectangle_23103" data-name="Rectangle 23103" width="26.314" height="31.404" transform="translate(239.759 35.015)" fill="#002e6d"></rect>
    <path id="Path_30772" data-name="Path 30772" d="M262.9,66.442H235.459V33.915H262.9ZM236.583,65.32h25.192V35.039H236.583Z" transform="translate(3.738 0.538)" fill="#fff"></path>
    <rect id="Rectangle_23104" data-name="Rectangle 23104" width="26.314" height="31.404" transform="translate(266.072 35.015)" fill="#002e6d"></rect>
    <path id="Path_30773" data-name="Path 30773" d="M288.8,66.442H261.362V33.915H288.8ZM262.486,65.32h25.191V35.039H262.486Z" transform="translate(4.149 0.538)" fill="#fff"></path>
    <rect id="Rectangle_23105" data-name="Rectangle 23105" width="26.314" height="31.404" transform="translate(292.351 35.015)" fill="#002e6d"></rect>
    <path id="Path_30774" data-name="Path 30774" d="M314.667,66.442H287.229V33.915h27.438ZM288.353,65.32h25.192V35.039H288.353Z" transform="translate(4.56 0.538)" fill="#fff"></path>
  </g>
</svg>
