<?xml version="1.0" encoding="UTF-8"?>
<svg xmlns="http://www.w3.org/2000/svg" xmlns:xlink="http://www.w3.org/1999/xlink" id="Group_21992" data-name="Group 21992" width="252.62" height="64.202" viewBox="0 0 252.62 64.202">
  <defs>
    <clipPath id="clip-path">
      <rect id="Rectangle_22712" data-name="Rectangle 22712" width="252.62" height="64.202" fill="none"></rect>
    </clipPath>
  </defs>
  <g id="Group_21942" data-name="Group 21942" transform="translate(0 0)" clip-path="url(#clip-path)">
    <path id="Path_30105" data-name="Path 30105" d="M196.845,96.589V79.525a.271.271,0,0,0-.271-.271h-.668a.272.272,0,0,0-.271.271V96.589a.272.272,0,0,0,.271.271h.668a.271.271,0,0,0,.271-.271" transform="translate(-84.35 -34.172)" fill="#3767a9"></path>
    <path id="Path_30106" data-name="Path 30106" d="M197.191,109.287h-4.654a.093.093,0,0,0-.093.093v.336a.093.093,0,0,0,.093.093h4.654a.093.093,0,0,0,.093-.093v-.336a.093.093,0,0,0-.093-.093" transform="translate(-82.975 -47.121)" fill="#3767a9"></path>
    <path id="Path_30107" data-name="Path 30107" d="M384.961,88.712h-64.3a3.6,3.6,0,1,0,0,7.2h64.3a3.6,3.6,0,1,0,0-7.2" transform="translate(-136.703 -38.249)" fill="#3767a9"></path>
    <path id="Path_30108" data-name="Path 30108" d="M8.33,84.534H87.274A3.823,3.823,0,0,1,91.1,88.358V94.43H9.174Z" transform="translate(-3.592 -36.448)" fill="#3767a9"></path>
    <path id="Path_30109" data-name="Path 30109" d="M95.519,81.213H80.345a1.109,1.109,0,0,0-1.109,1.11v1.019a1.11,1.11,0,0,0,1.109,1.11H95.519a1.11,1.11,0,0,0,1.11-1.11V82.323a1.11,1.11,0,0,0-1.11-1.11" transform="translate(-34.164 -35.016)" fill="#3767a9"></path>
    <path id="Path_30110" data-name="Path 30110" d="M131.936,82.207l-14.65-7.616a.441.441,0,0,0-.594.188L115.6,76.87a.441.441,0,0,0,.188.594l14.65,7.616a.441.441,0,0,0,.594-.188l1.087-2.092a.44.44,0,0,0-.188-.594" transform="translate(-49.823 -32.14)" fill="#3767a9"></path>
    <path id="Path_30111" data-name="Path 30111" d="M73.892,98.558H55.539a.87.87,0,0,0-.87.87v1.5a.87.87,0,0,0,.87.87H72.392a2.369,2.369,0,0,0,2.369-2.369.87.87,0,0,0-.87-.87" transform="translate(-23.571 -42.495)" fill="#3767a9"></path>
    <path id="Path_30112" data-name="Path 30112" d="M102.044,98.083H95.888a.52.52,0,0,0-.52.52v2.2a.52.52,0,0,0,.52.52h6.156a.521.521,0,0,0,.52-.52V98.6a.521.521,0,0,0-.52-.52" transform="translate(-41.119 -42.29)" fill="#3767a9"></path>
    <path id="Path_30113" data-name="Path 30113" d="M156.667,96.724h-6V89.437h6a2.1,2.1,0,0,1,2.1,2.1v3.089a2.1,2.1,0,0,1-2.1,2.1" transform="translate(-64.963 -38.562)" fill="#3767a9"></path>
    <path id="Path_30114" data-name="Path 30114" d="M35.578,95.4a6.942,6.942,0,1,1-6.942-6.942A6.942,6.942,0,0,1,35.578,95.4" transform="translate(-9.353 -38.14)" fill="#171717"></path>
    <path id="Path_30115" data-name="Path 30115" d="M34.909,97.5a4.177,4.177,0,1,1-4.177-4.176A4.177,4.177,0,0,1,34.909,97.5" transform="translate(-11.45 -40.236)" fill="#fff"></path>
    <path id="Path_30116" data-name="Path 30116" d="M34.3,99.388a1.679,1.679,0,1,1-1.679-1.679A1.679,1.679,0,0,1,34.3,99.388" transform="translate(-13.343 -42.129)" fill="#171717"></path>
    <path id="Path_30117" data-name="Path 30117" d="M1.371,69.374V44.184L6.044,29.341A6.559,6.559,0,0,1,12.3,24.752h14.98l3.6,44.667H27.386l-.045-1.814a7.048,7.048,0,0,0-7.257-7.295l-.449-.023A7.3,7.3,0,0,0,12.347,67.7v2.219Z" transform="translate(-0.591 -10.672)" fill="#002e6d"></path>
    <path id="Path_30118" data-name="Path 30118" d="M53.543,22.733l2.331,31.4a1.848,1.848,0,0,1-1.707,1.98l-4.746.353a1.849,1.849,0,0,1-1.981-1.707L45.08,22.966a1.226,1.226,0,0,1,1.08-1.309l5.324-.624a1.849,1.849,0,0,1,2.059,1.7" transform="translate(-19.436 -9.063)" fill="#002e6d"></path>
    <path id="Path_30119" data-name="Path 30119" d="M142.123,95.4a6.942,6.942,0,1,1-6.942-6.942,6.942,6.942,0,0,1,6.942,6.942" transform="translate(-55.292 -38.14)" fill="#171717"></path>
    <path id="Path_30120" data-name="Path 30120" d="M141.453,97.5a4.177,4.177,0,1,1-4.176-4.176,4.176,4.176,0,0,1,4.176,4.176" transform="translate(-57.388 -40.236)" fill="#fff"></path>
    <path id="Path_30121" data-name="Path 30121" d="M140.848,99.388a1.679,1.679,0,1,1-1.679-1.679,1.679,1.679,0,0,1,1.679,1.679" transform="translate(-59.281 -42.129)" fill="#171717"></path>
    <rect id="Rectangle_22692" data-name="Rectangle 22692" width="46.464" height="1.945" transform="translate(28.789 48.746)" fill="#002e6d"></rect>
    <path id="Path_30122" data-name="Path 30122" d="M92.442,94.114,48.68,94.079V88.172l45.94.133Z" transform="translate(-20.989 -38.017)" fill="#002e6d"></path>
    <rect id="Rectangle_22693" data-name="Rectangle 22693" width="42.973" height="0.809" transform="translate(28.924 55.493)" fill="#002e6d"></rect>
    <path id="Path_30123" data-name="Path 30123" d="M2.189,75.707H.689A.689.689,0,0,1,0,75.017V71.359a.689.689,0,0,1,.689-.69h1.5a.69.69,0,0,1,.69.69v3.658a.69.69,0,0,1-.69.69" transform="translate(0 -30.47)" fill="#002e6d"></path>
    <path id="Path_30124" data-name="Path 30124" d="M6.154,38.146l-1.576-.91a.837.837,0,0,1-.307-1.144l2.221-3.846a.837.837,0,0,1,1.144-.307l1.576.91a.837.837,0,0,1,.307,1.144L7.3,37.839a.838.838,0,0,1-1.144.307" transform="translate(-1.793 -13.722)" fill="#002e6d"></path>
    <path id="Path_30125" data-name="Path 30125" d="M2.1,92.851H1.6a1.6,1.6,0,0,1-1.6-1.6V82.415a.78.78,0,0,1,.779-.78H2.1a.78.78,0,0,1,.78.78v9.656a.78.78,0,0,1-.78.78" transform="translate(0 -35.198)" fill="#002e6d"></path>
    <path id="Path_30126" data-name="Path 30126" d="M20.522,50.9H8.847a.6.6,0,0,1-.575-.762l1.642-5.761c.54-1.844,1.162-2.593,2.593-2.593h9.822a.66.66,0,0,1,.66.659v5.99A2.467,2.467,0,0,1,20.522,50.9" transform="translate(-3.557 -18.014)" fill="#fff"></path>
    <path id="Path_30127" data-name="Path 30127" d="M125.727,96.423a15.809,15.809,0,0,1-.314-3.126,7.677,7.677,0,1,1,15.353,0,15.81,15.81,0,0,1-.314,3.126h1.983a19.842,19.842,0,0,0,.25-3.126,9.6,9.6,0,1,0-19.192,0,19.84,19.84,0,0,0,.25,3.126Z" transform="translate(-53.246 -36.088)" fill="#002e6d"></path>
    <path id="Path_30128" data-name="Path 30128" d="M274.222,58.353a6.546,6.546,0,0,0-13,0h-8.128a6.546,6.546,0,0,0-13,0h-7.837a6.546,6.546,0,0,0-13,0H131.368V45.919l-.284-.284H72.15a1.275,1.275,0,0,1-1.273-1.273V1.773A1.274,1.274,0,0,1,72.15.5H281.623A1.274,1.274,0,0,1,282.9,1.773v56.58Z" transform="translate(-30.56 -0.216)" fill="#fff"></path>
    <path id="Path_30129" data-name="Path 30129" d="M281.408.569a.989.989,0,0,1,.988.988v56.3h-8.142a6.828,6.828,0,0,0-13.5,0h-7.634a6.828,6.828,0,0,0-13.5,0H232.28a6.828,6.828,0,0,0-13.5,0H131.436V45.7l-.569-.569H71.934a.989.989,0,0,1-.988-.988V1.557a.989.989,0,0,1,.988-.988Zm0-.569H71.934a1.557,1.557,0,0,0-1.557,1.557V44.145A1.557,1.557,0,0,0,71.934,45.7h58.934V58.421h88.419a6.264,6.264,0,0,1,12.491,0h8.351a6.263,6.263,0,0,1,12.49,0h8.641a6.263,6.263,0,0,1,12.491,0h9.215V1.557A1.557,1.557,0,0,0,281.408,0" transform="translate(-30.344 0)" fill="#002e6d"></path>
    <rect id="Rectangle_22694" data-name="Rectangle 22694" width="57.069" height="0.569" transform="translate(41.944 42.968)" fill="#3767a9"></rect>
    <rect id="Rectangle_22695" data-name="Rectangle 22695" width="57.069" height="0.569" transform="translate(41.944 40.741)" fill="#3767a9"></rect>
    <rect id="Rectangle_22696" data-name="Rectangle 22696" width="57.069" height="0.569" transform="translate(41.944 38.514)" fill="#3767a9"></rect>
    <rect id="Rectangle_22697" data-name="Rectangle 22697" width="0.569" height="43.151" transform="translate(99.943 1.311)" fill="#3767a9"></rect>
    <rect id="Rectangle_22698" data-name="Rectangle 22698" width="0.569" height="46.823" transform="translate(150.664 1.345)" fill="#3767a9"></rect>
    <rect id="Rectangle_22699" data-name="Rectangle 22699" width="0.569" height="46.823" transform="translate(201.399 1.311)" fill="#3767a9"></rect>
    <rect id="Rectangle_22700" data-name="Rectangle 22700" width="85.148" height="0.569" transform="translate(102.362 55.749)" fill="#3767a9"></rect>
    <rect id="Rectangle_22701" data-name="Rectangle 22701" width="85.148" height="0.569" transform="translate(102.362 53.522)" fill="#3767a9"></rect>
    <rect id="Rectangle_22702" data-name="Rectangle 22702" width="130.388" height="0.569" transform="translate(102.361 51.295)" fill="#3767a9"></rect>
    <rect id="Rectangle_22703" data-name="Rectangle 22703" width="148.834" height="0.569" transform="translate(102.361 49.165)" fill="#3767a9"></rect>
    <rect id="Rectangle_22704" data-name="Rectangle 22704" width="4.647" height="0.569" transform="translate(224.108 55.749)" fill="#3767a9"></rect>
    <rect id="Rectangle_22705" data-name="Rectangle 22705" width="7.746" height="0.569" transform="translate(222.559 53.522)" fill="#3767a9"></rect>
    <rect id="Rectangle_22706" data-name="Rectangle 22706" width="6.124" height="0.569" transform="translate(245.24 55.749)" fill="#3767a9"></rect>
    <rect id="Rectangle_22707" data-name="Rectangle 22707" width="7.746" height="0.569" transform="translate(243.619 53.522)" fill="#3767a9"></rect>
    <rect id="Rectangle_22708" data-name="Rectangle 22708" width="10.191" height="0.569" transform="translate(241.174 51.295)" fill="#3767a9"></rect>
    <rect id="Rectangle_22709" data-name="Rectangle 22709" width="4.648" height="0.569" transform="translate(203.388 55.749)" fill="#3767a9"></rect>
    <rect id="Rectangle_22710" data-name="Rectangle 22710" width="7.552" height="0.569" transform="translate(201.936 53.522)" fill="#3767a9"></rect>
    <rect id="Rectangle_22711" data-name="Rectangle 22711" width="4.648" height="0.569" transform="translate(203.388 51.295)" fill="#cbd8e9"></rect>
    <path id="Path_30130" data-name="Path 30130" d="M418.317,99.583a5.279,5.279,0,1,1-5.279-5.279,5.279,5.279,0,0,1,5.279,5.279" transform="translate(-175.811 -40.661)" fill="#171717"></path>
    <path id="Path_30131" data-name="Path 30131" d="M417.808,101.178A3.176,3.176,0,1,1,414.632,98a3.176,3.176,0,0,1,3.176,3.176" transform="translate(-177.405 -42.255)" fill="#fff"></path>
    <path id="Path_30132" data-name="Path 30132" d="M415.641,104.031a1.846,1.846,0,1,1,1.845-1.846,1.848,1.848,0,0,1-1.845,1.846m0-2.554a.708.708,0,1,0,.708.708.709.709,0,0,0-.708-.708" transform="translate(-178.414 -43.263)" fill="#171717"></path>
    <path id="Path_30133" data-name="Path 30133" d="M381.168,99.583a5.279,5.279,0,1,1-5.279-5.279,5.279,5.279,0,0,1,5.279,5.279" transform="translate(-159.794 -40.661)" fill="#171717"></path>
    <path id="Path_30134" data-name="Path 30134" d="M380.659,101.178A3.176,3.176,0,1,1,377.483,98a3.176,3.176,0,0,1,3.176,3.176" transform="translate(-161.388 -42.255)" fill="#fff"></path>
    <path id="Path_30135" data-name="Path 30135" d="M378.492,104.031a1.846,1.846,0,1,1,1.846-1.846,1.848,1.848,0,0,1-1.846,1.846m0-2.554a.708.708,0,1,0,.708.708.709.709,0,0,0-.708-.708" transform="translate(-162.396 -43.263)" fill="#171717"></path>
    <path id="Path_30136" data-name="Path 30136" d="M344.53,99.583a5.279,5.279,0,1,1-5.279-5.279,5.279,5.279,0,0,1,5.279,5.279" transform="translate(-143.997 -40.661)" fill="#171717"></path>
    <path id="Path_30137" data-name="Path 30137" d="M344.021,101.178A3.176,3.176,0,1,1,340.845,98a3.176,3.176,0,0,1,3.176,3.176" transform="translate(-145.591 -42.255)" fill="#fff"></path>
    <path id="Path_30138" data-name="Path 30138" d="M341.853,104.031a1.846,1.846,0,1,1,1.846-1.846,1.848,1.848,0,0,1-1.846,1.846m0-2.554a.708.708,0,1,0,.708.708.709.709,0,0,0-.708-.708" transform="translate(-146.599 -43.263)" fill="#171717"></path>
  </g>
</svg>
