<?xml version="1.0" encoding="UTF-8"?>
<svg xmlns="http://www.w3.org/2000/svg" xmlns:xlink="http://www.w3.org/1999/xlink" id="Group_21995" data-name="Group 21995" width="269.705" height="63.584" viewBox="0 0 269.705 63.584">
  <defs>
    <clipPath id="clip-path">
      <rect id="Rectangle_22813" data-name="Rectangle 22813" width="269.705" height="63.584" fill="none"></rect>
    </clipPath>
  </defs>
  <g id="Group_21949" data-name="Group 21949" clip-path="url(#clip-path)">
    <path id="Path_30215" data-name="Path 30215" d="M8.33,79.869H89.885a3.95,3.95,0,0,1,3.95,3.95v6.273H9.2Z" transform="translate(-3.435 -32.934)" fill="#3767a9"></path>
    <path id="Path_30216" data-name="Path 30216" d="M96.058,76.548H80.382a1.146,1.146,0,0,0-1.146,1.147v1.053a1.146,1.146,0,0,0,1.146,1.147H96.058A1.147,1.147,0,0,0,97.2,78.748V77.695a1.147,1.147,0,0,0-1.147-1.147" transform="translate(-32.673 -31.564)" fill="#3767a9"></path>
    <path id="Path_30217" data-name="Path 30217" d="M132.478,77.8l-15.135-7.868a.455.455,0,0,0-.614.194l-1.123,2.16a.455.455,0,0,0,.194.614l15.135,7.868a.456.456,0,0,0,.614-.194l1.123-2.161a.455.455,0,0,0-.194-.614" transform="translate(-47.648 -28.813)" fill="#3767a9"></path>
    <path id="Path_30218" data-name="Path 30218" d="M74.528,93.892H55.568a.9.9,0,0,0-.9.9V96.34a.9.9,0,0,0,.9.9H72.979a2.448,2.448,0,0,0,2.448-2.448.9.9,0,0,0-.9-.9" transform="translate(-22.542 -38.716)" fill="#3767a9"></path>
    <path id="Path_30219" data-name="Path 30219" d="M102.265,93.418h-6.36a.538.538,0,0,0-.538.538v2.271a.538.538,0,0,0,.538.538h6.36a.538.538,0,0,0,.538-.538V93.956a.538.538,0,0,0-.538-.538" transform="translate(-39.324 -38.52)" fill="#3767a9"></path>
    <path id="Path_30220" data-name="Path 30220" d="M156.866,92.3h-6.2V84.772h6.2a2.169,2.169,0,0,1,2.168,2.169v3.191a2.168,2.168,0,0,1-2.168,2.168" transform="translate(-62.128 -34.955)" fill="#3767a9"></path>
    <path id="Path_30221" data-name="Path 30221" d="M36.037,90.964a7.172,7.172,0,1,1-7.172-7.172,7.172,7.172,0,0,1,7.172,7.172" transform="translate(-8.945 -34.551)" fill="#171717"></path>
    <path id="Path_30222" data-name="Path 30222" d="M35.186,92.969a4.315,4.315,0,1,1-4.315-4.315,4.315,4.315,0,0,1,4.315,4.315" transform="translate(-10.95 -36.556)" fill="#fff"></path>
    <path id="Path_30223" data-name="Path 30223" d="M34.416,94.779a1.735,1.735,0,1,1-1.735-1.735,1.735,1.735,0,0,1,1.735,1.735" transform="translate(-12.76 -38.366)" fill="#171717"></path>
    <path id="Path_30224" data-name="Path 30224" d="M142.582,90.964a7.172,7.172,0,1,1-7.172-7.172,7.172,7.172,0,0,1,7.172,7.172" transform="translate(-52.878 -34.551)" fill="#171717"></path>
    <path id="Path_30225" data-name="Path 30225" d="M141.73,92.969a4.315,4.315,0,1,1-4.315-4.315,4.314,4.314,0,0,1,4.315,4.315" transform="translate(-54.883 -36.556)" fill="#fff"></path>
    <path id="Path_30226" data-name="Path 30226" d="M140.96,94.779a1.735,1.735,0,1,1-1.735-1.735,1.735,1.735,0,0,1,1.735,1.735" transform="translate(-56.693 -38.366)" fill="#171717"></path>
    <rect id="Rectangle_22805" data-name="Rectangle 22805" width="48.001" height="2.009" transform="translate(29.741 47.617)" fill="#002e6d"></rect>
    <path id="Path_30227" data-name="Path 30227" d="M93.89,89.646,48.68,89.61v-6.1l47.46.137Z" transform="translate(-20.073 -34.434)" fill="#002e6d"></path>
    <rect id="Rectangle_22806" data-name="Rectangle 22806" width="44.395" height="0.836" transform="translate(29.881 54.588)" fill="#002e6d"></rect>
    <path id="Path_30228" data-name="Path 30228" d="M2.261,71.209H.712A.712.712,0,0,1,0,70.5V66.717A.712.712,0,0,1,.712,66H2.261a.713.713,0,0,1,.713.713V70.5a.713.713,0,0,1-.713.713" transform="translate(0 -27.216)" fill="#002e6d"></path>
    <path id="Path_30229" data-name="Path 30229" d="M6.22,33.69l-1.628-.94a.865.865,0,0,1-.317-1.182l2.294-3.974a.865.865,0,0,1,1.182-.317l1.628.94A.865.865,0,0,1,9.7,29.4L7.4,33.373a.866.866,0,0,1-1.182.317" transform="translate(-1.715 -11.2)" fill="#002e6d"></path>
    <path id="Path_30230" data-name="Path 30230" d="M1.371,66.186V40.162L6.2,24.828a6.772,6.772,0,0,1,6.464-4.741H28.138l3.718,46.145H28.246L28.2,64.358a7.282,7.282,0,0,0-7.5-7.536l-.464-.024a7.544,7.544,0,0,0-7.528,7.652v2.292Z" transform="translate(-0.565 -8.283)" fill="#002e6d"></path>
    <path id="Path_30231" data-name="Path 30231" d="M53.823,18.125l2.408,32.441a1.909,1.909,0,0,1-1.763,2.046l-4.9.364a1.91,1.91,0,0,1-2.046-1.764L45.08,18.366A1.267,1.267,0,0,1,46.2,17.013l5.5-.645a1.91,1.91,0,0,1,2.127,1.756" transform="translate(-18.587 -6.744)" fill="#002e6d"></path>
    <path id="Path_30232" data-name="Path 30232" d="M13.651,12.863,33.184.5c1.551-1.137,3.9-.218,3.959,1.544l.49,13.97a2.319,2.319,0,0,1-2.652,2.174L14.959,16.582c-2.135-.172-2.957-2.51-1.308-3.719" transform="translate(-5.268 0)" fill="#002e6d"></path>
    <path id="Path_30233" data-name="Path 30233" d="M2.168,88.557H1.653A1.653,1.653,0,0,1,0,86.9V77.776a.805.805,0,0,1,.805-.806H2.168a.806.806,0,0,1,.806.806v9.975a.806.806,0,0,1-.806.806" transform="translate(0 -31.738)" fill="#002e6d"></path>
    <path id="Path_30234" data-name="Path 30234" d="M20.928,46.533H8.867a.618.618,0,0,1-.594-.787l1.7-5.951c.558-1.9,1.2-2.679,2.679-2.679H22.8a.682.682,0,0,1,.682.681v6.188a2.549,2.549,0,0,1-2.549,2.549" transform="translate(-3.401 -15.304)" fill="#fff"></path>
    <path id="Path_30235" data-name="Path 30235" d="M125.8,92.179a16.333,16.333,0,0,1-.324-3.23,7.931,7.931,0,1,1,15.861,0,16.332,16.332,0,0,1-.324,3.23h2.049a20.5,20.5,0,0,0,.259-3.23,9.913,9.913,0,1,0-19.827,0,20.5,20.5,0,0,0,.259,3.23Z" transform="translate(-50.922 -32.59)" fill="#002e6d"></path>
    <path id="Path_30236" data-name="Path 30236" d="M253.11,67.168h-23.2a2.651,2.651,0,0,0-2.652,2.651v6.947a2.651,2.651,0,0,0,2.652,2.652h23.2a2.651,2.651,0,0,0,2.652-2.652V69.819a2.651,2.651,0,0,0-2.652-2.651" transform="translate(-93.707 -27.696)" fill="#002e6d"></path>
    <path id="Path_30237" data-name="Path 30237" d="M374.747,67.168H288.888a1.907,1.907,0,0,0-1.907,1.908v8.435a1.907,1.907,0,0,0,1.907,1.908h85.859a1.908,1.908,0,0,0,1.908-1.908V69.076a1.908,1.908,0,0,0-1.908-1.908" transform="translate(-118.335 -27.696)" fill="#002e6d"></path>
    <rect id="Rectangle_22807" data-name="Rectangle 22807" width="222.491" height="0.588" transform="translate(43.032 41.872)" fill="#cbd8e9"></rect>
    <path id="Path_30238" data-name="Path 30238" d="M392.449,83.085l7.052-2.626c.437,0,6.977,2.569,6.977,4.2l1.35,6.576H390.9Z" transform="translate(-161.185 -33.177)" fill="#3767a9"></path>
    <path id="Path_30239" data-name="Path 30239" d="M407.545,90.964a7.172,7.172,0,1,1-7.172-7.172,7.172,7.172,0,0,1,7.172,7.172" transform="translate(-162.134 -34.551)" fill="#171717"></path>
    <path id="Path_30240" data-name="Path 30240" d="M406.693,92.969a4.315,4.315,0,1,1-4.315-4.315,4.314,4.314,0,0,1,4.315,4.315" transform="translate(-164.139 -36.556)" fill="#fff"></path>
    <path id="Path_30241" data-name="Path 30241" d="M405.924,94.779a1.735,1.735,0,1,1-1.735-1.735,1.735,1.735,0,0,1,1.735,1.735" transform="translate(-165.95 -38.366)" fill="#171717"></path>
    <path id="Path_30242" data-name="Path 30242" d="M390.622,90.651a4.565,4.565,0,0,1-.187-1.7,7.931,7.931,0,1,1,15.862,0,5.1,5.1,0,0,1-.254,1.8h2.049a6.414,6.414,0,0,0,.187-1.8,9.914,9.914,0,0,0-19.828,0,5.722,5.722,0,0,0,.121,1.7Z" transform="translate(-160.174 -32.59)" fill="#002e6d"></path>
    <path id="Path_30243" data-name="Path 30243" d="M350.406,83.085l7.052-2.626c.437,0,6.977,2.569,6.977,4.2l1.35,6.576h-16.93Z" transform="translate(-143.848 -33.177)" fill="#3767a9"></path>
    <path id="Path_30244" data-name="Path 30244" d="M365.5,90.964a7.172,7.172,0,1,1-7.172-7.172,7.172,7.172,0,0,1,7.172,7.172" transform="translate(-144.798 -34.551)" fill="#171717"></path>
    <path id="Path_30245" data-name="Path 30245" d="M364.651,92.969a4.315,4.315,0,1,1-4.315-4.315,4.314,4.314,0,0,1,4.315,4.315" transform="translate(-146.803 -36.556)" fill="#fff"></path>
    <path id="Path_30246" data-name="Path 30246" d="M363.881,94.779a1.735,1.735,0,1,1-1.735-1.735,1.735,1.735,0,0,1,1.735,1.735" transform="translate(-148.613 -38.366)" fill="#171717"></path>
    <path id="Path_30247" data-name="Path 30247" d="M348.579,90.651a4.565,4.565,0,0,1-.187-1.7,7.931,7.931,0,0,1,15.862,0,5.1,5.1,0,0,1-.254,1.8h2.049a6.414,6.414,0,0,0,.187-1.8,9.914,9.914,0,1,0-19.827,0,5.72,5.72,0,0,0,.121,1.7Z" transform="translate(-142.838 -32.59)" fill="#002e6d"></path>
    <path id="Path_30248" data-name="Path 30248" d="M308.364,83.085l7.052-2.626c.437,0,6.977,2.569,6.977,4.2l1.35,6.576h-16.93Z" transform="translate(-126.513 -33.177)" fill="#3767a9"></path>
    <path id="Path_30249" data-name="Path 30249" d="M323.46,90.964a7.172,7.172,0,1,1-7.172-7.172,7.172,7.172,0,0,1,7.172,7.172" transform="translate(-127.462 -34.551)" fill="#171717"></path>
    <path id="Path_30250" data-name="Path 30250" d="M322.608,92.969a4.315,4.315,0,1,1-4.315-4.315,4.314,4.314,0,0,1,4.315,4.315" transform="translate(-129.467 -36.556)" fill="#fff"></path>
    <path id="Path_30251" data-name="Path 30251" d="M321.838,94.779a1.735,1.735,0,1,1-1.735-1.735,1.735,1.735,0,0,1,1.735,1.735" transform="translate(-131.277 -38.366)" fill="#171717"></path>
    <path id="Path_30252" data-name="Path 30252" d="M306.537,90.651a4.554,4.554,0,0,1-.187-1.7,7.931,7.931,0,0,1,15.862,0,5.1,5.1,0,0,1-.254,1.8h2.049a6.392,6.392,0,0,0,.187-1.8,9.914,9.914,0,1,0-19.827,0,5.72,5.72,0,0,0,.121,1.7Z" transform="translate(-125.501 -32.59)" fill="#002e6d"></path>
    <path id="Path_30253" data-name="Path 30253" d="M448.9,75.055h4.45v3.239a.776.776,0,0,1-1.375.494Z" transform="translate(-185.1 -30.949)" fill="#002e6d"></path>
    <path id="Path_30254" data-name="Path 30254" d="M180.037,89.03V71.4a.28.28,0,0,0-.28-.28h-.69a.281.281,0,0,0-.28.28V89.03a.281.281,0,0,0,.28.28h.69a.28.28,0,0,0,.28-.28" transform="translate(-73.721 -29.326)" fill="#3767a9"></path>
    <path id="Path_30255" data-name="Path 30255" d="M180.5,101.153h-4.808a.1.1,0,0,0-.1.1v.347a.1.1,0,0,0,.1.1H180.5a.1.1,0,0,0,.1-.1v-.347a.1.1,0,0,0-.1-.1" transform="translate(-72.406 -41.71)" fill="#3767a9"></path>
    <path id="Path_30256" data-name="Path 30256" d="M191.621,61.211H170.008a6.5,6.5,0,0,0-6.5,6.5V68.5a6.5,6.5,0,0,0,6.5,6.5h21.613a6.5,6.5,0,0,0,6.5-6.5v-.791a6.5,6.5,0,0,0-6.5-6.5" transform="translate(-67.422 -25.24)" fill="#fff"></path>
    <path id="Path_30257" data-name="Path 30257" d="M191.414,75.086H169.8a6.8,6.8,0,0,1-6.792-6.792V67.5a6.8,6.8,0,0,1,6.792-6.792h21.613a6.8,6.8,0,0,1,6.792,6.792v.79a6.8,6.8,0,0,1-6.792,6.792M169.8,61.3a6.212,6.212,0,0,0-6.2,6.2v.79a6.212,6.212,0,0,0,6.2,6.2h21.613a6.211,6.211,0,0,0,6.2-6.2V67.5a6.211,6.211,0,0,0-6.2-6.2Z" transform="translate(-67.216 -25.034)" fill="#3767a9"></path>
    <rect id="Rectangle_22808" data-name="Rectangle 22808" width="228.348" height="16.157" rx="1.054" transform="translate(41.064 27.985)" fill="#fff"></rect>
    <path id="Path_30258" data-name="Path 30258" d="M297.4,47.708a.326.326,0,0,1,.326.326V62.952a.325.325,0,0,1-.326.325H70.291a.325.325,0,0,1-.326-.325V48.033a.326.326,0,0,1,.326-.326Zm0-.588H70.291a.914.914,0,0,0-.913.913V62.952a.913.913,0,0,0,.913.913H297.4a.913.913,0,0,0,.913-.913V48.033a.914.914,0,0,0-.913-.913" transform="translate(-28.608 -19.43)" fill="#002e6d"></path>
    <rect id="Rectangle_22809" data-name="Rectangle 22809" width="215.985" height="0.588" transform="translate(47.245 30.455)" fill="#3767a9"></rect>
    <rect id="Rectangle_22810" data-name="Rectangle 22810" width="215.985" height="0.588" transform="translate(47.245 34.063)" fill="#3767a9"></rect>
    <rect id="Rectangle_22811" data-name="Rectangle 22811" width="215.985" height="0.588" transform="translate(47.245 37.672)" fill="#3767a9"></rect>
    <rect id="Rectangle_22812" data-name="Rectangle 22812" width="215.985" height="0.588" transform="translate(47.245 41.28)" fill="#3767a9"></rect>
    <path id="Path_30259" data-name="Path 30259" d="M73.438,17.747h-3.4a.662.662,0,0,0-.662.662V49.955a1.8,1.8,0,0,0,1.8,1.8H72.3a1.8,1.8,0,0,0,1.8-1.8V18.409a.662.662,0,0,0-.662-.662" transform="translate(-28.608 -7.318)" fill="#002e6d"></path>
    <path id="Path_30260" data-name="Path 30260" d="M454.827,47.206h-3.794a.464.464,0,0,0-.464.464V62.641a1.26,1.26,0,0,0,1.259,1.26h2.2a1.26,1.26,0,0,0,1.26-1.26V47.67a.463.463,0,0,0-.464-.464" transform="translate(-185.79 -19.465)" fill="#002e6d"></path>
  </g>
</svg>
