<?xml version="1.0" encoding="UTF-8"?>
<svg xmlns="http://www.w3.org/2000/svg" xmlns:xlink="http://www.w3.org/1999/xlink" id="Group_21998" data-name="Group 21998" width="262.977" height="54.325" viewBox="0 0 262.977 54.325">
  <defs>
    <clipPath id="clip-path">
      <rect id="Rectangle_22868" data-name="Rectangle 22868" width="262.977" height="54.325" fill="none"></rect>
    </clipPath>
  </defs>
  <g id="Group_21955" data-name="Group 21955" transform="translate(0 0)" clip-path="url(#clip-path)">
    <path id="Path_30326" data-name="Path 30326" d="M360.51,67.691H254.915A3.916,3.916,0,0,0,251,71.607v.358a3.916,3.916,0,0,0,3.916,3.916H360.51a3.916,3.916,0,0,0,3.916-3.916v-.358a3.916,3.916,0,0,0-3.916-3.916" transform="translate(-102.536 -27.653)" fill="#3767a9"></path>
    <path id="Path_30327" data-name="Path 30327" d="M8.33,63.514H90.417a3.976,3.976,0,0,1,3.976,3.976V73.8H9.208Z" transform="translate(-3.403 -25.946)" fill="#3767a9"></path>
    <path id="Path_30328" data-name="Path 30328" d="M96.168,60.192H80.389a1.153,1.153,0,0,0-1.153,1.154v1.06a1.154,1.154,0,0,0,1.153,1.154H96.168a1.154,1.154,0,0,0,1.154-1.154v-1.06a1.154,1.154,0,0,0-1.154-1.154" transform="translate(-32.369 -24.589)" fill="#3767a9"></path>
    <path id="Path_30329" data-name="Path 30329" d="M132.589,61.492l-15.234-7.919a.458.458,0,0,0-.618.2l-1.13,2.174a.458.458,0,0,0,.2.618l15.234,7.919a.459.459,0,0,0,.618-.2l1.13-2.175a.458.458,0,0,0-.2-.618" transform="translate(-47.205 -21.864)" fill="#3767a9"></path>
    <path id="Path_30330" data-name="Path 30330" d="M74.657,77.537H55.573a.9.9,0,0,0-.9.9V80a.9.9,0,0,0,.9.9H73.1a2.464,2.464,0,0,0,2.464-2.464.9.9,0,0,0-.9-.9" transform="translate(-22.333 -31.675)" fill="#3767a9"></path>
    <path id="Path_30331" data-name="Path 30331" d="M102.31,77.062h-6.4a.541.541,0,0,0-.541.541v2.286a.541.541,0,0,0,.541.541h6.4a.541.541,0,0,0,.541-.541V77.6a.541.541,0,0,0-.541-.541" transform="translate(-38.959 -31.481)" fill="#3767a9"></path>
    <path id="Path_30332" data-name="Path 30332" d="M156.906,75.994h-6.237V68.416h6.237a2.183,2.183,0,0,1,2.182,2.183v3.212a2.182,2.182,0,0,1-2.182,2.183" transform="translate(-61.55 -27.949)" fill="#3767a9"></path>
    <path id="Path_30333" data-name="Path 30333" d="M182.17,79.905V65.529a.254.254,0,0,0-.254-.254h-.75a.255.255,0,0,0-.254.254V79.905a.255.255,0,0,0,.254.254h.75a.254.254,0,0,0,.254-.254" transform="translate(-73.904 -26.666)" fill="#3767a9"></path>
    <path id="Path_30334" data-name="Path 30334" d="M182.666,89.692h-4.858a.087.087,0,0,0-.088.088v.267a.088.088,0,0,0,.088.088h4.858a.088.088,0,0,0,.088-.088V89.78a.087.087,0,0,0-.088-.088" transform="translate(-72.601 -36.64)" fill="#3767a9"></path>
    <path id="Path_30335" data-name="Path 30335" d="M139.458,60.547V50.731H70.377v5.082h62.9V69.039h51.139a4.918,4.918,0,0,1,9.081,0h2.294a4.918,4.918,0,0,1,9.081,0h2.294a4.918,4.918,0,0,1,9.081,0h2.294a4.918,4.918,0,0,1,9.081,0h2.294a4.918,4.918,0,0,1,9.081,0h2.294a4.918,4.918,0,0,1,9.081,0h2.294a4.918,4.918,0,0,1,9.081,0h2.294a4.918,4.918,0,0,1,9.081,0h2.294a4.918,4.918,0,0,1,9.081,0h6.935V60.547Z" transform="translate(-28.75 -20.724)" fill="#fff"></path>
    <path id="Path_30336" data-name="Path 30336" d="M291.226,69.13h-6.933a.3.3,0,0,1-.273-.18,4.623,4.623,0,0,0-8.537,0,.3.3,0,0,1-.271.18h-2.294a.3.3,0,0,1-.273-.18,4.622,4.622,0,0,0-8.536,0,.3.3,0,0,1-.272.18h-2.294a.3.3,0,0,1-.271-.18,4.623,4.623,0,0,0-8.538,0,.3.3,0,0,1-.272.18h-2.294a.3.3,0,0,1-.273-.18,4.622,4.622,0,0,0-8.536,0,.3.3,0,0,1-.273.18h-2.294a.3.3,0,0,1-.273-.18,4.622,4.622,0,0,0-8.536,0,.294.294,0,0,1-.272.18h-2.293a.3.3,0,0,1-.273-.18,4.623,4.623,0,0,0-8.537,0,.3.3,0,0,1-.272.18h-2.294a.3.3,0,0,1-.273-.18,4.622,4.622,0,0,0-8.536,0,.294.294,0,0,1-.272.18h-2.294a.294.294,0,0,1-.271-.18,4.624,4.624,0,0,0-8.538,0,.3.3,0,0,1-.271.18h-2.294a.3.3,0,0,1-.272-.18,4.623,4.623,0,0,0-8.536,0,.3.3,0,0,1-.272.18H133.073a.3.3,0,0,1-.3-.3V55.9h-62.6a.3.3,0,0,1-.3-.3V50.527a.3.3,0,0,1,.3-.3h69.081a.3.3,0,0,1,.3.3v9.521H291.226a.3.3,0,0,1,.3.3v8.491a.3.3,0,0,1-.3.3m-6.742-.591h6.446v-7.9H139.255a.3.3,0,0,1-.3-.3V50.822H70.469v4.49h62.6a.3.3,0,0,1,.3.3v12.93H184.02a5.212,5.212,0,0,1,9.464,0h1.911a5.212,5.212,0,0,1,9.465,0h1.911a5.211,5.211,0,0,1,9.463,0h1.912a5.212,5.212,0,0,1,9.464,0h1.91a5.211,5.211,0,0,1,9.464,0H240.9a5.211,5.211,0,0,1,9.464,0h1.911a5.212,5.212,0,0,1,9.465,0h1.91a5.211,5.211,0,0,1,9.464,0h1.911a5.212,5.212,0,0,1,9.464,0" transform="translate(-28.546 -20.52)" fill="#002e6d"></path>
    <path id="Path_30337" data-name="Path 30337" d="M435.28,81.256h4.479v3.26a.781.781,0,0,1-1.384.5Z" transform="translate(-177.817 -33.194)" fill="#002e6d"></path>
    <path id="Path_30338" data-name="Path 30338" d="M36.131,74.655a7.219,7.219,0,1,1-7.219-7.219,7.219,7.219,0,0,1,7.219,7.219" transform="translate(-8.862 -27.548)" fill="#171717"></path>
    <path id="Path_30339" data-name="Path 30339" d="M35.242,76.641A4.343,4.343,0,1,1,30.9,72.3a4.343,4.343,0,0,1,4.343,4.343" transform="translate(-10.848 -29.535)" fill="#fff"></path>
    <path id="Path_30340" data-name="Path 30340" d="M34.438,78.434a1.746,1.746,0,1,1-1.746-1.746,1.746,1.746,0,0,1,1.746,1.746" transform="translate(-12.642 -31.328)" fill="#171717"></path>
    <path id="Path_30341" data-name="Path 30341" d="M1.371,50.13V23.937L6.23,8.5a6.82,6.82,0,0,1,6.506-4.772H28.313l3.742,46.446H28.422l-.047-1.886a7.329,7.329,0,0,0-7.546-7.585l-.467-.024a7.593,7.593,0,0,0-7.578,7.7v2.307Z" transform="translate(-0.56 -1.524)" fill="#002e6d"></path>
    <path id="Path_30342" data-name="Path 30342" d="M53.88,1.78,56.3,34.433a1.921,1.921,0,0,1-1.774,2.059l-4.935.367a1.923,1.923,0,0,1-2.06-1.775L45.081,2.023A1.275,1.275,0,0,1,46.2.662L51.74.013A1.923,1.923,0,0,1,53.88,1.78" transform="translate(-18.414 0)" fill="#002e6d"></path>
    <path id="Path_30343" data-name="Path 30343" d="M142.676,74.655a7.219,7.219,0,1,1-7.219-7.219,7.219,7.219,0,0,1,7.219,7.219" transform="translate(-52.387 -27.548)" fill="#171717"></path>
    <path id="Path_30344" data-name="Path 30344" d="M141.786,76.641a4.343,4.343,0,1,1-4.343-4.343,4.343,4.343,0,0,1,4.343,4.343" transform="translate(-54.373 -29.535)" fill="#fff"></path>
    <path id="Path_30345" data-name="Path 30345" d="M140.982,78.434a1.746,1.746,0,1,1-1.746-1.746,1.746,1.746,0,0,1,1.746,1.746" transform="translate(-56.166 -31.328)" fill="#171717"></path>
    <rect id="Rectangle_22858" data-name="Rectangle 22858" width="48.315" height="2.022" transform="translate(29.935 38.253)" fill="#002e6d"></rect>
    <path id="Path_30346" data-name="Path 30346" d="M94.184,73.33l-45.5-.036V67.151l47.77.138Z" transform="translate(-19.886 -27.432)" fill="#002e6d"></path>
    <rect id="Rectangle_22859" data-name="Rectangle 22859" width="44.685" height="0.842" transform="translate(30.075 45.27)" fill="#002e6d"></rect>
    <path id="Path_30347" data-name="Path 30347" d="M2.276,54.887H.717A.717.717,0,0,1,0,54.169v-3.8a.717.717,0,0,1,.717-.717H2.276a.717.717,0,0,1,.717.717v3.8a.717.717,0,0,1-.717.717" transform="translate(0 -20.282)" fill="#002e6d"></path>
    <path id="Path_30348" data-name="Path 30348" d="M6.233,17.377,4.594,16.43a.87.87,0,0,1-.319-1.189l2.309-4a.871.871,0,0,1,1.189-.319l1.639.946a.871.871,0,0,1,.319,1.189l-2.309,4a.871.871,0,0,1-1.189.319" transform="translate(-1.699 -4.414)" fill="#002e6d"></path>
    <path id="Path_30349" data-name="Path 30349" d="M2.183,72.276H1.664A1.664,1.664,0,0,1,0,70.613V61.425a.811.811,0,0,1,.81-.811H2.183a.811.811,0,0,1,.811.811V71.465a.811.811,0,0,1-.811.811" transform="translate(0 -24.762)" fill="#002e6d"></path>
    <path id="Path_30350" data-name="Path 30350" d="M21.011,30.238H8.871a.622.622,0,0,1-.6-.793l1.707-5.99c.561-1.917,1.208-2.7,2.7-2.7H22.89a.686.686,0,0,1,.686.686v6.228a2.565,2.565,0,0,1-2.565,2.565" transform="translate(-3.37 -8.48)" fill="#fff"></path>
    <path id="Path_30351" data-name="Path 30351" d="M125.816,75.908a16.439,16.439,0,0,1-.327-3.251,7.982,7.982,0,1,1,15.965,0,16.437,16.437,0,0,1-.326,3.251h2.062a20.63,20.63,0,0,0,.26-3.251,9.978,9.978,0,1,0-19.956,0,20.632,20.632,0,0,0,.26,3.251Z" transform="translate(-50.449 -25.605)" fill="#002e6d"></path>
    <rect id="Rectangle_22860" data-name="Rectangle 22860" width="57.228" height="0.591" transform="translate(45.225 32.228)" fill="#3767a9"></rect>
    <rect id="Rectangle_22861" data-name="Rectangle 22861" width="147.569" height="0.591" transform="translate(111.816 42.251)" fill="#3767a9"></rect>
    <rect id="Rectangle_22862" data-name="Rectangle 22862" width="42.386" height="0.591" transform="translate(111.816 45.208)" fill="#3767a9"></rect>
    <rect id="Rectangle_22863" data-name="Rectangle 22863" width="3.133" height="0.591" transform="translate(256.253 45.208)" fill="#3767a9"></rect>
    <rect id="Rectangle_22864" data-name="Rectangle 22864" width="1.512" height="4.895" transform="translate(41.943 30.158)" fill="#002e6d"></rect>
    <rect id="Rectangle_22865" data-name="Rectangle 22865" width="0.958" height="17.933" transform="translate(104.264 30.308)" fill="#002e6d"></rect>
    <rect id="Rectangle_22866" data-name="Rectangle 22866" width="0.958" height="18.172" transform="translate(110.002 30.007)" fill="#002e6d"></rect>
    <rect id="Rectangle_22867" data-name="Rectangle 22867" width="1.512" height="8.407" transform="translate(260.97 39.772)" fill="#002e6d"></rect>
    <path id="Path_30352" data-name="Path 30352" d="M426.076,81.945a4.157,4.157,0,1,1-4.158-4.157,4.157,4.157,0,0,1,4.158,4.157" transform="translate(-170.66 -31.777)" fill="#171717"></path>
    <path id="Path_30353" data-name="Path 30353" d="M425.563,83.089a2.5,2.5,0,1,1-2.5-2.5,2.5,2.5,0,0,1,2.5,2.5" transform="translate(-171.804 -32.921)" fill="#fff"></path>
    <path id="Path_30354" data-name="Path 30354" d="M423.686,85.31a1.6,1.6,0,1,1,1.6-1.6,1.6,1.6,0,0,1-1.6,1.6m0-2.011a.414.414,0,1,0,.414.414.415.415,0,0,0-.414-.414" transform="translate(-172.428 -33.545)" fill="#171717"></path>
    <path id="Path_30355" data-name="Path 30355" d="M406.844,81.945a4.157,4.157,0,1,1-4.157-4.157,4.157,4.157,0,0,1,4.157,4.157" transform="translate(-162.804 -31.777)" fill="#171717"></path>
    <path id="Path_30356" data-name="Path 30356" d="M406.332,83.089a2.5,2.5,0,1,1-2.5-2.5,2.5,2.5,0,0,1,2.5,2.5" transform="translate(-163.948 -32.921)" fill="#fff"></path>
    <path id="Path_30357" data-name="Path 30357" d="M404.455,85.31a1.6,1.6,0,1,1,1.6-1.6,1.6,1.6,0,0,1-1.6,1.6m0-2.011a.414.414,0,1,0,.414.414.414.414,0,0,0-.414-.414" transform="translate(-164.572 -33.545)" fill="#171717"></path>
    <path id="Path_30358" data-name="Path 30358" d="M387.613,81.945a4.157,4.157,0,1,1-4.157-4.157,4.157,4.157,0,0,1,4.157,4.157" transform="translate(-154.948 -31.777)" fill="#171717"></path>
    <path id="Path_30359" data-name="Path 30359" d="M387.1,83.089a2.5,2.5,0,1,1-2.5-2.5,2.5,2.5,0,0,1,2.5,2.5" transform="translate(-156.092 -32.921)" fill="#fff"></path>
    <path id="Path_30360" data-name="Path 30360" d="M385.225,85.31a1.6,1.6,0,1,1,1.6-1.6,1.6,1.6,0,0,1-1.6,1.6m0-2.011a.414.414,0,1,0,.413.414.414.414,0,0,0-.413-.414" transform="translate(-156.716 -33.545)" fill="#171717"></path>
    <path id="Path_30361" data-name="Path 30361" d="M368.382,81.945a4.157,4.157,0,1,1-4.157-4.157,4.157,4.157,0,0,1,4.157,4.157" transform="translate(-147.092 -31.777)" fill="#171717"></path>
    <path id="Path_30362" data-name="Path 30362" d="M367.869,83.089a2.5,2.5,0,1,1-2.5-2.5,2.5,2.5,0,0,1,2.5,2.5" transform="translate(-148.235 -32.921)" fill="#fff"></path>
    <path id="Path_30363" data-name="Path 30363" d="M365.993,85.31a1.6,1.6,0,1,1,1.6-1.6,1.6,1.6,0,0,1-1.6,1.6m0-2.011a.414.414,0,1,0,.414.414.414.414,0,0,0-.414-.414" transform="translate(-148.86 -33.545)" fill="#171717"></path>
    <path id="Path_30364" data-name="Path 30364" d="M349.151,81.945a4.157,4.157,0,1,1-4.157-4.157,4.157,4.157,0,0,1,4.157,4.157" transform="translate(-139.236 -31.777)" fill="#171717"></path>
    <path id="Path_30365" data-name="Path 30365" d="M348.639,83.089a2.5,2.5,0,1,1-2.5-2.5,2.5,2.5,0,0,1,2.5,2.5" transform="translate(-140.38 -32.921)" fill="#fff"></path>
    <path id="Path_30366" data-name="Path 30366" d="M346.763,85.31a1.6,1.6,0,1,1,1.6-1.6,1.6,1.6,0,0,1-1.6,1.6m0-2.011a.414.414,0,1,0,.413.414.415.415,0,0,0-.413-.414" transform="translate(-141.004 -33.545)" fill="#171717"></path>
    <path id="Path_30367" data-name="Path 30367" d="M329.92,81.945a4.157,4.157,0,1,1-4.157-4.157,4.157,4.157,0,0,1,4.157,4.157" transform="translate(-131.38 -31.777)" fill="#171717"></path>
    <path id="Path_30368" data-name="Path 30368" d="M329.407,83.089a2.5,2.5,0,1,1-2.5-2.5,2.5,2.5,0,0,1,2.5,2.5" transform="translate(-132.523 -32.921)" fill="#fff"></path>
    <path id="Path_30369" data-name="Path 30369" d="M327.531,85.31a1.6,1.6,0,1,1,1.6-1.6,1.6,1.6,0,0,1-1.6,1.6m0-2.011a.414.414,0,1,0,.414.414.414.414,0,0,0-.414-.414" transform="translate(-133.148 -33.545)" fill="#171717"></path>
    <path id="Path_30370" data-name="Path 30370" d="M310.689,81.945a4.157,4.157,0,1,1-4.157-4.157,4.157,4.157,0,0,1,4.157,4.157" transform="translate(-123.524 -31.777)" fill="#171717"></path>
    <path id="Path_30371" data-name="Path 30371" d="M310.176,83.089a2.5,2.5,0,1,1-2.5-2.5,2.5,2.5,0,0,1,2.5,2.5" transform="translate(-124.667 -32.921)" fill="#fff"></path>
    <path id="Path_30372" data-name="Path 30372" d="M308.3,85.31a1.6,1.6,0,1,1,1.6-1.6,1.6,1.6,0,0,1-1.6,1.6m0-2.011a.414.414,0,1,0,.414.414.414.414,0,0,0-.414-.414" transform="translate(-125.292 -33.545)" fill="#171717"></path>
    <path id="Path_30373" data-name="Path 30373" d="M291.458,81.945a4.157,4.157,0,1,1-4.157-4.157,4.157,4.157,0,0,1,4.157,4.157" transform="translate(-115.667 -31.777)" fill="#171717"></path>
    <path id="Path_30374" data-name="Path 30374" d="M290.945,83.089a2.5,2.5,0,1,1-2.5-2.5,2.5,2.5,0,0,1,2.5,2.5" transform="translate(-116.811 -32.921)" fill="#fff"></path>
    <path id="Path_30375" data-name="Path 30375" d="M289.069,85.31a1.6,1.6,0,1,1,1.6-1.6,1.6,1.6,0,0,1-1.6,1.6m0-2.011a.414.414,0,1,0,.413.414.415.415,0,0,0-.413-.414" transform="translate(-117.436 -33.545)" fill="#171717"></path>
    <path id="Path_30376" data-name="Path 30376" d="M272.227,81.945a4.157,4.157,0,1,1-4.157-4.157,4.157,4.157,0,0,1,4.157,4.157" transform="translate(-107.811 -31.777)" fill="#171717"></path>
    <path id="Path_30377" data-name="Path 30377" d="M271.714,83.089a2.5,2.5,0,1,1-2.5-2.5,2.5,2.5,0,0,1,2.5,2.5" transform="translate(-108.955 -32.921)" fill="#fff"></path>
    <path id="Path_30378" data-name="Path 30378" d="M269.838,85.31a1.6,1.6,0,1,1,1.6-1.6,1.6,1.6,0,0,1-1.6,1.6m0-2.011a.414.414,0,1,0,.414.414.414.414,0,0,0-.414-.414" transform="translate(-109.58 -33.545)" fill="#171717"></path>
  </g>
</svg>
