<?xml version="1.0" encoding="UTF-8"?> <svg xmlns="http://www.w3.org/2000/svg" xmlns:xlink="http://www.w3.org/1999/xlink" id="Group_21962" data-name="Group 21962" width="232.033" height="64.051" viewBox="0 0 232.033 64.051"><defs><clipPath id="clip-path"><rect id="Rectangle_22874" data-name="Rectangle 22874" width="232.033" height="64.051" fill="none"></rect></clipPath></defs><g id="Group_21961" data-name="Group 21961" transform="translate(0 0)" clip-path="url(#clip-path)"><path id="Path_30379" data-name="Path 30379" d="M8.33,84.6H87.045a3.812,3.812,0,0,1,3.813,3.813v6.055H9.172Z" transform="translate(-3.605 -36.615)" fill="#3767a9"></path><path id="Path_30380" data-name="Path 30380" d="M95.472,81.276H80.342a1.106,1.106,0,0,0-1.106,1.107V83.4a1.106,1.106,0,0,0,1.106,1.107h15.13A1.107,1.107,0,0,0,96.579,83.4V82.383a1.107,1.107,0,0,0-1.107-1.107" transform="translate(-34.295 -35.177)" fill="#3767a9"></path><path id="Path_30381" data-name="Path 30381" d="M131.889,82.247l-14.608-7.593a.439.439,0,0,0-.593.187L115.6,76.926a.439.439,0,0,0,.187.593L130.4,85.113a.44.44,0,0,0,.593-.187l1.084-2.086a.439.439,0,0,0-.187-.593" transform="translate(-50.014 -32.29)" fill="#3767a9"></path><path id="Path_30382" data-name="Path 30382" d="M73.836,98.621h-18.3a.867.867,0,0,0-.867.867v1.5a.868.868,0,0,0,.867.867h16.8A2.363,2.363,0,0,0,74.7,99.488a.867.867,0,0,0-.867-.867" transform="translate(-23.662 -42.685)" fill="#3767a9"></path><path id="Path_30383" data-name="Path 30383" d="M102.025,98.146H95.887a.519.519,0,0,0-.519.519v2.192a.519.519,0,0,0,.519.519h6.138a.519.519,0,0,0,.519-.519V98.665a.519.519,0,0,0-.519-.519" transform="translate(-41.277 -42.479)" fill="#3767a9"></path><path id="Path_30384" data-name="Path 30384" d="M156.65,96.766h-5.981V89.5h5.981a2.093,2.093,0,0,1,2.092,2.093v3.08a2.093,2.093,0,0,1-2.092,2.093" transform="translate(-65.212 -38.737)" fill="#3767a9"></path><path id="Path_30385" data-name="Path 30385" d="M35.537,95.442a6.922,6.922,0,1,1-6.922-6.922,6.922,6.922,0,0,1,6.922,6.922" transform="translate(-9.389 -38.313)" fill="#171717"></path><path id="Path_30386" data-name="Path 30386" d="M34.885,97.546a4.165,4.165,0,1,1-4.165-4.164,4.165,4.165,0,0,1,4.165,4.164" transform="translate(-11.494 -40.417)" fill="#fff"></path><path id="Path_30387" data-name="Path 30387" d="M34.295,99.446a1.674,1.674,0,1,1-1.674-1.674,1.675,1.675,0,0,1,1.674,1.674" transform="translate(-13.394 -42.317)" fill="#171717"></path><path id="Path_30388" data-name="Path 30388" d="M1.371,69.308V44.191l4.659-14.8a6.54,6.54,0,0,1,6.238-4.576H27.206l3.588,44.538H27.31l-.045-1.809a7.028,7.028,0,0,0-7.236-7.274l-.448-.023a7.281,7.281,0,0,0-7.266,7.386v2.213Z" transform="translate(-0.593 -10.74)" fill="#002e6d"></path><path id="Path_30389" data-name="Path 30389" d="M53.518,22.791,55.842,54.1a1.842,1.842,0,0,1-1.7,1.974l-4.733.352a1.844,1.844,0,0,1-1.975-1.7l-2.353-31.7a1.222,1.222,0,0,1,1.077-1.305l5.308-.622a1.844,1.844,0,0,1,2.053,1.695" transform="translate(-19.51 -9.125)" fill="#002e6d"></path><path id="Path_30390" data-name="Path 30390" d="M142.082,95.442a6.922,6.922,0,1,1-6.922-6.922,6.922,6.922,0,0,1,6.922,6.922" transform="translate(-55.503 -38.313)" fill="#171717"></path><path id="Path_30391" data-name="Path 30391" d="M141.429,97.546a4.165,4.165,0,1,1-4.164-4.164,4.164,4.164,0,0,1,4.164,4.164" transform="translate(-57.608 -40.417)" fill="#fff"></path><path id="Path_30392" data-name="Path 30392" d="M140.839,99.446a1.674,1.674,0,1,1-1.674-1.674,1.675,1.675,0,0,1,1.674,1.674" transform="translate(-59.508 -42.317)" fill="#171717"></path><rect id="Rectangle_22870" data-name="Rectangle 22870" width="46.329" height="1.939" transform="translate(28.705 48.64)" fill="#002e6d"></rect><path id="Path_30393" data-name="Path 30393" d="M92.315,94.16,48.68,94.125v-5.89l45.807.132Z" transform="translate(-21.069 -38.189)" fill="#002e6d"></path><rect id="Rectangle_22871" data-name="Rectangle 22871" width="42.849" height="0.807" transform="translate(28.84 55.368)" fill="#002e6d"></rect><path id="Path_30394" data-name="Path 30394" d="M2.183,75.756H.687A.687.687,0,0,1,0,75.068V71.42a.687.687,0,0,1,.687-.688h1.5a.688.688,0,0,1,.688.688v3.648a.688.688,0,0,1-.688.688" transform="translate(0 -30.614)" fill="#002e6d"></path><path id="Path_30395" data-name="Path 30395" d="M6.148,38.191l-1.572-.907a.834.834,0,0,1-.306-1.141l2.214-3.835A.835.835,0,0,1,7.625,32l1.572.907A.835.835,0,0,1,9.5,34.05L7.288,37.885a.835.835,0,0,1-1.141.306" transform="translate(-1.8 -13.802)" fill="#002e6d"></path><path id="Path_30396" data-name="Path 30396" d="M2.093,92.881H1.6a1.6,1.6,0,0,1-1.6-1.6v-8.81A.777.777,0,0,1,.777,81.7H2.093a.778.778,0,0,1,.778.778V92.1a.778.778,0,0,1-.778.778" transform="translate(0 -35.36)" fill="#002e6d"></path><path id="Path_30397" data-name="Path 30397" d="M20.487,50.933H8.846a.6.6,0,0,1-.573-.76l1.637-5.744c.538-1.838,1.158-2.586,2.586-2.586h9.794a.658.658,0,0,1,.658.657v5.972a2.46,2.46,0,0,1-2.46,2.46" transform="translate(-3.57 -18.11)" fill="#fff"></path><path id="Path_30398" data-name="Path 30398" d="M125.721,96.449a15.763,15.763,0,0,1-.313-3.117,7.654,7.654,0,1,1,15.309,0,15.764,15.764,0,0,1-.313,3.117h1.977a19.783,19.783,0,0,0,.25-3.117,9.568,9.568,0,1,0-19.136,0,19.783,19.783,0,0,0,.25,3.117Z" transform="translate(-53.45 -36.254)" fill="#002e6d"></path><path id="Path_30399" data-name="Path 30399" d="M386.727,73.062h-9.505a2.6,2.6,0,0,0-2.6,2.6v1.977a2.6,2.6,0,0,0,2.6,2.6h9.505a2.6,2.6,0,0,0,2.6-2.6V75.665a2.6,2.6,0,0,0-2.6-2.6" transform="translate(-162.141 -31.622)" fill="#3767a9"></path><path id="Path_30400" data-name="Path 30400" d="M323.917,82.764H259.8a3.591,3.591,0,0,0,0,7.182h64.119a3.591,3.591,0,1,0,0-7.182" transform="translate(-110.891 -35.821)" fill="#3767a9"></path><path id="Path_30401" data-name="Path 30401" d="M214.828,73.556v3.23l2.349,2.349a20.559,20.559,0,0,0,9.762,5.459l4.473,1.068a51.528,51.528,0,0,0,11.969,1.409h.107v-.852h.017a8.275,8.275,0,0,1,16.442,0h.017v.852h6.63v-.852h.016a8.276,8.276,0,0,1,16.442,0h.017v.852h6.347v-.852h.016a8.276,8.276,0,0,1,16.442,0h.016v.852h1.585a6.264,6.264,0,0,0,6.264-6.265V73.436Z" transform="translate(-92.981 -31.784)" fill="#fff"></path><path id="Path_30402" data-name="Path 30402" d="M307.261,87.138h-1.868l-.016-1.118a7.993,7.993,0,0,0-15.876,0l-.016.252v.866h-6.915l-.016-1.118a7.993,7.993,0,0,0-15.876,0l-.016.251v.867h-7.2l-.016-1.118a7.992,7.992,0,0,0-15.876,0l-.016.26v.858h-.391A51.893,51.893,0,0,1,231.13,85.72l-4.473-1.068a20.825,20.825,0,0,1-9.9-5.535l-2.432-2.432V73.055l99.48-.12V80.59a6.555,6.555,0,0,1-6.548,6.548m-1.3-.567h1.3a5.988,5.988,0,0,0,5.98-5.981V73.5l-98.346.119v2.829l2.266,2.266a20.264,20.264,0,0,0,9.627,5.384l4.473,1.068a51.307,51.307,0,0,0,11.727,1.4v-.852h.039a8.573,8.573,0,0,1,16.965,0h.022l.016.284v.568h6.063v-.852h.039a8.574,8.574,0,0,1,16.965,0h.022l.017.284v.568h5.78v-.852h.039a8.573,8.573,0,0,1,16.965,0h.022l.017.284Z" transform="translate(-92.764 -31.567)" fill="#002e6d"></path><path id="Path_30403" data-name="Path 30403" d="M281.522,92.458a6.922,6.922,0,1,1-6.922-6.922,6.922,6.922,0,0,1,6.922,6.922" transform="translate(-115.855 -37.021)" fill="#171717"></path><path id="Path_30404" data-name="Path 30404" d="M280.869,94.562A4.165,4.165,0,1,1,276.7,90.4a4.164,4.164,0,0,1,4.164,4.164" transform="translate(-117.959 -39.126)" fill="#fff"></path><path id="Path_30405" data-name="Path 30405" d="M280.28,96.462a1.674,1.674,0,1,1-1.674-1.674,1.675,1.675,0,0,1,1.674,1.674" transform="translate(-119.86 -41.026)" fill="#171717"></path><path id="Path_30406" data-name="Path 30406" d="M322.259,92.458a6.922,6.922,0,1,1-6.922-6.922,6.922,6.922,0,0,1,6.922,6.922" transform="translate(-133.487 -37.021)" fill="#171717"></path><path id="Path_30407" data-name="Path 30407" d="M321.606,94.562a4.165,4.165,0,1,1-4.164-4.164,4.164,4.164,0,0,1,4.164,4.164" transform="translate(-135.591 -39.126)" fill="#fff"></path><path id="Path_30408" data-name="Path 30408" d="M321.017,96.462a1.674,1.674,0,1,1-1.674-1.674,1.675,1.675,0,0,1,1.674,1.674" transform="translate(-137.491 -41.026)" fill="#171717"></path><path id="Path_30409" data-name="Path 30409" d="M205.231,71.9h-22.4a2.559,2.559,0,0,0-2.559,2.559V81.16a2.559,2.559,0,0,0,2.559,2.559h22.4a2.559,2.559,0,0,0,2.559-2.559V74.455a2.559,2.559,0,0,0-2.559-2.559" transform="translate(-78.026 -31.118)" fill="#fff"></path><path id="Path_30410" data-name="Path 30410" d="M205.014,83.787h-22.4a2.846,2.846,0,0,1-2.843-2.843V74.239a2.846,2.846,0,0,1,2.843-2.843h22.4a2.846,2.846,0,0,1,2.843,2.843v6.705a2.846,2.846,0,0,1-2.843,2.843m-22.4-11.824a2.278,2.278,0,0,0-2.276,2.276v6.705a2.278,2.278,0,0,0,2.276,2.276h22.4a2.278,2.278,0,0,0,2.276-2.276V74.239a2.278,2.278,0,0,0-2.276-2.276Z" transform="translate(-77.809 -30.901)" fill="#002e6d"></path><path id="Path_30411" data-name="Path 30411" d="M362.5,92.458a6.922,6.922,0,1,1-6.922-6.922,6.922,6.922,0,0,1,6.922,6.922" transform="translate(-150.903 -37.021)" fill="#171717"></path><path id="Path_30412" data-name="Path 30412" d="M361.845,94.562a4.165,4.165,0,1,1-4.164-4.164,4.164,4.164,0,0,1,4.164,4.164" transform="translate(-153.007 -39.126)" fill="#fff"></path><path id="Path_30413" data-name="Path 30413" d="M361.256,96.462a1.674,1.674,0,1,1-1.674-1.674,1.675,1.675,0,0,1,1.674,1.674" transform="translate(-154.907 -41.026)" fill="#171717"></path><path id="Rectangle_22872" data-name="Rectangle 22872" d="M2.11,0h187.9a2.11,2.11,0,0,1,2.11,2.11V42.893A2.109,2.109,0,0,1,190.007,45H2.109A2.109,2.109,0,0,1,0,42.893V2.11A2.11,2.11,0,0,1,2.11,0Z" transform="translate(39.634 0.283)" fill="#fff"></path><path id="Path_30414" data-name="Path 30414" d="M260.581.567a.914.914,0,0,1,.913.913V44.09a.914.914,0,0,1-.913.913H70.858a.914.914,0,0,1-.913-.913V1.48a.914.914,0,0,1,.913-.913Zm0-.567H70.858a1.48,1.48,0,0,0-1.48,1.48V44.09a1.48,1.48,0,0,0,1.48,1.48H260.581a1.48,1.48,0,0,0,1.48-1.48V1.48A1.48,1.48,0,0,0,260.581,0" transform="translate(-30.028 0)" fill="#002e6d"></path><rect id="Rectangle_22873" data-name="Rectangle 22873" width="186.464" height="0.567" transform="translate(41.533 42.481)" fill="#cbd8e9"></rect><path id="Path_30415" data-name="Path 30415" d="M406.436,42.185h-1.989V5.826h1.989v.567h-1.421V41.618h1.421Z" transform="translate(-175.051 -2.522)" fill="#cbd8e9"></path></g></svg> 