<?xml version="1.0" encoding="UTF-8"?> <svg xmlns="http://www.w3.org/2000/svg" xmlns:xlink="http://www.w3.org/1999/xlink" id="Group_21987" data-name="Group 21987" width="142.533" height="67.267" viewBox="0 0 142.533 67.267"><defs><clipPath id="clip-path"><rect id="Rectangle_22937" data-name="Rectangle 22937" width="142.533" height="67.267" fill="none"></rect></clipPath></defs><g id="Group_21986" data-name="Group 21986" transform="translate(0 0)" clip-path="url(#clip-path)"><path id="Rectangle_22935" data-name="Rectangle 22935" d="M1.257,0H97.518a1.257,1.257,0,0,1,1.257,1.257V50.024a1.257,1.257,0,0,1-1.257,1.257H1.256A1.256,1.256,0,0,1,0,50.025V1.257A1.257,1.257,0,0,1,1.257,0Z" transform="translate(43.435 0.323)" fill="#fff"></path><path id="Path_30583" data-name="Path 30583" d="M164.99.646a.489.489,0,0,1,.489.489V50.792a.489.489,0,0,1-.489.489H67.839a.489.489,0,0,1-.489-.489V1.135a.489.489,0,0,1,.489-.489Zm0-.646H67.839A1.135,1.135,0,0,0,66.7,1.135V50.792a1.135,1.135,0,0,0,1.135,1.135H164.99a1.135,1.135,0,0,0,1.135-1.135V1.135A1.135,1.135,0,0,0,164.99,0" transform="translate(-23.592 0)" fill="#002e6d"></path><rect id="Rectangle_22936" data-name="Rectangle 22936" width="95.748" height="0.646" transform="translate(44.566 48.408)" fill="#cbd8e9"></rect><path id="Path_30584" data-name="Path 30584" d="M217.768,47.257h-1.941V5.825h1.941v.646h-1.295v40.14h1.295Z" transform="translate(-76.334 -2.06)" fill="#cbd8e9"></path><path id="Path_30585" data-name="Path 30585" d="M12.56,76.464l21.264.546,1.26,2c.121,0,62.927-.348,63.468-.334a5.016,5.016,0,0,1,3.072.889,2.669,2.669,0,0,1,1.273,2.146V86.53H9.814Z" transform="translate(-3.471 -27.044)" fill="#3767a9"></path><path id="Path_30586" data-name="Path 30586" d="M37.469,87.557a7.888,7.888,0,1,1-7.888-7.888,7.888,7.888,0,0,1,7.888,7.888" transform="translate(-7.672 -28.177)" fill="#171717"></path><path id="Path_30587" data-name="Path 30587" d="M36.047,89.276A4.746,4.746,0,1,1,31.3,84.531a4.746,4.746,0,0,1,4.746,4.745" transform="translate(-9.392 -29.897)" fill="#fff"></path><path id="Path_30588" data-name="Path 30588" d="M34.762,90.829a1.908,1.908,0,1,1-1.908-1.908,1.908,1.908,0,0,1,1.908,1.908" transform="translate(-10.945 -31.45)" fill="#171717"></path><path id="Path_30589" data-name="Path 30589" d="M1.371,66.664V38.043l5.31-16.864a7.452,7.452,0,0,1,7.109-5.214H30.81l4.105,49.413h-3.97l-.068-.723a8.008,8.008,0,0,0-8.246-8.288l-.511-.026a8.3,8.3,0,0,0-8.28,8.416v2.521Z" transform="translate(-0.485 -5.646)" fill="#002e6d"></path><path id="Path_30590" data-name="Path 30590" d="M54.7,14.178l2.648,35.679a2.1,2.1,0,0,1-1.939,2.25l-5.393.4a2.1,2.1,0,0,1-2.25-1.94L45.081,14.443a1.393,1.393,0,0,1,1.227-1.487l6.049-.709A2.1,2.1,0,0,1,54.7,14.178" transform="translate(-15.943 -4.326)" fill="#002e6d"></path><path id="Path_30591" data-name="Path 30591" d="M51.416,88l103.516-.047V79.91l-103.593.181Z" transform="translate(-18.158 -28.263)" fill="#002e6d"></path><path id="Path_30592" data-name="Path 30592" d="M2.487,67.605H.783A.783.783,0,0,1,0,66.821V62.665a.783.783,0,0,1,.783-.784h1.7a.784.784,0,0,1,.784.784v4.156a.784.784,0,0,1-.784.784" transform="translate(0 -21.886)" fill="#002e6d"></path><path id="Path_30593" data-name="Path 30593" d="M6.425,30.219,4.634,29.185a.951.951,0,0,1-.348-1.3l2.523-4.37a.951.951,0,0,1,1.3-.348L9.9,24.2a.951.951,0,0,1,.348,1.3L7.725,29.87a.952.952,0,0,1-1.3.348" transform="translate(-1.471 -8.148)" fill="#002e6d"></path><path id="Path_30594" data-name="Path 30594" d="M2.385,85.59H1.818A1.818,1.818,0,0,1,0,83.772V73.733a.886.886,0,0,1,.885-.886h1.5a.886.886,0,0,1,.886.886V84.7a.886.886,0,0,1-.886.886" transform="translate(0 -25.765)" fill="#002e6d"></path><path id="Path_30595" data-name="Path 30595" d="M22.194,43.35H8.929a.679.679,0,0,1-.653-.866l1.865-6.545c.613-2.095,1.32-2.947,2.947-2.947h11.16a.75.75,0,0,1,.75.749v6.806a2.8,2.8,0,0,1-2.8,2.8" transform="translate(-2.917 -11.669)" fill="#fff"></path><path id="Path_30596" data-name="Path 30596" d="M165.6,79.224l7.756-2.888c.48,0,7.673,2.825,7.673,4.621l1.485,7.232h-18.62Z" transform="translate(-57.966 -26.999)" fill="#3767a9"></path><path id="Path_30597" data-name="Path 30597" d="M181.971,87.557a7.888,7.888,0,1,1-7.888-7.888,7.888,7.888,0,0,1,7.888,7.888" transform="translate(-58.78 -28.177)" fill="#171717"></path><path id="Path_30598" data-name="Path 30598" d="M180.548,89.276a4.746,4.746,0,1,1-4.745-4.745,4.745,4.745,0,0,1,4.745,4.745" transform="translate(-60.5 -29.897)" fill="#fff"></path><path id="Path_30599" data-name="Path 30599" d="M179.264,90.829a1.908,1.908,0,1,1-1.908-1.908,1.908,1.908,0,0,1,1.908,1.908" transform="translate(-62.053 -31.45)" fill="#171717"></path><path id="Path_30600" data-name="Path 30600" d="M163.834,87.688a5.021,5.021,0,0,1-.206-1.872,8.723,8.723,0,0,1,17.445,0,5.629,5.629,0,0,1-.279,1.981h2.253a7.055,7.055,0,0,0,.206-1.981,10.9,10.9,0,1,0-21.807,0,6.291,6.291,0,0,0,.133,1.872Z" transform="translate(-57.099 -26.495)" fill="#002e6d"></path></g></svg> 