<?xml version="1.0" encoding="UTF-8"?> <svg xmlns="http://www.w3.org/2000/svg" xmlns:xlink="http://www.w3.org/1999/xlink" id="Group_21990" data-name="Group 21990" width="284.018" height="64.051" viewBox="0 0 284.018 64.051"><defs><clipPath id="clip-path"><rect id="Rectangle_22941" data-name="Rectangle 22941" width="284.018" height="64.051" fill="none"></rect></clipPath></defs><rect id="Rectangle_22938" data-name="Rectangle 22938" width="169.791" height="3.245" transform="translate(90.936 54.249)" fill="#002e6d"></rect><rect id="Rectangle_22939" data-name="Rectangle 22939" width="28.946" height="2.793" transform="translate(127.002 53.126)" fill="#002e6d"></rect><g id="Group_21989" data-name="Group 21989" transform="translate(0 0)"><g id="Group_21988" data-name="Group 21988" clip-path="url(#clip-path)"><path id="Path_30601" data-name="Path 30601" d="M12.2,86.627l18.446.474,1.093,1.732c.1,0,54.588-.3,55.057-.29.223-.023-19.383-.053-18.2.771a2.317,2.317,0,0,1,1.1,1.862v4.183H9.814Z" transform="translate(-4.312 -38.058)" fill="#3767a9"></path><path id="Path_30602" data-name="Path 30602" d="M35.378,96.674a6.843,6.843,0,1,1-6.842-6.842,6.842,6.842,0,0,1,6.842,6.842" transform="translate(-9.53 -39.466)" fill="#171717"></path><path id="Path_30603" data-name="Path 30603" d="M34.789,98.81a4.117,4.117,0,1,1-4.117-4.116,4.117,4.117,0,0,1,4.117,4.116" transform="translate(-11.667 -41.602)" fill="#fff"></path><path id="Path_30604" data-name="Path 30604" d="M34.256,100.739A1.655,1.655,0,1,1,32.6,99.084a1.655,1.655,0,0,1,1.655,1.655" transform="translate(-13.595 -43.53)" fill="#171717"></path><path id="Path_30605" data-name="Path 30605" d="M1.371,70.109V45.28L5.977,30.65a6.464,6.464,0,0,1,6.167-4.523H24.886a2.2,2.2,0,0,1,2.191,2.016L30.47,68.992H27.027l-.059-.627a6.947,6.947,0,0,0-7.153-7.19l-.443-.022a7.2,7.2,0,0,0-7.183,7.3v2.187Z" transform="translate(-0.602 -11.478)" fill="#002e6d"></path><path id="Path_30606" data-name="Path 30606" d="M51.406,94.234l66.04-.06a2.891,2.891,0,0,0,2.89-2.891V86.469a2.892,2.892,0,0,0-2.9-2.892l-66.1.231Z" transform="translate(-22.555 -36.718)" fill="#002e6d"></path><path id="Path_30607" data-name="Path 30607" d="M304.034,90.765c.012,2,.2,3.612,1.7,3.61l56.317-.056c1.426,0,1.757-1.273,1.757-2.841V86.745c0-1.572-.336-2.846-1.766-2.841L305.7,84.12c-1.507.006-1.7,1.651-1.688,3.667Z" transform="translate(-133.563 -36.861)" fill="#002e6d"></path><path id="Path_30608" data-name="Path 30608" d="M2.157,77.01H.68A.68.68,0,0,1,0,76.33V72.724a.68.68,0,0,1,.68-.68H2.157a.68.68,0,0,1,.68.68V76.33a.68.68,0,0,1-.68.68" transform="translate(0 -31.651)" fill="#002e6d"></path><path id="Path_30609" data-name="Path 30609" d="M6.125,39.43l-1.554-.9a.825.825,0,0,1-.3-1.128l2.189-3.791a.825.825,0,0,1,1.128-.3l1.554.9a.825.825,0,0,1,.3,1.128L7.252,39.128a.826.826,0,0,1-1.128.3" transform="translate(-1.827 -14.586)" fill="#002e6d"></path><path id="Path_30610" data-name="Path 30610" d="M2.069,94.065H1.577A1.577,1.577,0,0,1,0,92.488V83.779a.768.768,0,0,1,.768-.769h1.3a.769.769,0,0,1,.769.769V93.3a.769.769,0,0,1-.769.769" transform="translate(0 -36.469)" fill="#002e6d"></path><path id="Path_30611" data-name="Path 30611" d="M20.346,52.14H8.839a.589.589,0,0,1-.567-.751L9.89,45.711c.532-1.817,1.145-2.556,2.556-2.556h9.681a.65.65,0,0,1,.65.65v5.9a2.432,2.432,0,0,1-2.432,2.432" transform="translate(-3.624 -18.959)" fill="#fff"></path><path id="Path_30612" data-name="Path 30612" d="M128.152,89,134.88,86.5c.417,0,6.656,2.451,6.656,4.008l1.288,6.274H126.672Z" transform="translate(-55.651 -38.002)" fill="#3767a9"></path><path id="Path_30613" data-name="Path 30613" d="M142.66,96.674a6.843,6.843,0,1,1-6.842-6.842,6.842,6.842,0,0,1,6.842,6.842" transform="translate(-56.662 -39.466)" fill="#171717"></path><path id="Path_30614" data-name="Path 30614" d="M142.07,98.81a4.117,4.117,0,1,1-4.116-4.116,4.116,4.116,0,0,1,4.116,4.116" transform="translate(-58.798 -41.602)" fill="#fff"></path><path id="Path_30615" data-name="Path 30615" d="M141.537,100.739a1.655,1.655,0,1,1-1.655-1.655,1.655,1.655,0,0,1,1.655,1.655" transform="translate(-60.727 -43.53)" fill="#171717"></path><path id="Path_30616" data-name="Path 30616" d="M126.3,96.158a4.356,4.356,0,0,1-.178-1.624,7.567,7.567,0,1,1,15.134,0,4.883,4.883,0,0,1-.242,1.718h1.954a6.12,6.12,0,0,0,.179-1.718,9.459,9.459,0,1,0-18.917,0,5.458,5.458,0,0,0,.115,1.624Z" transform="translate(-54.573 -37.376)" fill="#002e6d"></path><path id="Path_30617" data-name="Path 30617" d="M321.173,89,327.9,86.5c.417,0,6.656,2.451,6.656,4.008l1.288,6.274H319.693Z" transform="translate(-140.45 -38.002)" fill="#3767a9"></path><path id="Path_30618" data-name="Path 30618" d="M335.681,96.674a6.843,6.843,0,1,1-6.842-6.842,6.842,6.842,0,0,1,6.842,6.842" transform="translate(-141.462 -39.466)" fill="#171717"></path><path id="Path_30619" data-name="Path 30619" d="M335.091,98.81a4.117,4.117,0,1,1-4.116-4.116,4.116,4.116,0,0,1,4.116,4.116" transform="translate(-143.598 -41.602)" fill="#fff"></path><path id="Path_30620" data-name="Path 30620" d="M334.559,100.739a1.655,1.655,0,1,1-1.655-1.655,1.655,1.655,0,0,1,1.655,1.655" transform="translate(-145.527 -43.53)" fill="#171717"></path><path id="Path_30621" data-name="Path 30621" d="M319.318,96.158a4.355,4.355,0,0,1-.178-1.624,7.567,7.567,0,1,1,15.134,0,4.87,4.87,0,0,1-.242,1.718h1.955a6.12,6.12,0,0,0,.179-1.718,9.459,9.459,0,1,0-18.917,0,5.458,5.458,0,0,0,.115,1.624Z" transform="translate(-139.374 -37.376)" fill="#002e6d"></path><path id="Path_30622" data-name="Path 30622" d="M364.577,89,371.3,86.5c.417,0,6.656,2.451,6.656,4.008l1.288,6.274H363.1Z" transform="translate(-159.519 -38.002)" fill="#3767a9"></path><path id="Path_30623" data-name="Path 30623" d="M379.085,96.674a6.843,6.843,0,1,1-6.842-6.842,6.842,6.842,0,0,1,6.842,6.842" transform="translate(-160.531 -39.466)" fill="#171717"></path><path id="Path_30624" data-name="Path 30624" d="M378.5,98.81a4.117,4.117,0,1,1-4.116-4.116A4.116,4.116,0,0,1,378.5,98.81" transform="translate(-162.667 -41.602)" fill="#fff"></path><path id="Path_30625" data-name="Path 30625" d="M377.963,100.739a1.655,1.655,0,1,1-1.655-1.655,1.655,1.655,0,0,1,1.655,1.655" transform="translate(-164.596 -43.53)" fill="#171717"></path><path id="Path_30626" data-name="Path 30626" d="M362.722,96.158a4.355,4.355,0,0,1-.178-1.624,7.567,7.567,0,1,1,15.134,0,4.883,4.883,0,0,1-.242,1.718h1.954a6.12,6.12,0,0,0,.179-1.718,9.459,9.459,0,1,0-18.917,0,5.458,5.458,0,0,0,.115,1.624Z" transform="translate(-158.442 -37.376)" fill="#002e6d"></path><path id="Path_30627" data-name="Path 30627" d="M102.1,25.413l-88.62-6.4.234-1.494L52.79,19.095s28.608,1.57,49.545,3.082l-.234,3.236" transform="translate(-5.923 -7.697)" fill="#002e6d"></path><rect id="Rectangle_22940" data-name="Rectangle 22940" width="20.462" height="1.876" transform="matrix(0.969, -0.245, 0.245, 0.969, 94.563, 15.708)" fill="#002e6d"></rect><path id="Path_30628" data-name="Path 30628" d="M288.572,86.215l-22.523,6.614-.528-1.8,22.522-6.614a.938.938,0,1,1,.529,1.8" transform="translate(-116.651 -37.069)" fill="#002e6d"></path><path id="Path_30629" data-name="Path 30629" d="M407.027,85.846l22.233,7.528.6-1.777-22.233-7.528a.938.938,0,1,0-.6,1.777" transform="translate(-178.539 -36.912)" fill="#002e6d"></path><path id="Path_30630" data-name="Path 30630" d="M464.063,98.643l23.388,2.774.094-1.017-23.194-3.611a.938.938,0,0,0-.289,1.854" transform="translate(-203.528 -42.517)" fill="#002e6d"></path><path id="Path_30631" data-name="Path 30631" d="M176.852,86.209l34.515,8.029.459-2.326-34.719-6.845Z" transform="translate(-77.696 -37.373)" fill="#002e6d"></path><path id="Path_30632" data-name="Path 30632" d="M355.486,32.79,200.765,21.618,201,18.382c36.176,2.612,80.728,5.887,80.728,5.887l73.866,7.587c-.078,1.079-.028-.145-.106.934" transform="translate(-88.202 -8.076)" fill="#002e6d"></path><path id="Path_30633" data-name="Path 30633" d="M62.814,49.747v1.128h5.171v3.384H62.814v.972h5.171v3.384H62.814v.972h5.171V62.97H62.814v.972h5.171v3.384H62.814v.47h6.3V49.747Z" transform="translate(-27.596 -21.855)" fill="#002e6d"></path><path id="Path_30634" data-name="Path 30634" d="M116.567,44.258l-11.4-39.411a2.956,2.956,0,0,0-2.74-1.979L62.729.505a3.266,3.266,0,0,0-2.613,1.009L50.327,13.1a2.373,2.373,0,0,0-.625,1.838l2.571,32.416A2.9,2.9,0,0,0,55.3,49.735h50.415a3.11,3.11,0,0,1,2.744,1.493l1.35,2.442a3.031,3.031,0,0,0,2.267,1.461l1.162.159a2.922,2.922,0,0,0,3.517-2.615l-.1-7.812a2.266,2.266,0,0,0-.09-.6m-12.787,1.408h-41.8a2.911,2.911,0,0,1-3.022-2.337L56.3,15.628a2.352,2.352,0,0,1,.533-1.785l6.29-8.518a3.24,3.24,0,0,1,2.712-1.108L94.971,6.065a2.948,2.948,0,0,1,2.732,2l9.462,33.851a2.33,2.33,0,0,1-.482,2.135l-.431.52a3.213,3.213,0,0,1-2.474,1.1" transform="translate(-21.83 -0.219)" fill="#cbd8e9"></path><path id="Path_30635" data-name="Path 30635" d="M113.494,55.383a3.745,3.745,0,0,1-.512-.035l-1.163-.16a3.31,3.31,0,0,1-2.474-1.6l-1.35-2.442a2.843,2.843,0,0,0-2.5-1.349H55.081a3.165,3.165,0,0,1-3.307-2.635L49.2,14.737A2.638,2.638,0,0,1,49.9,12.69L59.683,1.113A3.559,3.559,0,0,1,62.526.006L102.22,2.368a3.228,3.228,0,0,1,2.993,2.182l11.4,39.411a2.584,2.584,0,0,1,.1.679l.1,7.812a2.7,2.7,0,0,1-.957,2.069,3.591,3.591,0,0,1-2.367.862M62.3.56a2.945,2.945,0,0,0-2.192.922L50.321,13.058a2.094,2.094,0,0,0-.56,1.628l2.571,32.423a2.61,2.61,0,0,0,2.749,2.126H105.5a3.409,3.409,0,0,1,2.989,1.638l1.35,2.443a2.748,2.748,0,0,0,2.06,1.318l1.163.159a3.086,3.086,0,0,0,2.432-.692,2.146,2.146,0,0,0,.767-1.642l-.1-7.811a2.008,2.008,0,0,0-.079-.531h0L104.674,4.7a2.668,2.668,0,0,0-2.487-1.777L62.493.566c-.066,0-.131-.006-.2-.006M103.56,45.726h-41.8a3.185,3.185,0,0,1-3.3-2.582L55.8,15.436a2.619,2.619,0,0,1,.595-1.989L62.681,4.94a3.535,3.535,0,0,1,2.955-1.221L94.77,5.566a3.216,3.216,0,0,1,2.984,2.2l9.462,33.851a2.607,2.607,0,0,1-.536,2.39l-.431.52a3.5,3.5,0,0,1-2.69,1.2M65.4,4.271a2.944,2.944,0,0,0-2.275,1.012l-6.282,8.508a2.081,2.081,0,0,0-.48,1.583l2.655,27.708a2.627,2.627,0,0,0,2.743,2.083h41.8a2.939,2.939,0,0,0,2.258-1l.431-.52a2.051,2.051,0,0,0,.428-1.88L97.214,7.92a2.659,2.659,0,0,0-2.48-1.794L65.6,4.278c-.068,0-.135-.007-.2-.007" transform="translate(-21.61 0)" fill="#002e6d"></path><path id="Path_30636" data-name="Path 30636" d="M424.036,72.077l5.618-.45a1.409,1.409,0,0,0,1.235-1.615l-5.114-40.02a1.331,1.331,0,0,0-2.376-.72l-3.275,4.171a1.483,1.483,0,0,0-.306,1.027l2.77,36.3a1.375,1.375,0,0,0,1.448,1.309" transform="translate(-184.437 -12.633)" fill="#cbd8e9"></path><path id="Path_30637" data-name="Path 30637" d="M423.712,72.142a1.578,1.578,0,0,1-1.029-.385,1.719,1.719,0,0,1-.594-1.187l-2.77-36.3a1.751,1.751,0,0,1,.367-1.221l3.273-4.171a1.575,1.575,0,0,1,1.675-.567,1.658,1.658,0,0,1,1.2,1.425l5.114,40.019a1.766,1.766,0,0,1-.375,1.334,1.593,1.593,0,0,1-1.117.6l-5.618.45c-.042,0-.085.005-.126.005m.5-43.328a1.02,1.02,0,0,0-.807.41L420.126,33.4a1.193,1.193,0,0,0-.248.833l2.77,36.3a1.161,1.161,0,0,0,.4.8,1.025,1.025,0,0,0,.746.247l5.618-.45a1.039,1.039,0,0,0,.727-.391,1.2,1.2,0,0,0,.253-.909l-5.114-40.019a1.1,1.1,0,0,0-.794-.956,1.037,1.037,0,0,0-.277-.038" transform="translate(-184.216 -12.413)" fill="#002e6d"></path><path id="Path_30638" data-name="Path 30638" d="M270.163,67.32l5.618-.541a1.661,1.661,0,0,0,1.236-1.943L271.9,19.417c-.158-1.482-1.626-2.018-2.377-.867l-3.275,2.306a2.045,2.045,0,0,0-.307,1.235l2.77,43.654c.059.942.706,1.646,1.448,1.574" transform="translate(-116.836 -7.876)" fill="#cbd8e9"></path><path id="Path_30639" data-name="Path 30639" d="M269.842,67.385a1.438,1.438,0,0,1-.934-.357,2.125,2.125,0,0,1-.693-1.486l-2.77-43.654a2.316,2.316,0,0,1,.352-1.406l.073-.076,3.232-2.276a1.454,1.454,0,0,1,1.556-.666,1.855,1.855,0,0,1,1.3,1.7l5.114,45.417a2.275,2.275,0,0,1-.464,1.676,1.519,1.519,0,0,1-1.024.577l-5.618.542c-.043,0-.085.006-.128.006m-3.6-46.552a1.788,1.788,0,0,0-.234,1.02l2.77,43.655a1.557,1.557,0,0,0,.5,1.093.828.828,0,0,0,.644.219l5.618-.541a.966.966,0,0,0,.644-.372,1.739,1.739,0,0,0,.34-1.262l-5.114-45.417a1.309,1.309,0,0,0-.878-1.217.914.914,0,0,0-.986.473l-.073.076Z" transform="translate(-116.616 -7.656)" fill="#002e6d"></path></g></g></svg> 