<?xml version="1.0" encoding="UTF-8"?> <svg xmlns="http://www.w3.org/2000/svg" xmlns:xlink="http://www.w3.org/1999/xlink" id="Group_21974" data-name="Group 21974" width="252.029" height="64.051" viewBox="0 0 252.029 64.051"><defs><clipPath id="clip-path"><rect id="Rectangle_22883" data-name="Rectangle 22883" width="252.029" height="64.051" fill="none"></rect></clipPath></defs><g id="Group_21973" data-name="Group 21973" transform="translate(0 0)" clip-path="url(#clip-path)"><path id="Path_30416" data-name="Path 30416" d="M384.8,88.712H320.648a3.593,3.593,0,1,0,0,7.186H384.8a3.593,3.593,0,1,0,0-7.186" transform="translate(-137.125 -38.368)" fill="#3767a9"></path><path id="Path_30417" data-name="Path 30417" d="M8.33,84.534H87.089A3.814,3.814,0,0,1,90.9,88.349v6.058H9.172Z" transform="translate(-3.603 -36.561)" fill="#3767a9"></path><path id="Path_30418" data-name="Path 30418" d="M95.481,81.213H80.343a1.107,1.107,0,0,0-1.107,1.107v1.017a1.107,1.107,0,0,0,1.107,1.107H95.481a1.108,1.108,0,0,0,1.107-1.107V82.32a1.107,1.107,0,0,0-1.107-1.107" transform="translate(-34.269 -35.124)" fill="#3767a9"></path><path id="Path_30419" data-name="Path 30419" d="M131.9,82.189l-14.616-7.6a.44.44,0,0,0-.593.187L115.6,76.864a.44.44,0,0,0,.187.593l14.616,7.6a.44.44,0,0,0,.593-.187l1.084-2.087a.439.439,0,0,0-.187-.593" transform="translate(-49.977 -32.239)" fill="#3767a9"></path><path id="Path_30420" data-name="Path 30420" d="M73.847,98.558H55.537a.868.868,0,0,0-.868.868v1.5a.868.868,0,0,0,.868.868H72.351a2.364,2.364,0,0,0,2.364-2.364.868.868,0,0,0-.868-.868" transform="translate(-23.644 -42.626)" fill="#3767a9"></path><path id="Path_30421" data-name="Path 30421" d="M102.029,98.083H95.887a.519.519,0,0,0-.519.519V100.8a.519.519,0,0,0,.519.519h6.142a.52.52,0,0,0,.519-.519V98.6a.52.52,0,0,0-.519-.519" transform="translate(-41.246 -42.421)" fill="#3767a9"></path><path id="Path_30422" data-name="Path 30422" d="M156.653,96.707h-5.984v-7.27h5.984a2.094,2.094,0,0,1,2.094,2.095v3.082a2.094,2.094,0,0,1-2.094,2.094" transform="translate(-65.164 -38.681)" fill="#3767a9"></path><path id="Path_30423" data-name="Path 30423" d="M35.545,95.383a6.926,6.926,0,1,1-6.926-6.926,6.926,6.926,0,0,1,6.926,6.926" transform="translate(-9.382 -38.257)" fill="#171717"></path><path id="Path_30424" data-name="Path 30424" d="M34.89,97.486a4.167,4.167,0,1,1-4.167-4.167,4.167,4.167,0,0,1,4.167,4.167" transform="translate(-11.485 -40.36)" fill="#fff"></path><path id="Path_30425" data-name="Path 30425" d="M34.3,99.384a1.675,1.675,0,1,1-1.675-1.675A1.676,1.676,0,0,1,34.3,99.384" transform="translate(-13.384 -42.259)" fill="#171717"></path><path id="Path_30426" data-name="Path 30426" d="M1.371,69.27V44.138L6.033,29.331a6.543,6.543,0,0,1,6.242-4.579H27.22l3.59,44.563H27.325L27.28,67.5a7.032,7.032,0,0,0-7.24-7.278l-.448-.023a7.286,7.286,0,0,0-7.27,7.39v2.214Z" transform="translate(-0.593 -10.705)" fill="#002e6d"></path><path id="Path_30427" data-name="Path 30427" d="M53.523,22.729l2.325,31.328a1.843,1.843,0,0,1-1.7,1.975l-4.735.352a1.845,1.845,0,0,1-1.976-1.7L45.08,22.962a1.223,1.223,0,0,1,1.078-1.306l5.311-.623a1.845,1.845,0,0,1,2.054,1.7" transform="translate(-19.496 -9.091)" fill="#002e6d"></path><path id="Path_30428" data-name="Path 30428" d="M142.09,95.383a6.926,6.926,0,1,1-6.926-6.926,6.926,6.926,0,0,1,6.926,6.926" transform="translate(-55.463 -38.257)" fill="#171717"></path><path id="Path_30429" data-name="Path 30429" d="M141.434,97.486a4.167,4.167,0,1,1-4.167-4.167,4.167,4.167,0,0,1,4.167,4.167" transform="translate(-57.565 -40.36)" fill="#fff"></path><path id="Path_30430" data-name="Path 30430" d="M140.841,99.384a1.675,1.675,0,1,1-1.675-1.675,1.676,1.676,0,0,1,1.675,1.675" transform="translate(-59.464 -42.259)" fill="#171717"></path><rect id="Rectangle_22875" data-name="Rectangle 22875" width="46.355" height="1.94" transform="translate(28.721 48.632)" fill="#002e6d"></rect><path id="Path_30431" data-name="Path 30431" d="M92.339,94.1,48.68,94.066V88.172l45.833.132Z" transform="translate(-21.054 -38.134)" fill="#002e6d"></path><rect id="Rectangle_22876" data-name="Rectangle 22876" width="42.873" height="0.808" transform="translate(28.856 55.363)" fill="#002e6d"></rect><path id="Path_30432" data-name="Path 30432" d="M2.184,75.7H.688A.688.688,0,0,1,0,75.007v-3.65a.688.688,0,0,1,.688-.688h1.5a.688.688,0,0,1,.688.688v3.65a.688.688,0,0,1-.688.688" transform="translate(0 -30.564)" fill="#002e6d"></path><path id="Path_30433" data-name="Path 30433" d="M6.149,38.131l-1.573-.908a.835.835,0,0,1-.306-1.141l2.216-3.837a.835.835,0,0,1,1.141-.306l1.573.908a.835.835,0,0,1,.306,1.141L7.29,37.825a.836.836,0,0,1-1.141.306" transform="translate(-1.798 -13.765)" fill="#002e6d"></path><path id="Path_30434" data-name="Path 30434" d="M2.094,92.824H1.6a1.6,1.6,0,0,1-1.6-1.6V82.413a.778.778,0,0,1,.777-.778H2.094a.778.778,0,0,1,.778.778v9.633a.778.778,0,0,1-.778.778" transform="translate(0 -35.307)" fill="#002e6d"></path><path id="Path_30435" data-name="Path 30435" d="M20.493,50.875H8.846a.6.6,0,0,1-.574-.76L9.91,44.367c.539-1.839,1.159-2.587,2.587-2.587h9.8a.658.658,0,0,1,.658.658v5.976a2.461,2.461,0,0,1-2.461,2.461" transform="translate(-3.568 -18.07)" fill="#fff"></path><path id="Path_30436" data-name="Path 30436" d="M125.722,96.393a15.773,15.773,0,0,1-.313-3.119,7.659,7.659,0,1,1,15.317,0,15.773,15.773,0,0,1-.313,3.119h1.978a19.8,19.8,0,0,0,.25-3.119,9.573,9.573,0,1,0-19.147,0,19.8,19.8,0,0,0,.25,3.119Z" transform="translate(-53.411 -36.2)" fill="#002e6d"></path><path id="Path_30437" data-name="Path 30437" d="M273.747,58.217a6.53,6.53,0,0,0-12.973,0h-8.109a6.531,6.531,0,0,0-12.974,0h-7.818a6.531,6.531,0,0,0-12.974,0H131.227V45.811l-.284-.284h-58.8a1.271,1.271,0,0,1-1.27-1.27V1.77A1.271,1.271,0,0,1,72.147.5H281.131a1.271,1.271,0,0,1,1.27,1.27V58.217Z" transform="translate(-30.654 -0.216)" fill="#fff"></path><path id="Path_30438" data-name="Path 30438" d="M280.913.568a.987.987,0,0,1,.986.986V57.717h-8.123a6.812,6.812,0,0,0-13.466,0h-7.616a6.812,6.812,0,0,0-13.466,0H231.9a6.812,6.812,0,0,0-13.465,0H131.293V45.595l-.568-.568H71.93a.987.987,0,0,1-.986-.986V1.553A.987.987,0,0,1,71.93.568Zm0-.568H71.93a1.553,1.553,0,0,0-1.553,1.553V44.042a1.553,1.553,0,0,0,1.553,1.553h58.8V58.284h88.212a6.249,6.249,0,0,1,12.462,0h8.331a6.249,6.249,0,0,1,12.461,0h8.621a6.249,6.249,0,0,1,12.461,0h9.193V1.553A1.553,1.553,0,0,0,280.913,0" transform="translate(-30.438 0)" fill="#002e6d"></path><rect id="Rectangle_22877" data-name="Rectangle 22877" width="61.147" height="0.568" transform="translate(41.846 42.868)" fill="#cbd8e9"></rect><rect id="Rectangle_22878" data-name="Rectangle 22878" width="84.353" height="0.568" transform="translate(102.993 55.111)" fill="#cbd8e9"></rect><rect id="Rectangle_22879" data-name="Rectangle 22879" width="6.737" height="0.568" transform="translate(201.763 55.111)" fill="#cbd8e9"></rect><rect id="Rectangle_22880" data-name="Rectangle 22880" width="6.737" height="0.568" transform="translate(222.7 55.111)" fill="#cbd8e9"></rect><rect id="Rectangle_22881" data-name="Rectangle 22881" width="6.737" height="0.568" transform="translate(243.782 55.111)" fill="#cbd8e9"></rect><rect id="Rectangle_22882" data-name="Rectangle 22882" width="0.568" height="12.574" transform="translate(102.611 43.175)" fill="#cbd8e9"></rect><path id="Path_30439" data-name="Path 30439" d="M440.759,54.713H438.6V5.826h2.16v.568h-1.592V54.145h1.592Z" transform="translate(-189.693 -2.52)" fill="#cbd8e9"></path><path id="Path_30440" data-name="Path 30440" d="M418.292,99.571a5.267,5.267,0,1,1-5.267-5.267,5.267,5.267,0,0,1,5.267,5.267" transform="translate(-176.354 -40.786)" fill="#171717"></path><path id="Path_30441" data-name="Path 30441" d="M417.793,101.17A3.169,3.169,0,1,1,414.625,98a3.168,3.168,0,0,1,3.168,3.168" transform="translate(-177.953 -42.386)" fill="#fff"></path><path id="Path_30442" data-name="Path 30442" d="M415.637,104.023a1.841,1.841,0,1,1,1.841-1.842,1.844,1.844,0,0,1-1.841,1.842m0-2.548a.706.706,0,1,0,.706.706.707.707,0,0,0-.706-.706" transform="translate(-178.965 -43.397)" fill="#171717"></path><path id="Path_30443" data-name="Path 30443" d="M381.143,99.571a5.267,5.267,0,1,1-5.267-5.267,5.267,5.267,0,0,1,5.267,5.267" transform="translate(-160.288 -40.786)" fill="#171717"></path><path id="Path_30444" data-name="Path 30444" d="M380.644,101.17A3.169,3.169,0,1,1,377.476,98a3.168,3.168,0,0,1,3.168,3.168" transform="translate(-161.887 -42.386)" fill="#fff"></path><path id="Path_30445" data-name="Path 30445" d="M378.488,104.023a1.841,1.841,0,1,1,1.841-1.842,1.844,1.844,0,0,1-1.841,1.842m0-2.548a.706.706,0,1,0,.706.706.707.707,0,0,0-.706-.706" transform="translate(-162.898 -43.397)" fill="#171717"></path><path id="Path_30446" data-name="Path 30446" d="M344.505,99.571a5.267,5.267,0,1,1-5.267-5.267,5.267,5.267,0,0,1,5.267,5.267" transform="translate(-144.442 -40.786)" fill="#171717"></path><path id="Path_30447" data-name="Path 30447" d="M344.006,101.17A3.169,3.169,0,1,1,340.838,98a3.168,3.168,0,0,1,3.168,3.168" transform="translate(-146.041 -42.386)" fill="#fff"></path><path id="Path_30448" data-name="Path 30448" d="M341.85,104.023a1.841,1.841,0,1,1,1.841-1.842,1.844,1.844,0,0,1-1.841,1.842m0-2.548a.706.706,0,1,0,.706.706.707.707,0,0,0-.706-.706" transform="translate(-147.052 -43.397)" fill="#171717"></path></g></svg> 