<?xml version="1.0" encoding="UTF-8"?> <svg xmlns="http://www.w3.org/2000/svg" xmlns:xlink="http://www.w3.org/1999/xlink" id="Group_21985" data-name="Group 21985" width="262.038" height="60.666" viewBox="0 0 262.038 60.666"><defs><clipPath id="clip-path"><rect id="Rectangle_22902" data-name="Rectangle 22902" width="262.038" height="60.666" fill="none"></rect></clipPath></defs><g id="Group_21975" data-name="Group 21975" clip-path="url(#clip-path)"><path id="Path_30449" data-name="Path 30449" d="M129.992,78.652V70.4a.506.506,0,0,0-.507-.507h-7a.506.506,0,0,0-.506.507v8.257a.506.506,0,0,0,.506.507h7a.506.506,0,0,0,.507-.507" transform="translate(-52.149 -29.88)" fill="#3767a9"></path><rect id="Rectangle_22884" data-name="Rectangle 22884" width="8.017" height="9.27" rx="0.885" transform="translate(69.826 40.009)" fill="none" stroke="#3767a9"></rect><path id="Path_30450" data-name="Path 30450" d="M204.7,92.468V75.3a.273.273,0,0,0-.273-.273h-.672a.273.273,0,0,0-.273.273V92.468a.273.273,0,0,0,.273.273h.672a.273.273,0,0,0,.273-.273" transform="translate(-86.995 -32.075)" fill="#3767a9"></path><path id="Path_30451" data-name="Path 30451" d="M205.068,105.055h-4.684a.094.094,0,0,0-.094.094v.338a.094.094,0,0,0,.094.094h4.684a.094.094,0,0,0,.094-.094v-.338a.094.094,0,0,0-.094-.094" transform="translate(-85.631 -44.915)" fill="#3767a9"></path><path id="Path_30452" data-name="Path 30452" d="M426.979,67.355H411.352a1.784,1.784,0,0,0-1.784,1.784v6.168a1.784,1.784,0,0,0,1.784,1.784h15.627a1.784,1.784,0,0,0,1.784-1.784V69.139a1.784,1.784,0,0,0-1.784-1.784" transform="translate(-175.105 -28.797)" fill="#3767a9"></path><rect id="Rectangle_22885" data-name="Rectangle 22885" width="71.965" height="7.249" transform="translate(154.973 45.304)" fill="#3767a9"></rect><path id="Path_30453" data-name="Path 30453" d="M341.556,68.667H305.893v1.349l-59.244.072v-1.47H185.992V71.6L212.9,82.8h32.551c.349.007.7.015,1.046.015h.1V82.8h.056V81.667a7.775,7.775,0,0,1,15.4.343h.016v.8h6.225v-.8h.016a7.771,7.771,0,0,1,15.439,0h.016v.8h5.96v-.8h.015a7.771,7.771,0,0,1,15.439,0h.016v.8h1.488l.236-.237V73.49h32.339a2.3,2.3,0,0,0,2.3-2.3Z" transform="translate(-79.518 -29.337)" fill="#002e6d"></path><path id="Path_30454" data-name="Path 30454" d="M8.254,78.664H83.211a7.58,7.58,0,0,1,7.58,7.58v2.289H9.1Z" transform="translate(-3.529 -33.632)" fill="#3767a9"></path><path id="Path_30455" data-name="Path 30455" d="M129.992,78.652V70.4a.506.506,0,0,0-.507-.507h-7a.506.506,0,0,0-.506.507v8.257a.506.506,0,0,0,.506.507h7a.506.506,0,0,0,.507-.507" transform="translate(-52.149 -29.88)" fill="#3767a9"></path><path id="Path_30456" data-name="Path 30456" d="M73.341,92.56h-18.3a.867.867,0,0,0-.867.867v1.5a.867.867,0,0,0,.867.867H71.845a2.363,2.363,0,0,0,2.363-2.363.867.867,0,0,0-.867-.867" transform="translate(-23.16 -39.573)" fill="#3767a9"></path><path id="Path_30457" data-name="Path 30457" d="M101.157,92.089H95.018a.519.519,0,0,0-.519.519V94.8a.519.519,0,0,0,.519.519h6.139a.519.519,0,0,0,.519-.519V92.608a.519.519,0,0,0-.519-.519" transform="translate(-40.402 -39.371)" fill="#3767a9"></path><path id="Path_30458" data-name="Path 30458" d="M155.279,90.789H149.3V83.522h5.981a2.093,2.093,0,0,1,2.094,2.094V88.7a2.093,2.093,0,0,1-2.094,2.094" transform="translate(-63.83 -35.709)" fill="#3767a9"></path><path id="Path_30459" data-name="Path 30459" d="M35.393,89.761a6.5,6.5,0,1,1-6.5-6.5,6.5,6.5,0,0,1,6.5,6.5" transform="translate(-9.573 -35.597)" fill="#171717"></path><path id="Path_30460" data-name="Path 30460" d="M34.738,91.7a3.911,3.911,0,1,1-3.912-3.912A3.911,3.911,0,0,1,34.738,91.7" transform="translate(-11.507 -37.531)" fill="#fff"></path><path id="Path_30461" data-name="Path 30461" d="M34.145,93.443a1.573,1.573,0,1,1-1.573-1.573,1.573,1.573,0,0,1,1.573,1.573" transform="translate(-13.254 -39.278)" fill="#171717"></path><path id="Path_30462" data-name="Path 30462" d="M1.358,63.924V38.8L6.018,24a6.541,6.541,0,0,1,6.239-4.577H27.2l3.589,44.543H27.3l-.045-1.809a7.029,7.029,0,0,0-7.237-7.274l-.449-.022A7.282,7.282,0,0,0,12.3,62.25v2.213Z" transform="translate(-0.581 -8.305)" fill="#002e6d"></path><path id="Path_30463" data-name="Path 30463" d="M52.547,9.738A1.962,1.962,0,0,0,50.477,7.8l-5.307.651A1.318,1.318,0,0,0,44.1,9.919l.054.732a1.048,1.048,0,0,0,1.046.971h.562a1.062,1.062,0,0,1,1.062,1.062v.724a1.062,1.062,0,0,1-1.062,1.062H44.442l2.321,31.272a1.975,1.975,0,0,0,1.993,1.941l4.733-.351a1.974,1.974,0,0,0,1.684-2.214Z" transform="translate(-18.854 -3.332)" fill="#002e6d"></path><path id="Path_30464" data-name="Path 30464" d="M141.032,89.761a6.5,6.5,0,1,1-6.5-6.5,6.5,6.5,0,0,1,6.5,6.5" transform="translate(-54.737 -35.597)" fill="#171717"></path><path id="Path_30465" data-name="Path 30465" d="M140.377,91.7a3.911,3.911,0,1,1-3.912-3.912,3.911,3.911,0,0,1,3.912,3.912" transform="translate(-56.672 -37.531)" fill="#fff"></path><path id="Path_30466" data-name="Path 30466" d="M139.785,93.443a1.573,1.573,0,1,1-1.573-1.573,1.573,1.573,0,0,1,1.573,1.573" transform="translate(-58.418 -39.278)" fill="#171717"></path><rect id="Rectangle_22886" data-name="Rectangle 22886" width="46.335" height="1.94" transform="translate(28.709 45.69)" fill="#002e6d"></rect><path id="Path_30467" data-name="Path 30467" d="M91.877,88.194l-43.64-.034V82.269L94.05,82.4Z" transform="translate(-20.623 -35.173)" fill="#002e6d"></path><rect id="Rectangle_22887" data-name="Rectangle 22887" width="42.854" height="0.807" transform="translate(28.843 52.419)" fill="#002e6d"></rect><path id="Path_30468" data-name="Path 30468" d="M2.183,69.949H.688A.687.687,0,0,1,0,69.261V65.613a.687.687,0,0,1,.688-.688h1.5a.687.687,0,0,1,.688.688v3.649a.687.687,0,0,1-.688.688" transform="translate(0 -27.758)" fill="#002e6d"></path><path id="Path_30469" data-name="Path 30469" d="M6.11,32.737l-1.572-.908a.834.834,0,0,1-.306-1.14l2.215-3.836a.834.834,0,0,1,1.14-.306l1.572.908a.835.835,0,0,1,.306,1.14L7.251,32.432a.835.835,0,0,1-1.141.306" transform="translate(-1.762 -11.302)" fill="#002e6d"></path><path id="Path_30470" data-name="Path 30470" d="M2.094,86.975H1.6a1.6,1.6,0,0,1-1.6-1.6V76.568a.777.777,0,0,1,.777-.777H2.094a.777.777,0,0,1,.777.777V86.2a.777.777,0,0,1-.777.777" transform="translate(0 -32.403)" fill="#002e6d"></path><path id="Path_30471" data-name="Path 30471" d="M21.431,45.246H11.3a.519.519,0,0,1-.5-.661l1.424-5c.468-1.6,1.008-2.25,2.25-2.25H23a.572.572,0,0,1,.572.572v5.2a2.14,2.14,0,0,1-2.14,2.14" transform="translate(-4.61 -15.963)" fill="#fff"></path><path id="Path_30472" data-name="Path 30472" d="M124.6,90.525a15.753,15.753,0,0,1-.313-3.118,7.656,7.656,0,1,1,15.311,0,15.711,15.711,0,0,1-.314,3.118h1.978a19.811,19.811,0,0,0,.25-3.118,9.57,9.57,0,0,0-19.139,0,19.809,19.809,0,0,0,.25,3.118Z" transform="translate(-52.317 -33.278)" fill="#002e6d"></path><path id="Path_30473" data-name="Path 30473" d="M41.111,45.287H37.3a.7.7,0,0,1-.7-.7V38.04a.7.7,0,0,1,.7-.7h3.807a.7.7,0,0,1,.7.7v6.543a.7.7,0,0,1-.7.7" transform="translate(-15.648 -15.962)" fill="#fff"></path><path id="Path_30474" data-name="Path 30474" d="M307.019,89.761a6.5,6.5,0,1,1-6.5-6.5,6.5,6.5,0,0,1,6.5,6.5" transform="translate(-125.702 -35.597)" fill="#171717"></path><path id="Path_30475" data-name="Path 30475" d="M306.364,91.7a3.911,3.911,0,1,1-3.912-3.912,3.911,3.911,0,0,1,3.912,3.912" transform="translate(-127.637 -37.531)" fill="#fff"></path><path id="Path_30476" data-name="Path 30476" d="M305.771,93.443A1.573,1.573,0,1,1,304.2,91.87a1.573,1.573,0,0,1,1.573,1.573" transform="translate(-129.383 -39.278)" fill="#171717"></path><path id="Path_30477" data-name="Path 30477" d="M344.927,89.761a6.5,6.5,0,1,1-6.5-6.5,6.5,6.5,0,0,1,6.5,6.5" transform="translate(-141.909 -35.597)" fill="#171717"></path><path id="Path_30478" data-name="Path 30478" d="M344.272,91.7a3.911,3.911,0,1,1-3.912-3.912,3.911,3.911,0,0,1,3.912,3.912" transform="translate(-143.844 -37.531)" fill="#fff"></path><path id="Path_30479" data-name="Path 30479" d="M343.679,93.443a1.573,1.573,0,1,1-1.573-1.573,1.573,1.573,0,0,1,1.573,1.573" transform="translate(-145.59 -39.278)" fill="#171717"></path><path id="Path_30480" data-name="Path 30480" d="M382.371,89.761a6.5,6.5,0,1,1-6.5-6.5,6.5,6.5,0,0,1,6.5,6.5" transform="translate(-157.918 -35.597)" fill="#171717"></path><path id="Path_30481" data-name="Path 30481" d="M381.716,91.7a3.911,3.911,0,1,1-3.912-3.912,3.912,3.912,0,0,1,3.912,3.912" transform="translate(-159.852 -37.531)" fill="#fff"></path><path id="Path_30482" data-name="Path 30482" d="M381.123,93.443a1.573,1.573,0,1,1-1.573-1.573,1.573,1.573,0,0,1,1.573,1.573" transform="translate(-161.599 -39.278)" fill="#171717"></path><rect id="Rectangle_22888" data-name="Rectangle 22888" width="218.939" height="42.218" rx="2.174" transform="translate(42.813 0.286)" fill="#fff"></rect><path id="Path_30483" data-name="Path 30483" d="M292.268.572a.96.96,0,0,1,.958.958V41.259a.959.959,0,0,1-.958.958H75.818a.959.959,0,0,1-.958-.958V1.531a.96.96,0,0,1,.958-.958Zm0-.572H75.818a1.531,1.531,0,0,0-1.53,1.531V41.259a1.53,1.53,0,0,0,1.53,1.531h216.45a1.531,1.531,0,0,0,1.53-1.531V1.531A1.531,1.531,0,0,0,292.268,0" transform="translate(-31.761)" fill="#002e6d"></path><rect id="Rectangle_22889" data-name="Rectangle 22889" width="47.537" height="0.572" transform="translate(47.088 39.822)" fill="#3767a9"></rect><rect id="Rectangle_22890" data-name="Rectangle 22890" width="47.537" height="0.572" transform="translate(101.216 39.822)" fill="#3767a9"></rect><rect id="Rectangle_22891" data-name="Rectangle 22891" width="47.537" height="0.572" transform="translate(155.345 39.822)" fill="#3767a9"></rect><rect id="Rectangle_22892" data-name="Rectangle 22892" width="47.537" height="0.572" transform="translate(209.473 39.822)" fill="#3767a9"></rect><rect id="Rectangle_22893" data-name="Rectangle 22893" width="47.537" height="0.572" transform="translate(47.088 37.808)" fill="#3767a9"></rect><rect id="Rectangle_22894" data-name="Rectangle 22894" width="47.537" height="0.572" transform="translate(101.216 37.808)" fill="#3767a9"></rect><rect id="Rectangle_22895" data-name="Rectangle 22895" width="47.537" height="0.572" transform="translate(155.345 37.808)" fill="#3767a9"></rect><rect id="Rectangle_22896" data-name="Rectangle 22896" width="47.537" height="0.572" transform="translate(209.473 37.808)" fill="#3767a9"></rect><rect id="Rectangle_22897" data-name="Rectangle 22897" width="209.888" height="0.572" transform="translate(47.122 33.781)" fill="#3767a9"></rect><rect id="Rectangle_22898" data-name="Rectangle 22898" width="47.537" height="0.572" transform="translate(47.088 35.795)" fill="#3767a9"></rect><rect id="Rectangle_22899" data-name="Rectangle 22899" width="47.537" height="0.572" transform="translate(101.216 35.795)" fill="#3767a9"></rect><rect id="Rectangle_22900" data-name="Rectangle 22900" width="47.537" height="0.572" transform="translate(155.345 35.795)" fill="#3767a9"></rect><rect id="Rectangle_22901" data-name="Rectangle 22901" width="47.537" height="0.572" transform="translate(209.473 35.795)" fill="#3767a9"></rect></g></svg> 