<?xml version="1.0" encoding="UTF-8"?> <svg xmlns="http://www.w3.org/2000/svg" xmlns:xlink="http://www.w3.org/1999/xlink" id="Group_21983" data-name="Group 21983" width="366.578" height="60.949" viewBox="0 0 366.578 60.949"><defs><clipPath id="clip-path"><rect id="Rectangle_22928" data-name="Rectangle 22928" width="366.578" height="60.949" fill="none"></rect></clipPath></defs><g id="Group_21977" data-name="Group 21977" transform="translate(0 0)" clip-path="url(#clip-path)"><path id="Path_30484" data-name="Path 30484" d="M517.241,89.791a6.532,6.532,0,1,1-6.532-6.532,6.532,6.532,0,0,1,6.532,6.532" transform="translate(-214.208 -35.374)" fill="#171717"></path><path id="Path_30485" data-name="Path 30485" d="M516.561,91.713a3.93,3.93,0,1,1-3.93-3.93,3.93,3.93,0,0,1,3.93,3.93" transform="translate(-216.13 -37.296)" fill="#fff"></path><path id="Path_30486" data-name="Path 30486" d="M515.947,93.449a1.58,1.58,0,1,1-1.58-1.58,1.58,1.58,0,0,1,1.58,1.58" transform="translate(-217.866 -39.032)" fill="#171717"></path><path id="Path_30487" data-name="Path 30487" d="M575.836,89.791a6.532,6.532,0,1,1-6.532-6.532,6.533,6.533,0,0,1,6.532,6.532" transform="translate(-239.103 -35.374)" fill="#171717"></path><path id="Path_30488" data-name="Path 30488" d="M575.156,91.713a3.93,3.93,0,1,1-3.93-3.93,3.93,3.93,0,0,1,3.93,3.93" transform="translate(-241.026 -37.296)" fill="#fff"></path><path id="Path_30489" data-name="Path 30489" d="M574.543,93.449a1.58,1.58,0,1,1-1.58-1.58,1.58,1.58,0,0,1,1.58,1.58" transform="translate(-242.762 -39.032)" fill="#171717"></path><path id="Path_30490" data-name="Path 30490" d="M607.864,76.014h-11.84a1.581,1.581,0,0,0-1.581,1.581v6.62a1.581,1.581,0,0,0,1.581,1.58h11.84a1.581,1.581,0,0,0,1.581-1.58V77.6a1.581,1.581,0,0,0-1.581-1.581" transform="translate(-252.559 -32.296)" fill="#3767a9"></path><path id="Path_30491" data-name="Path 30491" d="M475.183,71.539v.2H435.8V82.711a2.68,2.68,0,0,0,2.68,2.68h32.049l4.919-6.755c2.5-2.2,2.443-2.378,6.207-2.378a8.129,8.129,0,0,1,6.788,3.553h20.124a8.262,8.262,0,0,1,13.577,0h29.588V71.539Z" transform="translate(-185.159 -30.395)" fill="#002e6d"></path><path id="Path_30492" data-name="Path 30492" d="M276.107,89.791a6.532,6.532,0,1,1-6.532-6.532,6.532,6.532,0,0,1,6.532,6.532" transform="translate(-111.758 -35.374)" fill="#171717"></path><path id="Path_30493" data-name="Path 30493" d="M275.427,91.713a3.93,3.93,0,1,1-3.93-3.93,3.93,3.93,0,0,1,3.93,3.93" transform="translate(-113.681 -37.296)" fill="#fff"></path><path id="Path_30494" data-name="Path 30494" d="M274.813,93.449a1.58,1.58,0,1,1-1.58-1.58,1.58,1.58,0,0,1,1.58,1.58" transform="translate(-115.416 -39.032)" fill="#171717"></path><path id="Path_30495" data-name="Path 30495" d="M305.128,89.791a6.532,6.532,0,1,1-6.532-6.532,6.532,6.532,0,0,1,6.532,6.532" transform="translate(-124.088 -35.374)" fill="#171717"></path><path id="Path_30496" data-name="Path 30496" d="M304.448,91.713a3.93,3.93,0,1,1-3.93-3.93,3.93,3.93,0,0,1,3.93,3.93" transform="translate(-126.011 -37.296)" fill="#fff"></path><path id="Path_30497" data-name="Path 30497" d="M303.834,93.449a1.58,1.58,0,1,1-1.58-1.58,1.58,1.58,0,0,1,1.58,1.58" transform="translate(-127.746 -39.032)" fill="#171717"></path><path id="Path_30498" data-name="Path 30498" d="M311.838,71.012l-16.22,12.53H269.181v-3.72h4.307l4.307-9.985H171.677v1.175l38.766,14.317,9.4-5.507h3.93a8.26,8.26,0,0,1,13.866,0h2.874a8.26,8.26,0,0,1,13.866,0H262.2l3.46,6.069h38.669l19.261-14.88Z" transform="translate(-72.94 -29.671)" fill="#fff"></path><path id="Path_30499" data-name="Path 30499" d="M304.211,85.967H265.277l-3.461-6.07H254l-.084-.136a7.974,7.974,0,0,0-13.378,0l-.084.136h-3.194l-.085-.136a7.973,7.973,0,0,0-13.377,0l-.085.136h-4.012l-9.448,5.536L171.177,71V69.337H278.02L273.465,79.9h-4.209v3.145h26.052l16.219-12.53h12.688Zm-38.6-.575h38.4l18.517-14.3H311.724L295.5,83.618H268.681v-4.3h4.406l4.06-9.41H171.752V70.6L210.2,84.8l9.348-5.478H223.4a8.556,8.556,0,0,1,14.183,0h2.557a8.555,8.555,0,0,1,14.183,0h7.826Z" transform="translate(-72.727 -29.459)" fill="#002e6d"></path><path id="Path_30500" data-name="Path 30500" d="M130.03,78.692V70.4a.509.509,0,0,0-.509-.509h-7.037a.509.509,0,0,0-.508.509v8.3a.509.509,0,0,0,.508.509h7.037a.509.509,0,0,0,.509-.509" transform="translate(-51.823 -29.693)" fill="#3767a9"></path><rect id="Rectangle_22903" data-name="Rectangle 22903" width="8.055" height="9.313" rx="0.885" transform="translate(70.152 40.195)" fill="none" stroke="#3767a9"></rect><path id="Path_30501" data-name="Path 30501" d="M8.254,78.663H83.561a7.615,7.615,0,0,1,7.615,7.615v2.3H9.1Z" transform="translate(-3.507 -33.421)" fill="#3767a9"></path><path id="Path_30502" data-name="Path 30502" d="M130.03,78.692V70.4a.509.509,0,0,0-.509-.509h-7.037a.509.509,0,0,0-.508.509v8.3a.509.509,0,0,0,.508.509h7.037a.509.509,0,0,0,.509-.509" transform="translate(-51.823 -29.693)" fill="#3767a9"></path><path id="Path_30503" data-name="Path 30503" d="M73.43,92.559H55.043a.871.871,0,0,0-.871.871v1.5a.871.871,0,0,0,.871.871H71.928A2.374,2.374,0,0,0,74.3,93.43a.871.871,0,0,0-.871-.871" transform="translate(-23.016 -39.325)" fill="#3767a9"></path><path id="Path_30504" data-name="Path 30504" d="M101.188,92.088H95.021a.522.522,0,0,0-.522.522v2.2a.522.522,0,0,0,.522.522h6.168a.522.522,0,0,0,.522-.522v-2.2a.522.522,0,0,0-.522-.522" transform="translate(-40.149 -39.125)" fill="#3767a9"></path><path id="Path_30505" data-name="Path 30505" d="M155.307,90.822H149.3v-7.3h6.009a2.1,2.1,0,0,1,2.1,2.1v3.094a2.1,2.1,0,0,1-2.1,2.1" transform="translate(-63.432 -35.485)" fill="#3767a9"></path><path id="Path_30506" data-name="Path 30506" d="M35.454,89.791a6.532,6.532,0,1,1-6.532-6.532,6.532,6.532,0,0,1,6.532,6.532" transform="translate(-9.513 -35.374)" fill="#171717"></path><path id="Path_30507" data-name="Path 30507" d="M34.774,91.713a3.93,3.93,0,1,1-3.93-3.93,3.93,3.93,0,0,1,3.93,3.93" transform="translate(-11.435 -37.296)" fill="#fff"></path><path id="Path_30508" data-name="Path 30508" d="M34.16,93.449a1.58,1.58,0,1,1-1.58-1.58,1.58,1.58,0,0,1,1.58,1.58" transform="translate(-13.171 -39.032)" fill="#171717"></path><path id="Path_30509" data-name="Path 30509" d="M1.358,64.131V38.894L6.04,24.023a6.571,6.571,0,0,1,6.268-4.6H27.316l3.606,44.751h-3.5l-.045-1.817a7.062,7.062,0,0,0-7.271-7.308l-.451-.022a7.316,7.316,0,0,0-7.3,7.421v2.223Z" transform="translate(-0.577 -8.253)" fill="#002e6d"></path><path id="Path_30510" data-name="Path 30510" d="M52.587,9.746A1.971,1.971,0,0,0,50.507,7.8l-5.331.655a1.324,1.324,0,0,0-1.07,1.47l.055.736a1.053,1.053,0,0,0,1.051.975h.564a1.067,1.067,0,0,1,1.067,1.067v.728A1.067,1.067,0,0,1,45.774,14.5h-1.33l2.332,31.418a1.985,1.985,0,0,0,2,1.95l4.755-.353a1.983,1.983,0,0,0,1.692-2.224Z" transform="translate(-18.737 -3.31)" fill="#002e6d"></path><path id="Path_30511" data-name="Path 30511" d="M141.093,89.791a6.532,6.532,0,1,1-6.532-6.532,6.532,6.532,0,0,1,6.532,6.532" transform="translate(-54.395 -35.374)" fill="#171717"></path><path id="Path_30512" data-name="Path 30512" d="M140.413,91.713a3.93,3.93,0,1,1-3.93-3.93,3.93,3.93,0,0,1,3.93,3.93" transform="translate(-56.318 -37.296)" fill="#fff"></path><path id="Path_30513" data-name="Path 30513" d="M139.8,93.449a1.58,1.58,0,1,1-1.58-1.58,1.58,1.58,0,0,1,1.58,1.58" transform="translate(-58.054 -39.032)" fill="#171717"></path><rect id="Rectangle_22904" data-name="Rectangle 22904" width="46.551" height="1.949" transform="translate(28.843 45.903)" fill="#002e6d"></rect><path id="Path_30514" data-name="Path 30514" d="M92.08,88.221l-43.843-.035V82.268l46.026.133Z" transform="translate(-20.494 -34.953)" fill="#002e6d"></path><rect id="Rectangle_22905" data-name="Rectangle 22905" width="43.053" height="0.811" transform="translate(28.978 52.663)" fill="#002e6d"></rect><path id="Path_30515" data-name="Path 30515" d="M2.193,69.971H.691A.691.691,0,0,1,0,69.281V65.615a.691.691,0,0,1,.691-.691h1.5a.691.691,0,0,1,.691.691v3.666a.691.691,0,0,1-.691.691" transform="translate(0 -27.584)" fill="#002e6d"></path><path id="Path_30516" data-name="Path 30516" d="M6.119,32.766,4.54,31.854a.838.838,0,0,1-.307-1.146l2.225-3.854A.838.838,0,0,1,7.6,26.547l1.579.912A.838.838,0,0,1,9.49,28.6L7.265,32.459a.839.839,0,0,1-1.146.307" transform="translate(-1.751 -11.231)" fill="#002e6d"></path><path id="Path_30517" data-name="Path 30517" d="M2.1,87.026H1.6a1.6,1.6,0,0,1-1.6-1.6V76.571a.781.781,0,0,1,.781-.781H2.1a.781.781,0,0,1,.781.781v9.674a.781.781,0,0,1-.781.781" transform="translate(0 -32.201)" fill="#002e6d"></path><path id="Path_30518" data-name="Path 30518" d="M21.481,45.281H11.306a.521.521,0,0,1-.5-.664L12.235,39.6c.47-1.607,1.012-2.26,2.261-2.26h8.56a.574.574,0,0,1,.575.575v5.22a2.15,2.15,0,0,1-2.15,2.15" transform="translate(-4.582 -15.863)" fill="#fff"></path><path id="Path_30519" data-name="Path 30519" d="M124.607,90.583a15.827,15.827,0,0,1-.315-3.132,7.691,7.691,0,0,1,15.383,0,15.786,15.786,0,0,1-.315,3.132h1.987a19.9,19.9,0,0,0,.251-3.132,9.614,9.614,0,0,0-19.228,0,19.9,19.9,0,0,0,.251,3.132Z" transform="translate(-51.99 -33.07)" fill="#002e6d"></path><path id="Path_30520" data-name="Path 30520" d="M41.132,45.323H37.308a.707.707,0,0,1-.707-.707V38.042a.707.707,0,0,1,.707-.707h3.825a.707.707,0,0,1,.707.707v6.574a.707.707,0,0,1-.707.707" transform="translate(-15.551 -15.862)" fill="#fff"></path><path id="Rectangle_22906" data-name="Rectangle 22906" d="M1.819,0H163.456a1.819,1.819,0,0,1,1.819,1.819V40.594a1.82,1.82,0,0,1-1.82,1.82H1.818A1.818,1.818,0,0,1,0,40.6V1.819A1.819,1.819,0,0,1,1.819,0Z" transform="translate(43.013 0.287)" fill="#fff"></path><path id="Path_30521" data-name="Path 30521" d="M238.8.575a.76.76,0,0,1,.759.759V41.656a.76.76,0,0,1-.759.759H75.621a.76.76,0,0,1-.759-.759V1.334a.76.76,0,0,1,.759-.759Zm0-.575H75.621a1.334,1.334,0,0,0-1.334,1.334V41.656a1.334,1.334,0,0,0,1.334,1.334H238.8a1.334,1.334,0,0,0,1.334-1.334V1.334A1.334,1.334,0,0,0,238.8,0" transform="translate(-31.562 0)" fill="#002e6d"></path><rect id="Rectangle_22907" data-name="Rectangle 22907" width="47.759" height="0.575" transform="translate(47.308 40.007)" fill="#3767a9"></rect><rect id="Rectangle_22908" data-name="Rectangle 22908" width="47.759" height="0.575" transform="translate(101.689 40.007)" fill="#3767a9"></rect><rect id="Rectangle_22909" data-name="Rectangle 22909" width="47.759" height="0.575" transform="translate(156.069 40.007)" fill="#3767a9"></rect><rect id="Rectangle_22910" data-name="Rectangle 22910" width="47.759" height="0.575" transform="translate(47.308 37.984)" fill="#3767a9"></rect><rect id="Rectangle_22911" data-name="Rectangle 22911" width="47.759" height="0.575" transform="translate(101.689 37.984)" fill="#3767a9"></rect><rect id="Rectangle_22912" data-name="Rectangle 22912" width="47.759" height="0.575" transform="translate(156.069 37.984)" fill="#3767a9"></rect><rect id="Rectangle_22913" data-name="Rectangle 22913" width="156.73" height="0.575" transform="translate(47.342 33.937)" fill="#3767a9"></rect><rect id="Rectangle_22914" data-name="Rectangle 22914" width="47.759" height="0.575" transform="translate(47.308 35.961)" fill="#3767a9"></rect><rect id="Rectangle_22915" data-name="Rectangle 22915" width="47.759" height="0.575" transform="translate(101.689 35.961)" fill="#3767a9"></rect><rect id="Rectangle_22916" data-name="Rectangle 22916" width="47.759" height="0.575" transform="translate(156.069 35.961)" fill="#3767a9"></rect><path id="Rectangle_22917" data-name="Rectangle 22917" d="M1.731,0H151.208a1.731,1.731,0,0,1,1.731,1.731V40.684a1.73,1.73,0,0,1-1.73,1.73H1.73A1.73,1.73,0,0,1,0,40.684V1.731A1.731,1.731,0,0,1,1.731,0Z" transform="translate(213.35 0.287)" fill="#fff"></path><path id="Path_30522" data-name="Path 30522" d="M522.69.575a.709.709,0,0,1,.708.708V41.706a.709.709,0,0,1-.708.708H371.741a.709.709,0,0,1-.708-.708V1.283a.709.709,0,0,1,.708-.708Zm0-.575H371.741a1.283,1.283,0,0,0-1.283,1.283V41.706a1.283,1.283,0,0,0,1.283,1.283H522.69a1.283,1.283,0,0,0,1.283-1.283V1.283A1.283,1.283,0,0,0,522.69,0" transform="translate(-157.395 0)" fill="#002e6d"></path><rect id="Rectangle_22918" data-name="Rectangle 22918" width="44.206" height="0.575" transform="translate(217.304 40.007)" fill="#3767a9"></rect><rect id="Rectangle_22919" data-name="Rectangle 22919" width="44.206" height="0.575" transform="translate(267.641 40.007)" fill="#3767a9"></rect><rect id="Rectangle_22920" data-name="Rectangle 22920" width="44.206" height="0.575" transform="translate(317.977 40.007)" fill="#3767a9"></rect><rect id="Rectangle_22921" data-name="Rectangle 22921" width="44.206" height="0.575" transform="translate(217.304 37.984)" fill="#3767a9"></rect><rect id="Rectangle_22922" data-name="Rectangle 22922" width="44.206" height="0.575" transform="translate(267.641 37.984)" fill="#3767a9"></rect><rect id="Rectangle_22923" data-name="Rectangle 22923" width="44.206" height="0.575" transform="translate(317.977 37.984)" fill="#3767a9"></rect><rect id="Rectangle_22924" data-name="Rectangle 22924" width="145.073" height="0.575" transform="translate(217.337 33.937)" fill="#3767a9"></rect><rect id="Rectangle_22925" data-name="Rectangle 22925" width="44.206" height="0.575" transform="translate(217.304 35.961)" fill="#3767a9"></rect><rect id="Rectangle_22926" data-name="Rectangle 22926" width="44.206" height="0.575" transform="translate(267.641 35.961)" fill="#3767a9"></rect><rect id="Rectangle_22927" data-name="Rectangle 22927" width="44.206" height="0.575" transform="translate(317.977 35.961)" fill="#3767a9"></rect><path id="Path_30523" data-name="Path 30523" d="M631.575,85.783h1.768V81.965h-3.818v2.521l-.954,1.591v3.451l.973,1.045-.089,2.25.874.7,2.277-5.532-1.046-.667-.42.438V86.3Z" transform="translate(-267.059 -34.824)" fill="#fff"></path><path id="Path_30524" data-name="Path 30524" d="M630.236,93.781l-1.287-1.037.09-2.275-.969-1.041V85.785l.955-1.59V81.466h4.393v4.392H631.5l-.281.332v.649l.088-.092,1.448.923Zm-.7-1.3.461.372,2.039-4.954-.643-.41-.752.783V85.98l.588-.7h1.614V82.041H629.6v2.313l-.955,1.591V89.2l.978,1.05Z" transform="translate(-266.846 -34.612)" fill="#002e6d"></path><path id="Path_30525" data-name="Path 30525" d="M213.152,79.019h-18.87a.442.442,0,0,0-.442.442V88.6a.443.443,0,0,0,.442.443h18.87a.443.443,0,0,0,.442-.443V79.461a.442.442,0,0,0-.442-.442" transform="translate(-82.356 -33.573)" fill="#fff"></path><path id="Path_30526" data-name="Path 30526" d="M212.939,89.115H194.07a.731.731,0,0,1-.73-.73V79.249a.731.731,0,0,1,.73-.73h18.87a.731.731,0,0,1,.73.73v9.135a.731.731,0,0,1-.73.73M194.07,79.094a.155.155,0,0,0-.155.155v9.135a.155.155,0,0,0,.155.155h18.87a.155.155,0,0,0,.155-.155V79.249a.155.155,0,0,0-.155-.155Z" transform="translate(-82.144 -33.36)" fill="#002e6d"></path></g></svg> 