<?xml version="1.0" encoding="UTF-8"?> <svg xmlns="http://www.w3.org/2000/svg" xmlns:xlink="http://www.w3.org/1999/xlink" id="Group_21980" data-name="Group 21980" width="148.189" height="59.666" viewBox="0 0 148.189 59.666"><defs><clipPath id="clip-path"><rect id="Rectangle_22931" data-name="Rectangle 22931" width="148.189" height="59.666" fill="none"></rect></clipPath></defs><g id="Group_21979" data-name="Group 21979" transform="translate(0 0)" clip-path="url(#clip-path)"><path id="Rectangle_22929" data-name="Rectangle 22929" d="M1.465,0H108.378a1.465,1.465,0,0,1,1.465,1.465V44.021a1.466,1.466,0,0,1-1.466,1.466H1.465A1.465,1.465,0,0,1,0,44.022V1.465A1.465,1.465,0,0,1,1.465,0Z" transform="translate(38.06 0.286)" fill="#fff"></path><path id="Path_30527" data-name="Path 30527" d="M175.178.573a.554.554,0,0,1,.553.553V44.933a.554.554,0,0,1-.553.553H67.016a.554.554,0,0,1-.553-.553V1.127a.554.554,0,0,1,.553-.553Zm0-.573H67.016a1.126,1.126,0,0,0-1.127,1.127V44.933a1.126,1.126,0,0,0,1.127,1.127H175.178a1.126,1.126,0,0,0,1.127-1.127V1.127A1.127,1.127,0,0,0,175.178,0" transform="translate(-28.115 0)" fill="#002e6d"></path><rect id="Rectangle_22930" data-name="Rectangle 22930" width="106.335" height="0.573" transform="translate(39.389 42.938)" fill="#cbd8e9"></rect><path id="Path_30528" data-name="Path 30528" d="M256.165,42.576h-1.548V5.826h1.548V6.4h-.975V42h.975Z" transform="translate(-108.648 -2.486)" fill="#cbd8e9"></path><path id="Path_30529" data-name="Path 30529" d="M12.25,76.464l18.861.484,1.117,1.771c.107,0,55.817-.308,56.3-.3a4.449,4.449,0,0,1,2.725.789,2.367,2.367,0,0,1,1.129,1.9v4.277H9.814Z" transform="translate(-4.188 -32.628)" fill="#3767a9"></path><path id="Path_30530" data-name="Path 30530" d="M35.686,86.665a7,7,0,1,1-7-7,7,7,0,0,1,7,7" transform="translate(-9.257 -33.996)" fill="#171717"></path><path id="Path_30531" data-name="Path 30531" d="M34.975,88.74a4.209,4.209,0,1,1-4.21-4.209,4.21,4.21,0,0,1,4.21,4.209" transform="translate(-11.332 -36.07)" fill="#fff"></path><path id="Path_30532" data-name="Path 30532" d="M34.331,90.613a1.692,1.692,0,1,1-1.692-1.692,1.693,1.693,0,0,1,1.692,1.692" transform="translate(-13.205 -37.943)" fill="#171717"></path><path id="Path_30533" data-name="Path 30533" d="M1.371,60.936V35.548l4.71-14.959a6.61,6.61,0,0,1,6.306-4.625h15.1L31.11,61.05H27.589l-.045-1.9A7.1,7.1,0,0,0,20.23,51.8l-.453-.023a7.36,7.36,0,0,0-7.344,7.465V61.48Z" transform="translate(-0.585 -6.812)" fill="#002e6d"></path><path id="Path_30534" data-name="Path 30534" d="M53.609,13.958l2.349,31.648a1.862,1.862,0,0,1-1.72,2l-4.784.355a1.864,1.864,0,0,1-2-1.72L45.08,14.193a1.236,1.236,0,0,1,1.089-1.319l5.365-.629a1.864,1.864,0,0,1,2.075,1.713" transform="translate(-19.235 -5.22)" fill="#002e6d"></path><path id="Path_30535" data-name="Path 30535" d="M77.7,88.376l-29.023-.049V79.911l35.775.189c-.161.2-2.212,6.963-2.311,6.983-.013,0-4.433,1.283-4.441,1.293" transform="translate(-20.773 -34.099)" fill="#002e6d"></path><path id="Path_30536" data-name="Path 30536" d="M104.515,87.083l83.109-.042V79.91l-86.518.161Z" transform="translate(-43.143 -34.098)" fill="#002e6d"></path><path id="Path_30537" data-name="Path 30537" d="M2.206,66.959H.695a.7.7,0,0,1-.695-.7V62.576a.7.7,0,0,1,.695-.7H2.206a.7.7,0,0,1,.7.7v3.687a.7.7,0,0,1-.7.7" transform="translate(0 -26.405)" fill="#002e6d"></path><path id="Path_30538" data-name="Path 30538" d="M6.169,29.407,4.581,28.49a.843.843,0,0,1-.309-1.153L6.51,23.461a.844.844,0,0,1,1.153-.309l1.589.917a.844.844,0,0,1,.309,1.153L7.322,29.1a.844.844,0,0,1-1.153.309" transform="translate(-1.774 -9.831)" fill="#002e6d"></path><path id="Path_30539" data-name="Path 30539" d="M2.115,84.151h-.5A1.613,1.613,0,0,1,0,82.538v-8.9a.786.786,0,0,1,.785-.786h1.33a.786.786,0,0,1,.786.786v9.732a.786.786,0,0,1-.786.786" transform="translate(0 -31.085)" fill="#002e6d"></path><path id="Path_30540" data-name="Path 30540" d="M20.618,42.18H8.852a.6.6,0,0,1-.58-.768l1.655-5.806c.544-1.858,1.171-2.614,2.614-2.614h9.9a.665.665,0,0,1,.665.664v6.037a2.487,2.487,0,0,1-2.486,2.486" transform="translate(-3.52 -14.078)" fill="#fff"></path><path id="Path_30541" data-name="Path 30541" d="M73.192,78.9l6.879-2.561c.426,0,6.806,2.506,6.806,4.1l1.317,6.415H71.679Z" transform="translate(-30.586 -32.573)" fill="#3767a9"></path><path id="Path_30542" data-name="Path 30542" d="M87.975,86.665a7,7,0,1,1-7-7,7,7,0,0,1,7,7" transform="translate(-31.569 -33.996)" fill="#171717"></path><path id="Path_30543" data-name="Path 30543" d="M87.263,88.74a4.21,4.21,0,1,1-4.209-4.209,4.209,4.209,0,0,1,4.209,4.209" transform="translate(-33.643 -36.07)" fill="#fff"></path><path id="Path_30544" data-name="Path 30544" d="M86.62,90.613a1.692,1.692,0,1,1-1.692-1.692,1.693,1.693,0,0,1,1.692,1.692" transform="translate(-35.517 -37.943)" fill="#171717"></path><path id="Path_30545" data-name="Path 30545" d="M71.35,86.244a4.454,4.454,0,0,1-.182-1.661,7.737,7.737,0,1,1,15.474,0,4.98,4.98,0,0,1-.248,1.757h2a6.258,6.258,0,0,0,.183-1.757,9.671,9.671,0,0,0-19.343,0,5.58,5.58,0,0,0,.118,1.661Z" transform="translate(-29.54 -31.966)" fill="#002e6d"></path><path id="Path_30546" data-name="Path 30546" d="M208.213,78.9l6.879-2.561c.426,0,6.806,2.506,6.806,4.1l1.317,6.415H206.7Z" transform="translate(-88.201 -32.573)" fill="#3767a9"></path><path id="Path_30547" data-name="Path 30547" d="M223,86.665a7,7,0,1,1-7-7,7,7,0,0,1,7,7" transform="translate(-89.184 -33.996)" fill="#171717"></path><path id="Path_30548" data-name="Path 30548" d="M222.285,88.74a4.209,4.209,0,1,1-4.209-4.209,4.209,4.209,0,0,1,4.209,4.209" transform="translate(-91.259 -36.07)" fill="#fff"></path><path id="Path_30549" data-name="Path 30549" d="M221.641,90.613a1.692,1.692,0,1,1-1.692-1.692,1.693,1.693,0,0,1,1.692,1.692" transform="translate(-93.132 -37.943)" fill="#171717"></path><path id="Path_30550" data-name="Path 30550" d="M206.371,86.244a4.454,4.454,0,0,1-.182-1.661,7.737,7.737,0,1,1,15.474,0,4.98,4.98,0,0,1-.248,1.757h2a6.257,6.257,0,0,0,.183-1.757,9.671,9.671,0,0,0-19.343,0,5.58,5.58,0,0,0,.118,1.661Z" transform="translate(-87.155 -31.966)" fill="#002e6d"></path><path id="Path_30551" data-name="Path 30551" d="M168.724,78.9l6.879-2.561c.426,0,6.806,2.506,6.806,4.1l1.317,6.415H167.211Z" transform="translate(-71.351 -32.573)" fill="#3767a9"></path><path id="Path_30552" data-name="Path 30552" d="M183.507,86.665a7,7,0,1,1-7-7,7,7,0,0,1,7,7" transform="translate(-72.333 -33.996)" fill="#171717"></path><path id="Path_30553" data-name="Path 30553" d="M182.795,88.74a4.209,4.209,0,1,1-4.209-4.209,4.209,4.209,0,0,1,4.209,4.209" transform="translate(-74.408 -36.07)" fill="#fff"></path><path id="Path_30554" data-name="Path 30554" d="M182.152,90.613a1.692,1.692,0,1,1-1.692-1.692,1.693,1.693,0,0,1,1.692,1.692" transform="translate(-76.282 -37.943)" fill="#171717"></path><path id="Path_30555" data-name="Path 30555" d="M166.882,86.244a4.454,4.454,0,0,1-.182-1.661,7.737,7.737,0,0,1,15.474,0,4.979,4.979,0,0,1-.248,1.757h2a6.258,6.258,0,0,0,.183-1.757,9.671,9.671,0,1,0-19.343,0,5.58,5.58,0,0,0,.118,1.661Z" transform="translate(-70.305 -31.966)" fill="#002e6d"></path><path id="Path_30556" data-name="Path 30556" d="M134.288,89.6H111.162a1.268,1.268,0,0,1-1.269-1.269V84.626a1.268,1.268,0,0,1,1.269-1.269h23.127a1.269,1.269,0,0,1,1.269,1.269v3.708a1.269,1.269,0,0,1-1.269,1.269" transform="translate(-46.892 -35.569)" fill="#fff"></path><path id="Path_30557" data-name="Path 30557" d="M134.075,89.677H110.948a1.557,1.557,0,0,1-1.555-1.555V84.413a1.557,1.557,0,0,1,1.555-1.555h23.127a1.557,1.557,0,0,1,1.555,1.555v3.708a1.557,1.557,0,0,1-1.555,1.555m-23.127-6.245a.984.984,0,0,0-.982.982v3.708a.984.984,0,0,0,.982.982h23.127a.984.984,0,0,0,.982-.982V84.413a.984.984,0,0,0-.982-.982Z" transform="translate(-46.679 -35.356)" fill="#002e6d"></path></g></svg> 