<?xml version="1.0" encoding="UTF-8"?> <svg xmlns="http://www.w3.org/2000/svg" xmlns:xlink="http://www.w3.org/1999/xlink" id="Group_21982" data-name="Group 21982" width="139.943" height="59.666" viewBox="0 0 139.943 59.666"><defs><clipPath id="clip-path"><rect id="Rectangle_22934" data-name="Rectangle 22934" width="139.943" height="59.666" fill="none"></rect></clipPath></defs><g id="Group_21981" data-name="Group 21981" transform="translate(0 0)" clip-path="url(#clip-path)"><path id="Rectangle_22932" data-name="Rectangle 22932" d="M1.4,0H100.78a1.4,1.4,0,0,1,1.4,1.4v42.7a1.395,1.395,0,0,1-1.395,1.395H1.4a1.4,1.4,0,0,1-1.4-1.4V1.4A1.4,1.4,0,0,1,1.4,0Z" transform="translate(37.481 0.286)" fill="#fff"></path><path id="Path_30558" data-name="Path 30558" d="M166.541.573a.514.514,0,0,1,.514.514V44.973a.514.514,0,0,1-.514.513H65.965a.514.514,0,0,1-.514-.513V1.087a.514.514,0,0,1,.514-.514Zm0-.573H65.965a1.087,1.087,0,0,0-1.087,1.087V44.973a1.087,1.087,0,0,0,1.087,1.086H166.541a1.087,1.087,0,0,0,1.087-1.086V1.087A1.087,1.087,0,0,0,166.541,0" transform="translate(-27.684 0)" fill="#002e6d"></path><rect id="Rectangle_22933" data-name="Rectangle 22933" width="98.953" height="0.573" transform="translate(38.697 42.938)" fill="#cbd8e9"></rect><path id="Path_30559" data-name="Path 30559" d="M241.035,42.576h-1.461V5.826h1.461V6.4h-.887V42h.887Z" transform="translate(-102.229 -2.486)" fill="#cbd8e9"></path><path id="Path_30560" data-name="Path 30560" d="M12.25,76.464l18.861.484,1.117,1.771c.107,0,55.817-.308,56.3-.3a4.449,4.449,0,0,1,2.725.789,2.367,2.367,0,0,1,1.129,1.9v4.277H9.814Z" transform="translate(-4.188 -32.628)" fill="#3767a9"></path><path id="Path_30561" data-name="Path 30561" d="M35.686,86.665a7,7,0,1,1-7-7,7,7,0,0,1,7,7" transform="translate(-9.257 -33.996)" fill="#171717"></path><path id="Path_30562" data-name="Path 30562" d="M34.975,88.74a4.209,4.209,0,1,1-4.21-4.209,4.21,4.21,0,0,1,4.21,4.209" transform="translate(-11.332 -36.07)" fill="#fff"></path><path id="Path_30563" data-name="Path 30563" d="M34.331,90.613a1.692,1.692,0,1,1-1.692-1.692,1.693,1.693,0,0,1,1.692,1.692" transform="translate(-13.205 -37.943)" fill="#171717"></path><path id="Path_30564" data-name="Path 30564" d="M1.371,60.936V35.548l4.71-14.959a6.61,6.61,0,0,1,6.306-4.625h15.1l3.642,43.83H27.6l-.06-.641A7.1,7.1,0,0,0,20.23,51.8l-.453-.023a7.36,7.36,0,0,0-7.344,7.465V61.48Z" transform="translate(-0.585 -6.812)" fill="#002e6d"></path><path id="Path_30565" data-name="Path 30565" d="M53.609,13.958l2.349,31.648a1.862,1.862,0,0,1-1.72,2l-4.784.355a1.864,1.864,0,0,1-2-1.72L45.08,14.193a1.236,1.236,0,0,1,1.089-1.319l5.365-.629a1.864,1.864,0,0,1,2.075,1.713" transform="translate(-19.235 -5.22)" fill="#002e6d"></path><path id="Path_30566" data-name="Path 30566" d="M51.419,87.083,158.4,87.041V79.91l-107.06.161Z" transform="translate(-21.907 -34.098)" fill="#002e6d"></path><path id="Path_30567" data-name="Path 30567" d="M2.206,66.959H.695a.7.7,0,0,1-.695-.7V62.576a.7.7,0,0,1,.695-.7H2.206a.7.7,0,0,1,.7.7v3.687a.7.7,0,0,1-.7.7" transform="translate(0 -26.405)" fill="#002e6d"></path><path id="Path_30568" data-name="Path 30568" d="M6.169,29.407,4.581,28.49a.843.843,0,0,1-.309-1.153L6.51,23.461a.844.844,0,0,1,1.153-.309l1.589.917a.844.844,0,0,1,.309,1.153L7.322,29.1a.844.844,0,0,1-1.153.309" transform="translate(-1.774 -9.831)" fill="#002e6d"></path><path id="Path_30569" data-name="Path 30569" d="M2.115,84.151h-.5A1.613,1.613,0,0,1,0,82.538v-8.9a.786.786,0,0,1,.785-.786h1.33a.786.786,0,0,1,.786.786v9.732a.786.786,0,0,1-.786.786" transform="translate(0 -31.085)" fill="#002e6d"></path><path id="Path_30570" data-name="Path 30570" d="M20.618,42.18H8.852a.6.6,0,0,1-.58-.768l1.655-5.806c.544-1.858,1.171-2.614,2.614-2.614h9.9a.665.665,0,0,1,.665.664v6.037a2.487,2.487,0,0,1-2.486,2.486" transform="translate(-3.52 -14.078)" fill="#fff"></path><path id="Path_30571" data-name="Path 30571" d="M191.618,78.9l6.879-2.561c.426,0,6.806,2.506,6.806,4.1l1.317,6.415H190.1Z" transform="translate(-81.12 -32.573)" fill="#3767a9"></path><path id="Path_30572" data-name="Path 30572" d="M206.4,86.665a7,7,0,1,1-7-7,7,7,0,0,1,7,7" transform="translate(-82.102 -33.996)" fill="#171717"></path><path id="Path_30573" data-name="Path 30573" d="M205.689,88.74a4.209,4.209,0,1,1-4.209-4.209,4.209,4.209,0,0,1,4.209,4.209" transform="translate(-84.177 -36.07)" fill="#fff"></path><path id="Path_30574" data-name="Path 30574" d="M205.045,90.613a1.692,1.692,0,1,1-1.692-1.692,1.693,1.693,0,0,1,1.692,1.692" transform="translate(-86.05 -37.943)" fill="#171717"></path><path id="Path_30575" data-name="Path 30575" d="M189.775,86.244a4.454,4.454,0,0,1-.182-1.661,7.737,7.737,0,0,1,15.474,0,4.979,4.979,0,0,1-.248,1.757h2A6.258,6.258,0,0,0,207,84.583a9.671,9.671,0,0,0-19.343,0,5.58,5.58,0,0,0,.118,1.661Z" transform="translate(-80.073 -31.966)" fill="#002e6d"></path><path id="Path_30576" data-name="Path 30576" d="M152.128,78.9l6.879-2.561c.426,0,6.806,2.506,6.806,4.1l1.317,6.415H150.615Z" transform="translate(-64.269 -32.573)" fill="#3767a9"></path><path id="Path_30577" data-name="Path 30577" d="M166.911,86.665a7,7,0,1,1-7-7,7,7,0,0,1,7,7" transform="translate(-65.252 -33.996)" fill="#171717"></path><path id="Path_30578" data-name="Path 30578" d="M166.2,88.74a4.209,4.209,0,1,1-4.209-4.209A4.209,4.209,0,0,1,166.2,88.74" transform="translate(-67.327 -36.07)" fill="#fff"></path><path id="Path_30579" data-name="Path 30579" d="M165.556,90.613a1.692,1.692,0,1,1-1.692-1.692,1.693,1.693,0,0,1,1.692,1.692" transform="translate(-69.2 -37.943)" fill="#171717"></path><path id="Path_30580" data-name="Path 30580" d="M150.286,86.244a4.454,4.454,0,0,1-.182-1.661,7.737,7.737,0,1,1,15.474,0,4.993,4.993,0,0,1-.247,1.757h2a6.258,6.258,0,0,0,.183-1.757,9.671,9.671,0,0,0-19.343,0,5.58,5.58,0,0,0,.118,1.661Z" transform="translate(-63.223 -31.966)" fill="#002e6d"></path><path id="Path_30581" data-name="Path 30581" d="M117.692,89.6H94.566A1.268,1.268,0,0,1,93.3,88.334V84.626a1.268,1.268,0,0,1,1.269-1.269h23.127a1.269,1.269,0,0,1,1.269,1.269v3.708a1.269,1.269,0,0,1-1.269,1.269" transform="translate(-39.811 -35.569)" fill="#fff"></path><path id="Path_30582" data-name="Path 30582" d="M117.478,89.676H94.351A1.557,1.557,0,0,1,92.8,88.12V84.412a1.557,1.557,0,0,1,1.555-1.555h23.127a1.557,1.557,0,0,1,1.555,1.555V88.12a1.557,1.557,0,0,1-1.555,1.555M94.351,83.43a.984.984,0,0,0-.982.982V88.12a.984.984,0,0,0,.982.982h23.127a.984.984,0,0,0,.982-.982V84.412a.984.984,0,0,0-.982-.982Z" transform="translate(-39.597 -35.356)" fill="#002e6d"></path></g></svg> 